<?xml version="1.0" encoding="UTF-8"?>
<svg preserveAspectRatio="none" viewBox="0 0 5637 905" version="1.1" xmlns="http://www.w3.org/2000/svg" xmlns:xlink="http://www.w3.org/1999/xlink">
    <!-- Generator: Sketch 51.2 (57519) - http://www.bohemiancoding.com/sketch -->
    <title>Path 4</title>
    <desc>Created with Sketch.</desc>
    <defs></defs>
    <g id="Page-1" stroke="none" stroke-width="1" fill="none" fill-rule="evenodd">
        <path d="M3655.33286,777.470812 C3627.62022,775.997456 3599.7093,772.938174 3572.12516,774.248442 C3560.96564,774.778528 3549.87187,775.942863 3538.82745,777.207069 C3522.02707,779.130136 3505.61629,783.205204 3488.62433,783.806419 C3446.14994,785.30926 3371.18644,781.473616 3322.00353,784.943245 C3284.16191,787.612798 3246.85097,793.76718 3208.92524,795.727267 C3189.93648,796.708648 3170.9132,794.003543 3151.87897,793.735662 C3123.72872,793.339486 3095.50312,795.103533 3067.412,793.735662 C3052.01437,792.985889 3098.30445,793.127393 3113.63832,791.873569 C3123.91071,791.033614 3696.72292,749.009481 3933.44668,734.783178 C3993.06113,723.692829 4052.17564,711.415539 4110.79007,697.95132 C4094.21362,699.106711 4088.54125,698.887132 4066.23122,698.729428 C4049.50267,698.611179 4049.30124,698.020951 4033.83746,696.886211 C4023.98242,696.163043 4012.23241,695.863704 4015.59357,695.013612 C4022.39359,693.293778 4036.05353,693.638339 4054.15981,691.746358 C4073.60098,689.714891 4114.39143,683.934033 4123.09725,683.270005 C4131.1891,682.652806 4144.53315,681.178082 4163.12939,678.845833 C4168.12691,678.219068 4173.06995,677.215636 4177.91628,675.844103 L4221.18708,663.598294 C4211.20676,668.85012 4200.51865,674.042924 4189.12277,679.176706 C4205.34185,675.12641 4221.52205,670.983832 4237.66337,666.748971 C4240.585,666.552908 4242.73896,666.371228 4243.68548,666.212835 C4263.12555,662.959666 4281.59465,655.650065 4301.13248,653.047607 C4310.2588,651.831973 4360.2187,638.755313 4451.0122,613.817625 C4412.3888,623.636618 4378.65854,630.915738 4349.82143,635.654986 C4466.64013,601.511857 4581.37586,562.42483 4694.02864,518.393905 C4716.17864,511.30063 4741.16284,503.229317 4765.30851,495.358961 C4759.95385,500.135844 4754.55178,504.854187 4748.83545,509.168956 C4730.88949,522.714828 4710.33003,535.323131 4687.15707,546.993865 C4700.28684,543.376655 4710.20892,541.048082 4716.9233,540.008147 C4721.9755,539.225653 4823.32527,506.416713 4826.31027,505.864522 C4831.55038,504.895164 4945.62405,461.805962 4949.33956,460.234369 C4987.61104,444.046199 4974.70441,455.119887 5014.37009,431.904771 C5019.97911,428.621984 5027.90189,422.74266 5032.67778,418.334869 C5034.89462,416.288888 5037.82769,411.973486 5041.47699,405.388662 C5006.78496,420.424693 4986.88101,429.263396 4981.76514,431.904771 C4957.30635,444.533089 4931.29283,454.265893 4904.96338,462.123557 C4866.18921,478.28766 4844.16459,487.316708 4838.8895,489.210701 C4834.17982,490.901691 4825.19301,492.984516 4811.92907,495.459175 C4836.9114,482.318103 4856.42372,470.526631 4870.46602,460.084758 C4872.23178,459.409201 4873.36605,458.931062 4873.78937,458.675853 C4881.17593,454.222653 4960.74816,419.950182 5004.69827,398.820363 C5048.64838,377.690545 5105.29071,349.512697 5130.05307,338.014723 C5154.81543,326.516749 5169.02206,316.797248 5205.96735,294.735917 C5242.91264,272.674587 5329.68457,215.038171 5338.81326,206.082263 C5344.7656,200.242587 5359.96352,191.080243 5373.28221,177.399017 C5462.43427,121.90299 5550.054,62.7699839 5636.1414,0 L5636.1414,904.471455 L2.84217094e-14,904.471455 L2.84217094e-14,84.3249506 C13.8932999,97.5168494 34.3998791,119.100835 41.661006,124.302819 C56.592328,134.99985 50.5709222,132.368303 68.7765255,148.660492 C73.2885938,152.69834 87.2857208,163.707053 87.6167688,162.380717 C88.7258769,157.937103 85.1809725,152.912278 86.8833661,148.660492 C91.8166758,136.339382 103.850983,163.365714 82.9832793,132.27702 C75.5134108,121.148414 25.9251111,69.181881 2.97539771e-14,40.5565997 L2.84217094e-14,2.64221202 C5.23867228,5.99912564 10.4732691,9.34447499 15.7037905,12.67826 L148.27509,177.011321 C202.666981,220.087875 254.427813,258.899474 303.557584,293.446118 C312.910463,305.662394 323.284099,315.231371 335.737775,325.951725 C360.849684,347.568519 394.597101,359.66655 424.445564,373.970316 C426.485929,374.948085 428.818942,376.07749 431.389765,377.31054 C513.231962,426.729362 586.106917,461.61226 650.014627,481.959237 C758.021649,538.627065 904.473804,591.535113 1089.37111,640.68339 C1283.46902,692.277314 1479.50568,731.261974 1677.4811,757.637371 C1722.31371,757.637371 1715.47283,752.494551 1656.95845,742.20891 C1598.77797,731.981962 1525.73819,719.974022 1437.83911,706.185092 C1436.37071,706.141663 1434.895,706.098507 1433.41196,706.055624 C1430.51951,705.057142 1427.00127,703.875886 1422.92502,702.531437 C1362.7538,687.182331 1318.84399,675.858854 1291.1956,668.561009 C1181.80412,639.686916 1095.89573,615.156383 1033.47043,594.96941 C992.946544,581.864874 959.178945,565.057578 905.426506,544.935776 C902.589782,543.873871 903.427691,537.350875 961.857739,551.125568 C1085.47377,580.267644 1310.20479,640.216427 1387.17037,660.071795 C1416.7857,665.433131 1431.2847,666.385712 1433.41196,663.288416 C1412.10094,658.891176 1281.77125,618.624357 1275.52418,615.059399 C1271.79158,612.929351 1291.46192,624.288313 1320.84063,619.544981 C1323.86002,619.057486 1310.78085,611.400316 1312.35805,611.522136 C1326.81194,612.638528 1338.15137,616.869538 1351.10388,620.984586 C1369.85139,626.940718 1382.56156,630.008526 1401.5787,634.216932 C1419.07756,638.089348 1555.96006,666.912101 1560.77466,667.615453 C1575.14876,669.715327 1628.86809,689.099283 1633.88137,691.794035 C1638.86174,694.471104 1648.14191,697.094291 1648.16334,702.386726 C1873.97617,739.840399 1929.52632,774.915249 2302.68918,796.482901 C2679.43423,818.257593 2832.88176,830.601658 3076.55669,812.489837 C3274.21822,812.058212 3467.14356,800.38521 3655.33268,777.470833 Z M5469.65706,210.486205 C5501.03316,197.133022 5522.36155,175.361445 5549.23313,153.279209 C5551.22021,151.64629 5554.20033,151.377362 5555.96205,149.503527 C5559.74714,145.477547 5573.39848,120.203519 5570.51706,116.519963 C5569.45911,115.167502 5566.82752,116.339478 5565.4313,117.338972 C5557.04424,123.342928 5549.17609,130.087162 5541.6749,137.166884 C5521.68902,156.029812 5497.40349,177.380312 5481.10086,199.063006 L5469.65706,210.486205 Z M5242.80547,309.014582 L5247.76218,306.68345 C5256.17036,302.359502 5264.27963,297.396797 5272.98672,293.711606 C5274.84451,292.925312 5277.06499,293.891734 5279.03301,293.44837 C5283.01792,292.550627 5287.05292,291.546724 5290.70631,289.719643 C5295.70374,287.220401 5299.90083,283.341525 5304.75959,280.582363 C5313.52854,275.602706 5323.21489,272.20443 5331.54862,266.526366 C5337.06408,262.768486 5341.40379,257.496384 5345.89228,252.55721 L5347.48119,248.994023 C5348.71015,247.641669 5348.95456,243.090017 5347.17861,243.520339 C5340.09867,245.235843 5334.57979,250.923065 5327.86467,253.7472 C5319.38674,257.312711 5310.05043,258.68527 5301.74187,262.629385 C5205.69613,308.222796 5302.18434,264.170068 5255.89808,292.145758 C5248.71869,296.485017 5240.27887,298.557039 5233.28148,303.184037 C5231.79046,304.169967 5230.012,307.321424 5231.53652,308.254725 C5234.74744,310.220439 5239.04915,308.761297 5242.80547,309.014582 Z M5157.84803,386.969123 L5164.42215,384.875445 C5189.14409,374.89228 5213.29478,385.668648 5237.96138,375.059722 C5247.07607,371.139558 5256.15994,367.068967 5264.81147,362.211354 C5274.61033,356.709546 5284.13453,350.669558 5293.20841,344.039918 L5305.68363,332.348976 C5306.22865,331.950772 5305.44702,330.501172 5304.77316,330.540245 C5301.37251,330.737427 5297.87797,331.41902 5294.84889,332.977215 C5291.05074,334.931019 5285.75888,338.542602 5278.9733,343.811961 C5286.18105,334.60237 5291.39737,327.562386 5294.62229,322.692008 C5297.71199,318.025833 5308.27638,308.477045 5302.70255,307.975207 C5292.81531,307.085011 5244.29185,343.313345 5242.53545,344.366928 C5215.50771,360.579586 5183.84954,369.7078 5157.84803,386.969123 Z M4042.73841,727.174486 L4107.1236,727.174486 C4129.07834,724.335 4177.414,716.592946 4181.43172,717.287413 C4183.39597,717.626935 4185.43267,717.524883 4187.41185,717.287413 C4198.87319,715.912238 4210.37817,714.688167 4221.70372,712.455426 C4229.26772,710.964247 4282.57162,700.372032 4295.04599,699.363354 C4326.18644,696.845335 4422.03801,674.309996 4508.62342,652.943578 C4540.04863,645.188874 4579.08431,634.796311 4625.73045,621.765888 C4603.72832,625.040615 4575.90151,628.92398 4542.25001,633.415982 C4526.92443,635.461733 4545.38754,632.294168 4481.42507,643.578786 C4459.26882,647.487715 4433.23989,653.685037 4384.26363,661.676032 C4370.94245,663.849522 4358.40699,669.631056 4345.13977,672.112688 C4331.51017,674.662104 4268.44631,686.109212 4250.57321,689.949685 C4239.8148,692.261393 4140.37501,708.892712 4118.00907,714.862269 C4101.72908,719.207465 4076.63886,723.311537 4042.73841,727.174486 Z M2438.1913,839.056343 C2577.41975,851.956443 2696.67197,858.406492 2795.94795,858.406492 C2895.22393,858.406492 3056.66139,853.674982 3280.26032,844.211961 C3746.88564,811.630065 4013.30204,785.750472 4079.50953,766.573182 C4090.4031,757.039811 3931.29947,772.345363 3602.19865,812.489837 C3380.89854,829.830041 3246.51755,835.266555 3199.05567,828.799377 C3166.91187,824.837986 3253.27207,820.554211 3208.74927,821.154408 C2872.83988,825.682694 2969.31289,828.799377 2842.53884,835.788461 C2694.6924,843.93927 2559.90989,845.028565 2438.1913,839.056343 Z" id="Path-4" fill="#FFFFFF"></path>
    </g>
</svg>
