<?xml version="1.0" encoding="UTF-8"?>
<svg width="109px" height="105px" viewBox="0 0 109 105" version="1.1" xmlns="http://www.w3.org/2000/svg" xmlns:xlink="http://www.w3.org/1999/xlink">
    <!-- Generator: Sketch 51.1 (57501) - http://www.bohemiancoding.com/sketch -->
    <title>noun_Watering Vegetables_1046441_000000</title>
    <desc>Created with Sketch.</desc>
    <defs></defs>
    <g id="Page-1" stroke="none" stroke-width="1" fill="none" fill-rule="evenodd">
        <g id="Desktop-HD" transform="translate(-817.000000, -1310.000000)" fill-rule="nonzero">
            <g id="ICONS" transform="translate(154.000000, 1288.000000)">
                <g id="ökologisch" transform="translate(601.000000, 2.000000)">
                    <g id="noun_Watering-Vegetables_1046441_000000" transform="translate(62.000000, 20.000000)">
                        <g id="Group" transform="translate(5.000000, 0.000000)">
                            <path d="M15.6876923,31.2131579 C18.1246154,30.1447368 20.7138462,29.6868421 23.3792308,29.6868421 C26.0446154,29.6868421 28.6338462,30.2210526 31.0707692,31.2131579 L32.2892308,28.3894737 C29.4715385,27.1684211 26.5015385,26.5578947 23.3792308,26.5578947 C20.2569231,26.5578947 17.2869231,27.1684211 14.4692308,28.3894737 C11.7276923,29.5342105 9.29076923,31.2131579 7.23461538,33.2736842 C5.17846154,35.3342105 3.50307692,37.7763158 2.36076923,40.5236842 C1.14230769,43.3473684 0.533076923,46.3236842 0.533076923,49.3763158 L3.57923077,49.3763158 C3.57923077,46.7052632 4.11230769,44.1105263 5.10230769,41.6684211 C6.09230769,39.3026316 7.53923077,37.1657895 9.36692308,35.4105263 C11.1946154,33.6552632 13.3269231,32.2052632 15.6876923,31.2131579 Z" id="Shape" fill="#F39D00"></path>
                            <path d="M17.6676923,36.0210526 C21.2469231,34.4947368 25.3592308,34.4947368 28.9384615,36.0210526 L30.1569231,33.1973684 C25.8161538,31.3657895 20.79,31.3657895 16.4492308,33.1973684 C14.3930769,34.1131579 12.4892308,35.3342105 10.89,36.9368421 C9.29076923,38.5394737 7.99615385,40.4473684 7.15846154,42.5078947 C6.24461538,44.6447368 5.78769231,47.0105263 5.78769231,49.3763158 L8.83384615,49.3763158 C8.83384615,47.3921053 9.21461538,45.4842105 9.97615385,43.7289474 C10.7376923,41.9736842 11.7276923,40.4473684 13.0984615,39.0736842 C14.3930769,37.7763158 15.9923077,36.7842105 17.6676923,36.0210526 Z" id="Shape" fill="#F39D00"></path>
                            <path d="M28.1769231,38.0052632 C25.1307692,36.7078947 21.6276923,36.7078947 18.5815385,38.0052632 C17.1346154,38.6157895 15.7638462,39.5315789 14.6976923,40.6763158 C13.5553846,41.8210526 12.6415385,43.1184211 12.0323077,44.5684211 C11.4230769,46.0947368 11.0423077,47.6973684 11.0423077,49.3763158 L14.0884615,49.3763158 C14.0884615,48.1552632 14.3169231,46.9342105 14.85,45.7894737 C15.3069231,44.6447368 15.9923077,43.6526316 16.83,42.8131579 C17.6676923,41.9736842 18.6576923,41.2868421 19.8,40.8289474 C22.0846154,39.8368421 24.75,39.8368421 27.0346154,40.8289474 L28.1769231,38.0052632 Z" id="Shape" fill="#F39D00"></path>
                            <path d="M85.5207692,21.6736842 L85.7492308,21.4447368 C88.1861538,19.4605263 89.7092308,16.6368421 90.0138462,13.5078947 C90.3184615,10.3789474 89.4046154,7.25 87.4246154,4.80789474 C83.3123077,-0.228947368 75.8492308,-0.992105263 70.8230769,3.05263158 L69.3761538,4.27368421 L67.8530769,2.67105263 L45.3115385,21.0631579 L61.9892308,44.7210526 L38.6861538,36.3263158 L38.2292308,33.8842105 C38.0769231,32.9684211 37.6961538,32.1289474 37.0869231,31.4421053 C36.5538462,30.6789474 35.7923077,30.1447368 34.9546154,29.7631579 L30.0046154,41.8973684 C30.69,42.2026316 31.3753846,42.2789474 32.1369231,42.2789474 C33.2792308,42.2789474 34.3453846,41.9736842 35.2592308,41.2868421 L37.3153846,39.9131579 L69.0715385,54.5657895 L71.3561538,57.7710526 L98.6192308,35.6394737 L85.5207692,21.6736842 Z M71.5084615,6.56315789 L72.8030769,5.49473684 C76.5346154,2.44210526 82.0938462,3.05263158 85.0638462,6.79210526 C86.5107692,8.62368421 87.1961538,10.9131579 86.9676923,13.2026316 C86.7392308,15.5684211 85.5969231,17.6289474 83.7692308,19.0789474 L83.3884615,19.3842105 L71.5084615,6.56315789 Z" id="Shape" fill="#3E5F46"></path>
                        </g>
                        <path d="M2,78.2962963 C4.00617284,78.5185185 5.93518519,79.1111111 7.70987654,80 C8.48148148,77.1111111 10.1018519,74.5185185 12.3395062,72.2962963 L14.5,70.2222222 L16.6604938,72.2962963 C18.8981481,74.4444444 20.441358,77.1111111 21.2901235,80 C23.0648148,79.1851852 24.9938272,78.5925926 27,78.2962963 C26.6141975,77.4814815 25.9969136,76.7407407 25.2253086,76.2222222 C25.2253086,76.0740741 25.2253086,75.9259259 25.2253086,75.7777778 C25.2253086,72.8888889 22.7561728,70.5925926 19.8240741,70.5925926 C19.5925926,70.5925926 19.4382716,70.5925926 19.2067901,70.5925926 C18.2808642,69.037037 16.5061728,68 14.5,68 C12.4938272,68 10.7191358,69.037037 9.79320988,70.5925926 C9.5617284,70.5925926 9.40740741,70.5925926 9.17592593,70.5925926 C6.16666667,70.5925926 3.77469136,72.8888889 3.77469136,75.7777778 C3.77469136,75.9259259 3.77469136,76.0740741 3.77469136,76.2222222 C3.00308642,76.7407407 2.38580247,77.4814815 2,78.2962963 Z" id="Shape" fill="#3E5F46"></path>
                        <path d="M11,95 C8.63194444,91.9892473 7.33333333,88.3010753 7.33333333,84.3870968 C7.33333333,83.9354839 7.33333333,83.4086022 7.40972222,82.9569892 C5.27083333,81.6774194 2.75,81 0,81 C0.0763888889,87.6989247 4.73611111,93.344086 11,95 Z" id="Shape" fill="#3E5F46"></path>
                        <path d="M29,81 C26.3263889,81 23.8055556,81.7526882 21.5902778,82.9569892 C21.5902778,83.4086022 21.6666667,83.9354839 21.6666667,84.3870968 C21.6666667,88.3010753 20.3680556,91.9139785 18,95 C24.3402778,93.344086 29,87.6989247 29,81 Z" id="Shape" fill="#3E5F46"></path>
                        <path d="M14.5,74 C8.5,79.7904412 8.5,89.2095588 14.5,95 C20.5,89.2095588 20.5,79.7904412 14.5,74 Z" id="Shape" fill="#F39D00"></path>
                        <path d="M42,78.2962963 C44.0061728,78.5185185 45.9351852,79.1111111 47.7098765,80 C48.4814815,77.1111111 50.1018519,74.5185185 52.3395062,72.2962963 L54.5,70.2222222 L56.6604938,72.2962963 C58.8981481,74.4444444 60.441358,77.1111111 61.2901235,80 C63.0648148,79.1851852 64.9938272,78.5925926 67,78.2962963 C66.6141975,77.4814815 65.9969136,76.7407407 65.2253086,76.2222222 C65.2253086,76.0740741 65.2253086,75.9259259 65.2253086,75.7777778 C65.2253086,72.8888889 62.7561728,70.5925926 59.8240741,70.5925926 C59.5925926,70.5925926 59.4382716,70.5925926 59.2067901,70.5925926 C58.2808642,69.037037 56.5061728,68 54.5,68 C52.4938272,68 50.7191358,69.037037 49.7932099,70.5925926 C49.5617284,70.5925926 49.4074074,70.5925926 49.1759259,70.5925926 C46.1666667,70.5925926 43.7746914,72.8888889 43.7746914,75.7777778 C43.7746914,75.9259259 43.7746914,76.0740741 43.7746914,76.2222222 C43.0030864,76.7407407 42.3858025,77.4814815 42,78.2962963 Z" id="Shape" fill="#3E5F46"></path>
                        <path d="M51,95 C48.6319444,91.9892473 47.3333333,88.3010753 47.3333333,84.3870968 C47.3333333,83.9354839 47.3333333,83.4086022 47.4097222,82.9569892 C45.2708333,81.6774194 42.75,81 40,81 C40.0763889,87.6989247 44.7361111,93.344086 51,95 Z" id="Shape" fill="#3E5F46"></path>
                        <path d="M69,81 C66.3263889,81 63.8055556,81.7526882 61.5902778,82.9569892 C61.5902778,83.4086022 61.6666667,83.9354839 61.6666667,84.3870968 C61.6666667,88.3010753 60.3680556,91.9139785 58,95 C64.3402778,93.344086 69,87.6989247 69,81 Z" id="Shape" fill="#3E5F46"></path>
                        <path d="M54.5,74 C48.5,79.7904412 48.5,89.2095588 54.5,95 C60.5,89.2095588 60.5,79.7904412 54.5,74 Z" id="Shape" fill="#F39D00"></path>
                        <path d="M82,78.2962963 C84.0061728,78.5185185 85.9351852,79.1111111 87.7098765,80 C88.4814815,77.1111111 90.1018519,74.5185185 92.3395062,72.2962963 L94.5,70.2222222 L96.6604938,72.2962963 C98.8981481,74.4444444 100.441358,77.1111111 101.290123,80 C103.064815,79.1851852 104.993827,78.5925926 107,78.2962963 C106.614198,77.4814815 105.996914,76.7407407 105.225309,76.2222222 C105.225309,76.0740741 105.225309,75.9259259 105.225309,75.7777778 C105.225309,72.8888889 102.756173,70.5925926 99.8240741,70.5925926 C99.5925926,70.5925926 99.4382716,70.5925926 99.2067901,70.5925926 C98.2808642,69.037037 96.5061728,68 94.5,68 C92.4938272,68 90.7191358,69.037037 89.7932099,70.5925926 C89.5617284,70.5925926 89.4074074,70.5925926 89.1759259,70.5925926 C86.1666667,70.5925926 83.7746914,72.8888889 83.7746914,75.7777778 C83.7746914,75.9259259 83.7746914,76.0740741 83.7746914,76.2222222 C83.0030864,76.7407407 82.3858025,77.4814815 82,78.2962963 Z" id="Shape" fill="#3E5F46"></path>
                        <path d="M91,95 C88.6319444,91.9892473 87.3333333,88.3010753 87.3333333,84.3870968 C87.3333333,83.9354839 87.3333333,83.4086022 87.4097222,82.9569892 C85.2708333,81.6774194 82.75,81 80,81 C80.0763889,87.6989247 84.7361111,93.344086 91,95 Z" id="Shape" fill="#3E5F46"></path>
                        <path d="M109,81 C106.326389,81 103.805556,81.7526882 101.590278,82.9569892 C101.590278,83.4086022 101.666667,83.9354839 101.666667,84.3870968 C101.666667,88.3010753 100.368056,91.9139785 98,95 C104.340278,93.344086 109,87.6989247 109,81 Z" id="Shape" fill="#3E5F46"></path>
                        <path d="M94.5,74 C88.5,79.7904412 88.5,89.2095588 94.5,95 C100.5,89.2095588 100.5,79.7904412 94.5,74 Z" id="Shape" fill="#F39D00"></path>
                        <path d="M94.4666667,99.0392157 C89.1680556,99.0392157 84.475,96.6862745 81.2201389,93 L67.7465278,93 C64.4916667,96.6862745 59.7986111,99.0392157 54.5,99.0392157 C49.2013889,99.0392157 44.5083333,96.6862745 41.2534722,93 L27.7798611,93 C24.525,96.6862745 19.8319444,99.0392157 14.5333333,99.0392157 C9.23472222,99.0392157 4.54166667,96.6862745 1.28680556,93 L0,93 L0,105 L109,105 L109,93 L107.6375,93 C104.458333,96.6862745 99.7652778,99.0392157 94.4666667,99.0392157 Z" id="Shape" fill="#3E5F46"></path>
                    </g>
                </g>
            </g>
        </g>
    </g>
</svg>