<?xml version="1.0" encoding="UTF-8"?>
<svg width="81px" height="114px" viewBox="0 0 81 114" version="1.1" xmlns="http://www.w3.org/2000/svg" xmlns:xlink="http://www.w3.org/1999/xlink">
    <!-- Generator: Sketch 51.1 (57501) - http://www.bohemiancoding.com/sketch -->
    <title>noun_Farmer_1046414_000000</title>
    <desc>Created with Sketch.</desc>
    <defs></defs>
    <g id="Page-1" stroke="none" stroke-width="1" fill="none" fill-rule="evenodd">
        <g id="Desktop-HD" transform="translate(-232.000000, -1309.000000)" fill-rule="nonzero">
            <g id="ICONS" transform="translate(154.000000, 1288.000000)">
                <g id="regional" transform="translate(0.000000, 3.000000)">
                    <g id="noun_Farmer_1046414_000000" transform="translate(78.000000, 18.000000)">
                        <path d="M25.5407166,29 C31.8925081,29 37.1856678,24.2030075 38,18 L13,18 C13.8143322,24.1203008 19.1074919,29 25.5407166,29 Z" id="Shape" fill="#3E5F46"></path>
                        <path d="M51,10.7630058 L37.5494505,10.7630058 C36.7488226,4.69364162 31.544741,0 25.299843,0 C19.0549451,0 13.8508634,4.69364162 13.0502355,10.7630058 L0,10.7630058 L0,14 L51,14 L51,10.7630058 Z" id="Shape" fill="#F39D00"></path>
                        <rect id="Rectangle-path" fill="#F39D00" x="68" y="74" width="3" height="40"></rect>
                        <path d="M77.7407407,11 L77.7407407,25.2857143 C77.7407407,27.6131621 75.7851852,29.5393258 73.4222222,29.5393258 L71.6296296,29.5393258 L71.6296296,11 L68.3703704,11 L68.3703704,29.5393258 L66.5777778,29.5393258 C64.2148148,29.5393258 62.2592593,27.6131621 62.2592593,25.2857143 L62.2592593,11 L59,11 L59,25.2857143 C59,29.3788122 62.4222222,32.7495987 66.5777778,32.7495987 L68.3703704,32.7495987 L68.3703704,61 L71.6296296,61 L71.6296296,32.7495987 L73.4222222,32.7495987 C77.6592593,32.7495987 81,29.3788122 81,25.2857143 L81,11 L77.7407407,11 Z" id="Shape" fill="#F39D00"></path>
                        <path d="M72.8350785,64.0340909 L57.8219895,64.0340909 C56.6858639,64.0340909 55.7120419,63.3181818 55.4685864,62.2840909 L50.0314136,41.9204545 C49.2198953,39.0568182 47.434555,36.5909091 45,35 L45,49.3181818 L49.4633508,64.5113636 C50.4371728,67.6931818 53.4397906,70 56.9293194,70 L72.9162304,70 C74.6204188,70 76,68.6477273 76,67.0568182 C76,65.4659091 74.539267,64.0340909 72.8350785,64.0340909 Z" id="Shape" fill="#3E5F46"></path>
                        <path d="M32.6039604,33 L32.6039604,39.0387674 L17.4752475,39.0387674 L17.4752475,33 L12.009901,33 C10.980198,33 9.95049505,33.1610338 9,33.4025845 L9,114 L23.6534653,114 L23.6534653,89.8449304 L26.8217822,89.8449304 L26.8217822,114 L41,114 L41,33.5636183 C39.8118812,33.1610338 38.6237624,33 37.3564356,33 L32.6039604,33 Z" id="Shape" fill="#3E5F46"></path>
                        <path d="M0,45.5235457 L0,90.0277008 C0,91.634349 1.34210526,93 3,93 C4.65789474,93 6,91.634349 6,90.0277008 L6,35 C2.36842105,37.1689751 0,41.1052632 0,45.5235457 Z" id="Shape" fill="#3E5F46"></path>
                    </g>
                </g>
            </g>
        </g>
    </g>
</svg>