<?xml version="1.0" encoding="UTF-8"?>
<svg width="633px" height="164px" viewBox="0 0 633 164" version="1.1" xmlns="http://www.w3.org/2000/svg" xmlns:xlink="http://www.w3.org/1999/xlink">
    <!-- Generator: Sketch 52.2 (67145) - http://www.bohemiancoding.com/sketch -->
    <title>logo</title>
    <desc>Created with Sketch.</desc>
    <g id="Page-1" stroke="none" stroke-width="1" fill="none" fill-rule="evenodd">
        <g id="Desktop-HD" transform="translate(-598.000000, -567.000000)">
            <g id="Header-#11" transform="translate(0.000000, 89.000000)">
                <g id="logo" transform="translate(598.000000, 478.000000)">
                    <rect id="Rectangle-6" fill="#FFFFFF" x="68" y="24" width="565" height="127" rx="6"></rect>
                    <g id="Ebene_1_1_" fill-rule="nonzero">
                        <path d="M103.6,155.333333 C101.658667,153.333333 99.7173333,151.333333 97.776,149.333333 C92.4494667,142.786574 86.3501333,136.916204 81.76,129.555556 C84.5581333,129.406481 86.1854,125.7875 87.36,123.888889 C91.1134,117.822222 94.9242,108.497222 93.184,98 C90.1735333,79.8439815 82.9738,65.9050926 75.04,52.4444444 C72.8378,48.4449074 70.6346667,44.4439815 68.432,40.4444444 C67.2373333,38.1486111 66.0426667,35.8518519 64.848,33.5555556 C64.7733333,33.5185185 64.6986667,33.4814815 64.624,33.4444444 C63.2053333,39.1847222 61.7866667,44.9263889 60.368,50.6666667 C60.2933333,48.962963 60.2186667,47.2592593 60.144,45.5555556 C59.5298667,41.6814815 59.1742667,37.9856481 58.128,34.5555556 C54.9985333,24.2972222 49.6920667,15.2111111 42,9.44444444 C39.7768,7.77731481 37.24,6.81064815 34.832,5.22222222 C32.6909333,3.80972222 30.8905333,1.26944444 27.664,1 C25.0805333,3.43333333 25.3689333,8.23935185 24.64,12.5555556 C24.6773333,13.962963 24.7146667,15.3703704 24.752,16.7777778 C24.3203333,19.9944444 24.7790667,23.9347222 25.312,26.7777778 C27.8698,40.4231481 30.9484,47.637037 36.96,57.4444444 C33.8832667,56.2236111 30.9339333,54.9222222 27.104,54.2222222 C21.6164667,53.2194444 15.9142667,55.1967593 10.192,54.3333333 C8.21333333,54.037037 6.23466667,53.7407407 4.256,53.4444444 C2.83733333,52.8518519 1.41866667,52.2592593 0,51.6666667 C7.9674,70.5865741 20.4792,85.4759259 37.296,95.6666667 C43.2572,99.2791667 50.8008667,103.301852 59.36,104 C62.0592,110.501389 65.7673333,116.678704 70.896,120.777778 C72.7626667,122.259259 74.6293333,123.740741 76.496,125.222222 C79.6856667,129.391667 82.2005333,133.976389 85.344,138.111111 C88.4422,141.777315 91.5418,145.444907 94.64,149.111111 C84.1978667,142.555093 80.3273333,132.808333 66.416,128.666667 C53.2368667,124.742593 35.7555333,128.86713 25.088,132.222222 C20.1572,133.773148 15.4975333,136.250463 9.184,136.111111 C10.64,136.62963 12.096,137.148148 13.552,137.666667 C15.5306667,139.222222 17.5093333,140.777778 19.488,142.333333 C22.6608667,144.333333 25.8351333,146.333333 29.008,148.333333 C37.1835333,153.066204 46.7385333,155.376852 57.792,157.333333 C67.5192,159.055556 79.6506667,157.758333 88.144,155.888889 C90.0316667,155.473611 97.7172,153.082407 99.232,153.777778 C99.9413333,154.518519 100.650667,155.259259 101.36,156 C103.206133,157.475926 109.235,163.836111 111.328,164 C111.514667,163.777778 111.701333,163.555556 111.888,163.333333 C111.925333,163.111111 111.962667,162.888889 112,162.666667 C109.200467,160.222685 106.399533,157.777778 103.6,155.333333 Z M55.888,86.8888889 C55.8506667,86.8888889 55.8133333,86.8888889 55.776,86.8888889 C55.5893333,85.7407407 55.4026667,84.5925926 55.216,83.4444444 C55.8142667,84.2314815 55.944,85.4509259 55.888,86.8888889 Z M55.888,79.3333333 C55.8506667,79.3333333 55.8133333,79.3333333 55.776,79.3333333 C54.88,77.0375 53.984,74.7407407 53.088,72.4444444 C54.1333333,73 55.1786667,73.5555556 56.224,74.1111111 C56.112,75.8518519 56,77.5925926 55.888,79.3333333 Z" id="Shape" fill="#5D8269"></path>
                        <g id="Group" transform="translate(17.000000, 18.000000)" fill="#E8ECCD">
                            <path d="M27.472081,32.624676 C29.5306106,37.1939896 31.91706,39.6961443 32.8482772,40.4880595 C32.6807989,39.9457091 32.1169081,37.9947349 30.2868434,31.7323772 C29.273529,27.8290346 28.2602145,23.9242977 27.2469,20.020955 C25.9338134,15.9047619 24.1595748,12.0004898 22.5180992,8.30953287 C21.6070544,6.26096347 19.3749479,1.19019651 17.6767079,0.167306031 C17.9609989,4.37691166 19.4762793,8.44477191 20.6040608,12.1018029 C22.8098962,19.2550652 24.6010234,26.2531047 27.472081,32.624676 Z" id="Shape"></path>
                            <path d="M32.9200537,40.5498698 C32.8984738,40.5322097 32.8717336,40.5080433 32.8478081,40.4880595 C32.973065,40.8923824 32.8778322,40.5150143 32.9200537,40.5498698 Z" id="Shape"></path>
                            <path d="M60.9114584,98.8778643 C61.6620617,100.959895 62.412665,103.041925 63.1632683,105.123956 C63.2383286,105.161135 63.3133889,105.198314 63.3884493,105.235493 C63.261785,97.3112292 61.386215,89.6086454 60.0107344,82.2587985 C59.8990822,80.9542762 57.7040366,60.3607628 55.5071146,51.6975636 C54.3418029,47.1012951 53.4429555,42.670009 52.1293997,38.4246184 C51.7705175,37.2641652 51.6992102,35.808138 51.0034947,34.9669605 C51.1489241,49.4152305 56.3360621,82.9865798 56.970791,85.4933818 C58.1206214,90.0348111 59.3825733,94.5632276 60.9114584,98.8778643 Z" id="Shape"></path>
                            <path d="M26.3461761,69.5435402 C29.9612693,72.153979 32.1647591,74.7848664 32.1647591,74.7848664 C32.1647591,74.7848664 32.2510785,74.9847041 32.3134724,75.0088705 C32.3500643,75.0232774 32.4148038,75.0251364 32.349126,74.7546583 C32.3181636,72.9723843 27.7605942,67.3866866 26.7965381,66.0858822 C21.7351261,59.2584019 15.2714934,52.3774767 7.76874423,48.0168309 C5.63374695,46.7759778 3.64370993,44.7650523 1.09822646,43.8671766 C-0.264587666,43.3861717 0.763738865,43.7640045 1.01003058,44.0191462 C3.93691435,47.0487796 16.9087469,62.7290726 26.3461761,69.5435402 Z" id="Shape"></path>
                            <path d="M49.4272278,130.108323 C41.5843615,128.398084 33.7386804,126.687845 25.8958141,124.977605 C21.3926634,123.639157 16.8881053,122.300709 12.3849546,120.96226 C12.7569723,122.632068 20.2484625,126.055335 22.4055087,126.985277 C33.7818401,131.890597 47.6994328,134.083236 64.1765827,133.789056 C62.2189155,132.100659 52.7936836,130.941136 49.4272278,130.108323 Z" id="Shape"></path>
                        </g>
                        <g id="Group" transform="translate(15.000000, 0.000000)" fill="#3E6147">
                            <path d="M75.4133643,145.788188 C67.9660518,139.557102 63.4228715,131.982393 51.6969806,128.45666 C38.6100818,124.521433 21.2510921,128.657693 10.6582158,132.022321 C8.9149024,132.576206 7.20449047,133.247089 5.44310446,133.875722 C9.35513305,134.772709 18.6819987,136.686466 33.4575295,138.373655 C49.5125097,140.206628 67.7913498,151.115787 74.5088061,155.44008 C75.8633263,155.075157 77.8508519,154.517558 79.7012108,154.095064 C79.2887842,152.377697 78.0630894,149.758236 75.4133643,145.788188 Z" id="Shape"></path>
                            <path d="M38.5734731,92.2429131 C44.058747,79.6781357 28.1645669,61.5577982 20.6208671,53.9380545 C21.1987278,54.9469323 21.8053193,55.9739171 22.4471292,57.0320085 C19.3919285,55.8077052 16.4632362,54.5026175 12.6601067,53.800628 C8.65215421,53.0610318 4.52881491,53.9357331 0.367013343,54.1065877 C4.25865231,58.5474145 11.5734321,67.0316454 18.5466857,75.8691924 C27.3216411,86.9909912 35.2768406,99.7948721 38.5734731,92.2429131 Z" id="Shape"></path>
                            <path d="M45.4688753,49.4549783 C45.5346782,49.4967634 45.5972373,49.5394771 45.6630402,49.5812622 C45.5981641,48.0904629 45.5337514,46.5996637 45.4688753,45.1093287 C44.85904,41.2242437 44.5059287,37.517906 43.4669844,34.0780643 C40.3594194,23.7905745 35.0900902,14.6786387 27.4518567,8.89558191 C25.2442158,7.22371393 22.7251697,6.25429979 20.3340221,4.66135921 C18.2135006,3.2485588 16.4289445,0.712203687 13.2416746,0.430386453 C16.1235635,8.01252362 29.4226998,41.0320323 45.4688753,49.4549783 Z" id="Shape"></path>
                            <path d="M60.1494091,88.0086903 C55.2827751,107.516757 65.3927878,127.009503 66.9405461,129.305826 C66.9516677,129.32254 66.9567652,129.329504 66.9660332,129.343897 C69.7241941,129.167006 71.3326578,125.561882 72.4944034,123.665303 C76.2215351,117.581393 80.0056651,108.229889 78.2776439,97.7028318 C75.2882461,79.4952099 68.1389003,65.5167036 60.2606252,52.0177974 C58.0738374,48.0068928 55.8861228,43.9945953 53.6988715,39.9836907 C52.5125658,37.6813321 51.32626,35.378045 50.1399543,33.0752221 C50.0658101,33.0380798 49.991666,33.0009375 49.9175219,32.9637952 C48.5537337,38.5374622 47.1894821,44.1129864 45.8252305,49.6871178 C59.855613,58.7191976 64.9748004,68.666371 60.1494091,88.0086903 Z" id="Shape"></path>
                        </g>
                        <g id="Group" transform="translate(25.000000, 52.000000)" fill="#9BB089">
                            <g transform="translate(42.650581, 0.000000)" id="Shape">
                                <path d="M7.92878995,35.4086205 C7.90957375,35.4858923 7.89363837,35.5603711 7.87395349,35.6381083 C6.35774875,41.6629782 6.28182135,47.6845896 6.94407708,53.2030036 C7.92082226,56.9134446 8.98661811,60.5922321 10.2356708,64.1262514 C10.9855712,66.2116579 11.7354715,68.2970645 12.4853718,70.382471 C12.5603619,70.4197104 12.6353519,70.4569498 12.7103419,70.4941892 C12.5837963,62.557076 10.7099828,54.8420028 9.33579045,47.4802384 C9.28189136,46.8429791 8.73212068,41.609912 7.92878995,35.4086205 Z"></path>
                                <path d="M1.4144995,3.39995746 C1.0981353,2.26881061 0.998773505,0.91329635 0.33745515,0.111718208 C0.344954153,0.843937963 0.365576412,1.6273619 0.397447176,2.45128368 C0.746150831,2.76456015 1.08501204,3.08109508 1.4144995,3.39995746 Z"></path>
                            </g>
                            <path d="M18.8037508,31.2810982 C13.8483157,24.5794022 7.54493472,17.8325535 0.240436794,13.4545962 C2.87774252,16.5915504 5.68752533,19.9998867 8.44715855,23.4668751 C10.819187,26.4469583 13.1316922,29.546673 15.3106213,32.3456796 C16.3525141,33.2235986 17.3728473,34.0340211 18.3538106,34.7443627 C21.9655181,37.3590342 24.1669443,39.9941875 24.1669443,39.9941875 C24.1669443,39.9941875 24.2531828,40.1943493 24.3155183,40.2185549 C24.3520759,40.2329851 24.4167548,40.2348471 24.3511385,39.9639304 C24.3202051,38.1787666 19.7673728,32.5840118 18.8037508,31.2810982 Z" id="Shape"></path>
                        </g>
                    </g>
                    <path d="M131.11056,95.2201114 C124.982097,97.4331676 118.51326,98.5396791 111.703857,98.5396791 C106.369824,98.5396791 102.624708,96.6671212 100.468397,92.9219491 C98.8227906,90.0279525 98,85.7153947 98,79.9841466 C98,76.6361897 98.2695349,71.6710739 98.8086127,65.0886502 C99.3476905,58.5062266 99.6172253,53.5411108 99.6172253,50.1931539 C99.6172253,49.5689585 99.5604811,48.5759354 99.4469911,47.2140546 C99.333501,45.8521739 99.2767568,44.8307786 99.2767568,44.1498382 C99.2767568,43.4688979 99.333501,42.7028514 99.4469911,41.8516759 C100.581892,40.4897952 101.972124,39.808865 103.61773,39.808865 C105.206591,39.808865 106.426591,40.8302603 107.277766,42.8730814 C107.958707,44.4619423 108.299172,46.1642677 108.299172,47.9801087 C108.299172,51.8387709 107.930335,57.5699331 107.192649,65.1737673 C106.454964,72.7776016 106.086127,78.4803917 106.086127,82.2823088 C106.086127,88.9782226 107.987057,92.3261292 111.788974,92.3261292 C113.491325,92.3261292 115.931324,91.7445014 119.109046,90.5812282 C122.286768,89.4179551 124.726768,88.8363272 126.429119,88.8363272 C128.01798,88.8363272 129.237979,89.5456295 130.089155,90.9642553 C130.770095,92.0991559 131.11056,93.5177604 131.11056,95.2201114 Z M164.561589,89.9428498 C164.561589,92.7801014 162.632287,94.9931244 158.773625,96.5819853 C155.766138,97.830376 152.616836,98.454562 149.325624,98.454562 C140.58689,98.454562 136.217588,93.4894462 136.217588,83.5590657 C136.217588,79.4734234 137.210611,74.933889 139.196687,69.9403262 C141.636723,63.8118628 144.587421,60.747677 148.048868,60.747677 C151.169844,60.747677 154.531937,62.1379094 158.135247,64.918416 C161.738556,67.6989225 163.540184,70.5928757 163.540184,73.6003624 C163.540184,77.3455345 161.866231,80.324604 158.518274,82.5376602 C155.567532,84.5237363 152.049393,85.5167595 147.963751,85.5167595 C147.16932,85.5167595 145.892576,85.0344339 144.13348,84.0697684 C144.36046,89.4605464 145.949297,92.155895 148.900039,92.155895 C151.39682,92.155895 153.851006,91.4465927 156.26267,90.0279669 C158.674334,88.6093411 160.220613,87.9000389 160.901553,87.9000389 C163.341589,87.9000389 164.561589,88.5809691 164.561589,89.9428498 Z M155.283823,73.8557138 C155.283823,72.437088 154.872428,71.0894137 154.049625,69.8126505 C153.226822,68.5358873 152.134496,67.8975152 150.772616,67.8975152 C148.90003,67.8975152 147.453053,68.7203059 146.431642,70.3659118 C145.580467,71.7845376 145.154886,73.4584909 145.154886,75.387822 C145.154886,76.4659776 145.523723,77.3455124 146.261408,78.0264527 C146.999094,78.7073931 147.935372,79.0478582 149.070273,79.0478582 C153.21266,79.0478582 155.283823,77.3171607 155.283823,73.8557138 Z M198.097735,78.1115699 C198.097735,83.2186227 197.218201,87.5595525 195.459105,91.1344895 C193.189303,95.7308371 189.75628,98.0289764 185.159933,98.0289764 C183.684562,98.0289764 181.358051,97.4899067 178.180329,96.4117511 C178.237074,96.8089663 178.265446,97.1778035 178.265446,97.5182737 C178.265446,99.3908597 177.215679,100.327139 175.116112,100.327139 C173.583997,100.327139 172.335625,99.7596969 171.370959,98.6247962 C170.916999,98.114091 170.548162,96.3550214 170.264436,93.3475347 C169.980711,90.8507533 169.838851,88.8930791 169.838851,87.4744533 L169.838851,87.1339848 L171.115608,39.0428109 C172.023528,37.6241851 173.101668,37.0283712 174.350058,37.2553514 C174.633783,37.1418613 174.917504,37.0851171 175.20123,37.0851171 C176.22264,37.0851171 177.173105,37.6951171 178.052653,38.9151352 C178.932201,40.1351534 179.371969,41.2842231 179.371969,42.3623787 C179.371969,44.802415 179.144992,48.0652054 178.691032,52.1508477 C178.123581,56.8606853 177.811488,60.0951036 177.754743,61.8541996 C179.400349,59.8681235 181.528256,58.8751003 184.138527,58.8751003 C187.259504,58.8751003 190.068341,59.9957979 192.565122,62.2372266 C195.061904,64.4786554 196.679113,67.18819 197.416798,70.3659118 C197.870759,72.2952429 198.097735,74.8771031 198.097735,78.1115699 Z M190.181843,77.51575 C190.181843,69.7984257 188.564634,65.9398214 185.330167,65.9398214 C182.606406,65.9398214 180.535243,67.8974957 179.116617,71.8129029 C178.038462,74.7636445 177.499392,77.9129465 177.499392,81.2609034 C177.499392,88.4107774 179.655671,91.9856607 183.968293,91.9856607 C188.11068,91.9856607 190.181843,87.1624054 190.181843,77.51575 Z M231.804116,89.9428498 C231.804116,92.7801014 229.874813,94.9931244 226.016151,96.5819853 C223.008665,97.830376 219.859363,98.454562 216.568151,98.454562 C207.829416,98.454562 203.460114,93.4894462 203.460114,83.5590657 C203.460114,79.4734234 204.453137,74.933889 206.439213,69.9403262 C208.87925,63.8118628 211.829947,60.747677 215.291394,60.747677 C218.412371,60.747677 221.774463,62.1379094 225.377773,64.918416 C228.981082,67.6989225 230.78271,70.5928757 230.78271,73.6003624 C230.78271,77.3455345 229.108757,80.324604 225.7608,82.5376602 C222.810058,84.5237363 219.291919,85.5167595 215.206277,85.5167595 C214.411846,85.5167595 213.135102,85.0344339 211.376006,84.0697684 C211.602986,89.4605464 213.191824,92.155895 216.142565,92.155895 C218.639347,92.155895 221.093532,91.4465927 223.505196,90.0279669 C225.91686,88.6093411 227.463139,87.9000389 228.144079,87.9000389 C230.584116,87.9000389 231.804116,88.5809691 231.804116,89.9428498 Z M222.526349,73.8557138 C222.526349,72.437088 222.114954,71.0894137 221.292151,69.8126505 C220.469348,68.5358873 219.377023,67.8975152 218.015142,67.8975152 C216.142556,67.8975152 214.695579,68.7203059 213.674169,70.3659118 C212.822993,71.7845376 212.397412,73.4584909 212.397412,75.387822 C212.397412,76.4659776 212.766249,77.3455124 213.503934,78.0264527 C214.24162,78.7073931 215.177899,79.0478582 216.312799,79.0478582 C220.455187,79.0478582 222.526349,77.3171607 222.526349,73.8557138 Z M267.042604,96.8373367 C266.191429,98.1424724 265.141661,98.7950305 263.893271,98.7950305 C262.928605,98.7950305 261.339768,98.2275887 259.126712,97.0926881 L259.126712,96.0712826 C259.126712,94.8228919 259.16927,92.978706 259.254387,90.5386697 C259.339505,88.0986333 259.382063,86.3111916 259.382063,85.176291 C259.382063,73.0328542 257.566249,66.9612269 253.934567,66.9612269 C252.913157,66.9612269 251.749901,67.7556454 250.444765,69.3445063 C246.415868,74.224579 244.40145,80.0976017 244.40145,86.9637505 C244.40145,87.9284161 244.585868,89.3612066 244.954711,91.2621652 C245.323554,93.1631238 245.507972,94.5959143 245.507972,95.5605799 C245.507972,96.3550103 245.139135,97.0075684 244.40145,97.5182737 C243.663764,98.0289789 242.869346,98.2843278 242.01817,98.2843278 C238.613468,98.2843278 236.911143,96.1280489 236.911143,91.8154265 L236.911143,74.025948 C236.911143,73.5719878 236.967887,72.9052436 237.081377,72.0256957 C237.194867,71.1461477 237.251611,70.4794035 237.251611,70.0254433 C237.251611,69.3445029 237.152309,68.3514798 236.953701,67.046344 C236.755094,65.7412083 236.655792,64.7765572 236.655792,64.1523619 C236.655792,63.2444414 237.180675,62.3790926 238.230458,61.5562897 C239.280241,60.7334867 240.230706,60.3220914 241.081882,60.3220914 C242.330273,60.3220914 243.607017,61.0313937 244.912152,62.4500194 L244.656801,65.8547043 C246.756367,62.5067475 249.338227,60.8327941 252.402459,60.8327941 C254.388535,60.8327941 256.48807,61.5137243 258.701126,62.8756051 C260.914182,64.2374858 262.531392,65.7695787 263.552802,67.4719296 C265.879348,71.784552 267.042604,77.4589701 267.042604,84.495354 L267.042604,96.8373367 Z M301.600156,88.8363272 C301.600156,91.5033437 300.465272,93.8298551 298.195471,95.8159312 C295.698689,97.9722424 292.350783,99.0503819 288.15165,99.0503819 C286.335809,99.1071269 284.378135,98.7382897 282.278569,97.9438593 C275.469165,95.3903328 272.064514,93.3191703 272.064514,91.7303094 C272.064514,89.233528 273.851956,87.985156 277.426893,87.985156 C277.937598,87.985156 278.476668,88.0135281 279.044118,88.0702731 C279.214353,89.7726241 280.576214,91.1344844 283.12974,92.155895 C285.342796,93.0638155 287.470703,93.4326527 289.513524,93.2624176 C291.15913,93.1489275 291.981921,92.5531136 291.981921,91.474958 C291.981921,91.3047229 291.939363,91.0493741 291.854245,90.7089039 C291.769128,90.3684337 291.726569,90.0988989 291.726569,89.9002913 C291.726569,89.7016836 290.64843,89.2619162 288.492119,88.5809759 C286.052082,87.8432905 284.690222,87.4177091 284.406497,87.304219 C277.937563,83.4455569 274.703145,78.7925341 274.703145,73.345011 C274.703145,70.0537992 275.639424,67.0179856 277.51201,64.237479 C279.611576,61.1732473 282.221809,59.6411544 285.342785,59.6411544 C287.669332,59.6411544 290.322122,60.5490613 293.301236,62.3649023 C296.28035,64.1807433 298.11035,66.1384176 298.791291,68.2379837 C299.245251,69.7133546 299.472228,70.9333544 299.472228,71.89802 C299.472228,72.9194305 299.330367,73.7705933 299.046642,74.4515336 L298.025236,77.0050473 C296.947081,77.7427327 295.868941,78.1115699 294.790786,78.1115699 C294.223335,78.1115699 293.27287,77.7569187 291.939362,77.0476058 C290.605854,76.338293 289.93911,75.728293 289.93911,75.2175877 C289.93911,74.9906076 290.279575,74.2529333 290.960515,73.0045426 C291.357731,72.2668571 291.556335,71.6426712 291.556335,71.1319659 C291.556335,67.727264 290.222847,66.0249386 287.55583,66.0249386 C285.96697,66.0249386 284.74697,67.0463338 283.895794,69.089155 C283.271599,70.6780158 282.959506,72.3803413 282.959506,74.1961823 C282.959506,76.4659835 284.576715,78.508774 287.811182,80.324615 C290.761923,81.6297508 293.740993,82.963239 296.74848,84.3251198 C299.982946,85.8004906 301.600156,87.3042114 301.600156,88.8363272 Z M356.585816,58.7048661 C356.585816,65.1737997 355.450933,72.493799 353.181131,80.6650835 C350.173645,91.3898945 346.400157,96.7522196 341.860554,96.7522196 C337.888402,96.7522196 334.994449,94.2271035 333.178608,89.1767957 C332.157197,86.3395441 331.391151,82.1404748 330.880445,76.5794617 C329.518565,82.9916503 328.440425,87.2758359 327.645995,89.4321471 C325.546429,95.2768853 322.992941,98.1992106 319.985454,98.1992106 C317.772398,98.1992106 315.757979,97.2629317 313.942138,95.3903456 C311.558847,92.9503093 309.771405,85.2898449 308.57976,72.4087227 C307.728584,63.6132428 307.303003,55.1299878 307.303003,46.9587033 C307.303003,42.5893358 309.175561,40.4046849 312.920733,40.4046849 C316.26869,40.4046849 317.942643,41.1707313 317.942643,42.7028472 C317.942643,43.3837875 317.729852,44.1072758 317.304265,44.8733338 C316.878677,45.6393917 316.467281,46.3912521 316.070066,47.1289375 C315.332381,48.6043083 314.963544,51.6968662 314.963544,56.4067038 C314.963544,78.1400509 316.637497,89.0065615 319.985454,89.0065615 C321.1771,89.0065615 322.624076,84.77912 324.326427,76.3241103 C326.369248,66.3369847 327.390643,58.6765204 327.390643,53.3424874 C327.390643,52.548057 327.929713,51.7394524 329.007869,50.9166494 C330.086024,50.0938465 331.050675,49.6824512 331.901851,49.6824512 C333.604202,49.6824512 335.150481,50.2782651 336.540734,51.4699107 C337.930987,52.6615564 338.71122,54.108533 338.881455,55.8108839 C337.746554,57.4564899 337.179113,60.4923035 337.179113,64.918416 C337.179113,80.8637699 338.682833,88.8363272 341.69032,88.8363272 C344.584317,88.8363272 346.825712,84.2967928 348.414573,75.2175877 C349.492728,68.9188892 350.031798,63.1309828 350.031798,57.8536949 C350.031798,55.6406386 349.904124,53.9950574 349.648771,52.9169018 C349.393418,51.8387462 348.755046,50.221537 347.733636,48.0652258 C346.825715,46.2493848 346.371762,44.8875245 346.371762,43.979604 C346.371762,42.6177232 346.683855,41.3693513 347.30805,40.2344506 C348.10248,38.8158248 349.123876,38.1065226 350.372266,38.1065226 C352.131362,38.1065226 353.691827,41.1139641 355.053708,47.1289375 C356.075119,51.8387751 356.585816,55.6973794 356.585816,58.7048661 Z M390.717782,67.046344 C390.717782,68.80544 390.504991,71.4582304 390.079404,75.0047949 C389.653816,78.5513594 389.441025,81.2325219 389.441025,83.0483629 C389.441025,84.6372238 389.511956,87.0062934 389.653818,90.1556426 C389.795681,93.3049919 389.866611,95.6456893 389.866611,97.1778052 C389.866611,98.4829409 388.760099,99.135499 386.547043,99.135499 C384.277242,99.135499 382.830265,98.0289875 382.20607,95.8159312 C380.049759,97.234557 377.950224,97.9438593 375.907403,97.9438593 C374.261797,97.9438593 372.389239,97.5040919 370.289673,96.6245439 C368.190107,95.7449959 366.714758,94.6810425 365.863583,93.4326518 C364.217977,91.0493605 363.395186,87.2191283 363.395186,81.9418404 C363.395186,80.1259993 363.45193,76.9483252 363.56542,72.4087227 C363.735655,68.3798255 363.7924,65.2305234 363.735655,62.9607222 C365.438005,61.7123315 366.85661,61.0881455 367.991511,61.0881455 C370.715272,61.0881455 372.077132,62.4216337 372.077132,65.0886502 C372.077132,65.9965707 371.949458,67.3584311 371.694105,69.1742721 C371.438753,70.9901131 371.311078,72.3519734 371.311078,73.2598939 L371.311078,85.2614081 C371.311078,86.6232889 371.679916,88.0418934 372.417601,89.5172642 C373.325521,91.2196152 374.403661,92.0707779 375.652052,92.0707779 C378.092088,92.0707779 379.907902,90.5103129 381.099547,87.3893362 C381.893978,85.233025 382.291187,82.6227927 382.291187,79.5585609 L382.291187,69.3445063 C382.291187,68.0393706 381.950722,66.4221614 381.269782,64.4928304 C382.688407,63.1876946 384.050268,62.5351366 385.355403,62.5351366 C386.717284,62.5351366 387.95147,62.9607179 389.057998,63.8118934 C390.164526,64.6630689 390.717782,65.7412083 390.717782,67.046344 Z M419.402252,68.1528666 C419.402252,68.5500818 419.345508,69.1742678 419.232018,70.0254433 C418.040372,71.7277942 416.792,72.5789569 415.486865,72.5789569 C414.408709,72.5789569 413.444058,71.954771 412.592882,70.7063803 C412.479392,68.1528538 411.571486,66.8761098 409.869135,66.8761098 C408.847724,66.8761098 407.599352,69.5714584 406.123981,74.9622364 C405.443041,77.3455277 405.102576,80.6650622 405.102576,84.9209396 C405.102576,88.9498369 405.30118,91.3898366 405.698396,92.2410121 C406.152356,93.3191677 406.379333,94.0568421 406.379333,94.4540573 C406.379333,95.4187228 405.939565,96.1989553 405.060017,96.7947781 C404.180469,97.390601 403.201632,97.6885079 402.123477,97.6885079 C399.059245,97.6885079 397.527152,96.2699034 397.527152,93.4326518 C397.527152,93.1489267 397.598082,92.7517174 397.739945,92.2410121 C397.881807,91.7303068 397.952738,91.3614696 397.952738,91.1344895 C397.952738,88.2404929 397.810877,83.9421212 397.527152,78.2392456 C397.243427,72.5363699 397.101566,68.2663703 397.101566,65.4291187 C397.101566,62.8755923 398.633659,61.5988482 401.697891,61.5988482 C403.513732,61.5988482 404.762104,62.1379179 405.443044,63.2160735 C407.031905,61.4569776 408.819347,60.5774428 410.805423,60.5774428 C412.167304,60.5774428 413.47242,60.9462799 414.720811,61.6839653 C415.571986,62.1379256 416.565009,63.1167627 417.69991,64.6205061 C418.83481,66.1242494 419.402252,67.3016911 419.402252,68.1528666 Z M450.555119,65.8547043 C450.555119,67.103095 450.328142,68.1244903 449.874182,68.9189207 C449.590457,69.429626 448.994643,70.1389282 448.086722,71.0468488 C444.738765,74.3948056 441.419231,77.7427123 438.128019,81.0906691 C433.531672,85.9707419 430.836323,89.5172531 430.041892,91.7303094 C430.552598,91.7870544 431.034923,91.8154265 431.488884,91.8154265 C432.794019,91.8154265 434.751694,91.5884498 437.361965,91.1344895 C439.972236,90.6805293 441.929911,90.4535525 443.235046,90.4535525 C446.866728,90.4535525 449.306728,91.9289012 450.555119,94.8796429 L449.108128,96.6671024 L446.809965,96.6671024 C444.767144,96.6103574 441.816447,96.9082644 437.957785,97.5608322 C434.099123,98.2134001 431.233542,98.5396791 429.360956,98.5396791 C427.488369,98.5396791 425.842788,98.0857257 424.424162,97.1778052 C422.721811,96.1563946 421.870649,94.7661622 421.870649,93.0070662 C421.870649,90.9075 423.175765,88.1270352 425.786036,84.6655883 C427.374897,82.6227671 430.070246,79.5869535 433.872163,75.5580562 C437.503845,71.8128841 439.773612,69.2877681 440.681533,67.9826324 L440.255947,67.8975152 C437.418696,67.8975152 434.595673,68.762864 431.786793,70.4935875 C428.977914,72.2243109 427.48838,73.0896597 427.318145,73.0896597 C426.239989,73.0896597 425.332082,72.6782644 424.594397,71.8554614 C423.856711,71.0326585 423.487874,70.0821934 423.487874,69.0040378 C423.487874,67.0747068 426.410199,65.2305209 432.254938,63.4714249 C437.191755,62.0527991 441.021988,61.3434969 443.745749,61.3434969 C448.285352,61.3434969 450.555119,62.8472176 450.555119,65.8547043 Z M480.856814,89.9428498 C480.856814,92.7801014 478.927512,94.9931244 475.06885,96.5819853 C472.061363,97.830376 468.912061,98.454562 465.620849,98.454562 C456.882115,98.454562 452.512813,93.4894462 452.512813,83.5590657 C452.512813,79.4734234 453.505836,74.933889 455.491912,69.9403262 C457.931948,63.8118628 460.882646,60.747677 464.344093,60.747677 C467.465069,60.747677 470.827162,62.1379094 474.430472,64.918416 C478.033781,67.6989225 479.835409,70.5928757 479.835409,73.6003624 C479.835409,77.3455345 478.161455,80.324604 474.813499,82.5376602 C471.862757,84.5237363 468.344618,85.5167595 464.258975,85.5167595 C463.464545,85.5167595 462.187801,85.0344339 460.428705,84.0697684 C460.655685,89.4605464 462.244522,92.155895 465.195264,92.155895 C467.692045,92.155895 470.146231,91.4465927 472.557895,90.0279669 C474.969559,88.6093411 476.515838,87.9000389 477.196778,87.9000389 C479.636814,87.9000389 480.856814,88.5809691 480.856814,89.9428498 Z M471.579048,73.8557138 C471.579048,72.437088 471.167653,71.0894137 470.34485,69.8126505 C469.522047,68.5358873 468.429721,67.8975152 467.067841,67.8975152 C465.195254,67.8975152 463.748278,68.7203059 462.726867,70.3659118 C461.875692,71.7845376 461.45011,73.4584909 461.45011,75.387822 C461.45011,76.4659776 461.818948,77.3455124 462.556633,78.0264527 C463.294318,78.7073931 464.230597,79.0478582 465.365498,79.0478582 C469.507885,79.0478582 471.579048,77.3171607 471.579048,73.8557138 Z M494.986256,95.1349942 C494.986256,96.1564048 494.574861,97.0217536 493.752058,97.7310665 C492.929255,98.4403794 491.97879,98.7950305 490.900635,98.7950305 C487.325698,98.7950305 485.538256,94.1136356 485.538256,84.7507054 C485.538256,80.494828 485.580814,74.1111077 485.665932,65.599353 C485.751049,57.0875982 485.793607,50.7038779 485.793607,46.4480005 C485.793607,45.7670601 485.708491,44.774037 485.538256,43.4689013 C485.368021,42.1637655 485.282905,41.1991145 485.282905,40.5749191 C487.155491,39.3265284 488.630839,38.7023424 489.708995,38.7023424 C490.957386,38.7023424 492.149013,39.1137377 493.283914,39.9365407 C494.418815,40.7593437 494.986256,41.794925 494.986256,43.0433157 C494.986256,43.667511 494.844396,44.4051853 494.560671,45.2563608 C494.163456,46.6182416 493.936479,47.3559159 493.879734,47.469406 C493.142048,50.987598 492.773211,55.9810858 492.773211,62.4500194 L492.773211,78.2818041 C492.943446,85.4316781 493.53926,90.425166 494.560671,93.2624176 C494.844396,94.056848 494.986256,94.681034 494.986256,95.1349942 Z M541.119737,89.9428498 C541.119737,92.7801014 539.190434,94.9931244 535.331772,96.5819853 C532.324286,97.830376 529.174984,98.454562 525.883772,98.454562 C517.145037,98.454562 512.775735,93.4894462 512.775735,83.5590657 C512.775735,79.4734234 513.768758,74.933889 515.754834,69.9403262 C518.194871,63.8118628 521.145568,60.747677 524.607015,60.747677 C527.727992,60.747677 531.090084,62.1379094 534.693394,64.918416 C538.296703,67.6989225 540.098331,70.5928757 540.098331,73.6003624 C540.098331,77.3455345 538.424378,80.324604 535.076421,82.5376602 C532.125679,84.5237363 528.60754,85.5167595 524.521898,85.5167595 C523.727467,85.5167595 522.450723,85.0344339 520.691627,84.0697684 C520.918607,89.4605464 522.507444,92.155895 525.458186,92.155895 C527.954968,92.155895 530.409153,91.4465927 532.820817,90.0279669 C535.232481,88.6093411 536.77876,87.9000389 537.4597,87.9000389 C539.899737,87.9000389 541.119737,88.5809691 541.119737,89.9428498 Z M531.84197,73.8557138 C531.84197,72.437088 531.430575,71.0894137 530.607772,69.8126505 C529.784969,68.5358873 528.692644,67.8975152 527.330763,67.8975152 C525.458177,67.8975152 524.0112,68.7203059 522.98979,70.3659118 C522.138614,71.7845376 521.713033,73.4584909 521.713033,75.387822 C521.713033,76.4659776 522.08187,77.3455124 522.819555,78.0264527 C523.557241,78.7073931 524.49352,79.0478582 525.62842,79.0478582 C529.770808,79.0478582 531.84197,77.3171607 531.84197,73.8557138 Z M558.313395,94.0284717 C558.313395,94.9931372 557.462232,95.9436022 555.759882,96.8798952 C554.057531,97.8161883 552.638926,98.2843278 551.504025,98.2843278 C550.255635,98.2843278 548.922146,97.8020022 547.503521,96.8373367 C546.084895,95.8726711 545.375593,94.7377875 545.375593,93.4326518 C545.375593,92.2977512 545.95722,91.290542 547.120494,90.410994 C548.283767,89.531446 549.489581,89.0916786 550.737971,89.0916786 C552.270087,89.0916786 553.858924,89.545632 555.50453,90.4535525 C557.377116,91.5317081 558.313395,92.7233359 558.313395,94.0284717 Z M598.286918,43.8093698 C598.286918,48.4624623 597.549243,54.7043222 596.073872,62.5351366 C594.995717,68.0394046 592.981298,74.7919621 590.030557,82.7930116 C586.11515,93.2340974 582.738871,98.454562 579.901619,98.454562 C577.064368,98.454562 574.851345,98.0289806 573.262484,97.1778052 C569.801037,95.3052191 566.793595,87.9852198 564.240069,75.2175877 C562.821443,66.5923429 561.374466,57.9672275 559.899096,49.3419827 C559.785606,48.7177873 559.530257,47.8382525 559.133042,46.7033519 C558.849316,46.4196267 558.579782,46.1075337 558.324429,45.7670636 C558.069076,45.4265934 557.941402,45.001012 557.941402,44.4903067 C557.941402,43.3554061 558.650704,42.3340108 560.06933,41.4260903 C561.317721,40.5749149 562.566093,40.1493335 563.814483,40.1493335 C565.233109,40.1493335 566.509853,40.6742172 567.644754,41.7240003 C568.779654,42.7737834 569.347096,44.0079693 569.347096,45.4265951 C569.347096,46.4480056 569.276166,48.0084706 569.134303,50.1080368 C568.992441,52.2076029 568.921511,53.7680679 568.921511,54.7894785 C568.921511,59.4425711 569.630813,65.0318728 571.049439,71.5575515 C573.65971,83.7009883 575.787617,89.7726156 577.433223,89.7726156 C578.511378,89.7726156 579.561146,88.8930808 580.582556,87.1339848 C583.249573,82.6511273 585.6612,75.8418256 587.817512,66.7058755 C589.917078,57.9671407 590.966845,50.7606297 590.966845,45.0861266 C590.966845,43.7809909 590.55545,42.8021537 589.732647,42.1495859 C588.909844,41.497018 588.498449,41.1139948 588.498449,41.0005047 C588.498449,40.3763094 589.207751,39.5535188 590.626377,38.5321082 C592.045002,37.5106976 593.09477,37 593.77571,37 C594.967356,37 596.017123,37.8086046 596.925044,39.425838 C597.832964,41.0430714 598.286918,42.504234 598.286918,43.8093698 Z M606,94.0284717 C606,94.9931372 605.148837,95.9436022 603.446486,96.8798952 C601.744135,97.8161883 600.325531,98.2843278 599.19063,98.2843278 C597.94224,98.2843278 596.608751,97.8020022 595.190126,96.8373367 C593.7715,95.8726711 593.062197,94.7377875 593.062197,93.4326518 C593.062197,92.2977512 593.643825,91.290542 594.807098,90.410994 C595.970372,89.531446 597.176185,89.0916786 598.424576,89.0916786 C599.956692,89.0916786 601.545529,89.545632 603.191135,90.4535525 C605.063721,91.5317081 606,92.7233359 606,94.0284717 Z" id="LebensWurzel-e.V." fill="#3E5F46"></path>
                    <path d="M98,112.104027 L110.134805,112.104027 L110.134805,115.667785 L102.379479,115.667785 L102.379479,120.741611 L109.67861,120.741611 L109.67861,124.305369 L102.379479,124.305369 L102.379479,133.667785 L98,133.667785 L98,112.104027 Z M119.654089,107 L123.06035,107 L123.06035,110.563758 L119.654089,110.563758 L119.654089,107 Z M114.423045,107 L117.829306,107 L117.829306,110.563758 L114.423045,110.563758 L114.423045,107 Z M116.187002,112.104027 L116.187002,127.144295 C116.187002,127.687922 116.222483,128.186239 116.293447,128.639262 C116.364411,129.092284 116.4962,129.484898 116.688817,129.817114 C116.881434,130.149331 117.145011,130.411073 117.479556,130.602349 C117.814101,130.793625 118.234811,130.889262 118.741697,130.889262 C119.26886,130.889262 119.694638,130.793625 120.019045,130.602349 C120.343453,130.411073 120.601961,130.149331 120.794578,129.817114 C120.987195,129.484898 121.118983,129.092284 121.189948,128.639262 C121.260912,128.186239 121.296393,127.687922 121.296393,127.144295 L121.296393,112.104027 L125.675872,112.104027 L125.675872,127.144295 C125.675872,128.51343 125.483258,129.645969 125.098024,130.541946 C124.71279,131.437924 124.195774,132.147648 123.546959,132.671141 C122.898144,133.194633 122.1581,133.546979 121.326806,133.728188 C120.495512,133.909397 119.633818,134 118.741697,134 C117.849577,134 116.987883,133.919464 116.156589,133.758389 C115.325294,133.597315 114.585251,133.270137 113.936436,132.776846 C113.287621,132.283555 112.770605,131.583897 112.385371,130.677852 C112.000137,129.771808 111.807523,128.593967 111.807523,127.144295 L111.807523,112.104027 L116.187002,112.104027 Z M128.443459,112.104027 L136.533329,112.104027 C138.358121,112.104027 139.777383,112.562076 140.791156,113.478188 C141.804929,114.3943 142.311808,115.788581 142.311808,117.661074 C142.311808,119.110746 142.017818,120.29362 141.42983,121.209732 C140.841841,122.125844 139.929459,122.714764 138.692656,122.97651 L138.692656,123.036913 C139.787531,123.197987 140.5884,123.550333 141.095286,124.09396 C141.602173,124.637587 141.916438,125.513417 142.038091,126.721477 C142.078642,127.124163 142.109054,127.562078 142.12933,128.035235 C142.149605,128.508392 142.16988,129.03691 142.190156,129.620805 C142.230707,130.768462 142.291532,131.644292 142.372634,132.248322 C142.494287,132.852352 142.757864,133.2651 143.163373,133.486577 L143.163373,133.667785 L138.418938,133.667785 C138.195908,133.36577 138.053982,133.018458 137.993156,132.625839 C137.932329,132.23322 137.891779,131.825505 137.871503,131.402685 L137.749851,127.265101 C137.7093,126.419459 137.496411,125.755036 137.111177,125.271812 C136.725943,124.788588 136.077138,124.54698 135.164742,124.54698 L132.822938,124.54698 L132.822938,133.667785 L128.443459,133.667785 L128.443459,112.104027 Z M132.822938,121.526846 L134.647721,121.526846 C135.702045,121.526846 136.513051,121.280204 137.080764,120.786913 C137.648477,120.293622 137.932329,119.463093 137.932329,118.295302 C137.932329,116.302003 136.918571,115.305369 134.891025,115.305369 L132.822938,115.305369 L132.822938,121.526846 Z M164.787049,112.104027 L164.787049,115.667785 L157.031722,115.667785 L157.031722,120.741611 L164.330853,120.741611 L164.330853,124.305369 L157.031722,124.305369 L157.031722,130.104027 L165.09118,130.104027 L165.09118,133.667785 L152.652244,133.667785 L152.652244,112.104027 L164.787049,112.104027 Z M167.49381,133.667785 L167.49381,112.104027 L171.873289,112.104027 L171.873289,133.667785 L167.49381,133.667785 Z M180.17605,112.104027 L185.46792,126.872483 L185.528747,126.872483 L185.528747,112.104027 L189.543269,112.104027 L189.543269,133.667785 L184.555529,133.667785 L179.202833,118.567114 L179.142007,118.567114 L179.142007,133.667785 L175.127485,133.667785 L175.127485,112.104027 L180.17605,112.104027 Z M204.719379,112.104027 L204.719379,115.667785 L196.964052,115.667785 L196.964052,120.741611 L204.263183,120.741611 L204.263183,124.305369 L196.964052,124.305369 L196.964052,130.104027 L205.023509,130.104027 L205.023509,133.667785 L192.584573,133.667785 L192.584573,112.104027 L204.719379,112.104027 Z M219.560945,112.104027 L224.852815,126.872483 L224.913641,126.872483 L224.913641,112.104027 L228.928163,112.104027 L228.928163,133.667785 L223.940424,133.667785 L218.587728,118.567114 L218.526902,118.567114 L218.526902,133.667785 L214.512379,133.667785 L214.512379,112.104027 L219.560945,112.104027 Z M241.032556,125.543624 L238.934055,115.848993 L238.873229,115.848993 L236.774729,125.543624 L241.032556,125.543624 Z M241.610404,112.104027 L247.358469,133.667785 L242.796512,133.667785 L241.792882,129.107383 L236.014403,129.107383 L235.010773,133.667785 L230.448816,133.667785 L236.196881,112.104027 L241.610404,112.104027 Z M258.155101,119.38255 C258.155101,117.812073 257.967555,116.669467 257.592459,115.954698 C257.217363,115.239929 256.533076,114.88255 255.539579,114.88255 C254.992141,114.88255 254.541019,115.028522 254.186198,115.32047 C253.831377,115.612418 253.552594,116.085567 253.349839,116.739933 C253.147085,117.394299 253.005159,118.249995 252.924057,119.307047 C252.842955,120.364099 252.802404,121.65771 252.802404,123.187919 C252.802404,124.8188 252.858161,126.137579 252.969676,127.144295 C253.081191,128.151012 253.25353,128.931205 253.486698,129.484899 C253.719866,130.038593 254.013856,130.411073 254.368676,130.602349 C254.723497,130.793625 255.134069,130.889262 255.600405,130.889262 C255.985639,130.889262 256.345523,130.823826 256.680068,130.692953 C257.014613,130.56208 257.303534,130.300338 257.54684,129.907718 C257.790145,129.515099 257.982759,128.961413 258.124688,128.246644 C258.266616,127.531876 258.337579,126.59061 258.337579,125.422819 L262.717057,125.422819 C262.717057,126.59061 262.625819,127.697981 262.44334,128.744966 C262.260861,129.791952 261.921252,130.70805 261.424503,131.493289 C260.927754,132.278527 260.228261,132.892615 259.326003,133.33557 C258.423745,133.778526 257.252854,134 255.813296,134 C254.170983,134 252.863235,133.738258 251.890013,133.214765 C250.916791,132.691273 250.171679,131.936247 249.654654,130.949664 C249.13763,129.963082 248.80309,128.785242 248.651024,127.416107 C248.498958,126.046973 248.422926,124.536921 248.422926,122.885906 C248.422926,121.255025 248.498958,119.750007 248.651024,118.370805 C248.80309,116.991604 249.13763,115.80873 249.654654,114.822148 C250.171679,113.835566 250.916791,113.065439 251.890013,112.511745 C252.863235,111.958051 254.170983,111.681208 255.813296,111.681208 C257.374507,111.681208 258.606223,111.932883 259.508481,112.436242 C260.410739,112.9396 261.084888,113.578855 261.530949,114.354027 C261.977009,115.129199 262.255792,115.964761 262.367307,116.860738 C262.478823,117.756716 262.534579,118.597312 262.534579,119.38255 L258.155101,119.38255 Z M265.210927,112.104027 L269.590406,112.104027 L269.590406,120.348993 L274.699798,120.348993 L274.699798,112.104027 L279.079276,112.104027 L279.079276,133.667785 L274.699798,133.667785 L274.699798,124.09396 L269.590406,124.09396 L269.590406,133.667785 L265.210927,133.667785 L265.210927,112.104027 Z M282.120581,112.104027 L286.50006,112.104027 L286.50006,120.348993 L291.609451,120.348993 L291.609451,112.104027 L295.98893,112.104027 L295.98893,133.667785 L291.609451,133.667785 L291.609451,124.09396 L286.50006,124.09396 L286.50006,133.667785 L282.120581,133.667785 L282.120581,112.104027 Z M308.093322,125.543624 L305.994822,115.848993 L305.933996,115.848993 L303.835496,125.543624 L308.093322,125.543624 Z M308.67117,112.104027 L314.419236,133.667785 L309.857279,133.667785 L308.853648,129.107383 L303.07517,129.107383 L302.071539,133.667785 L297.509582,133.667785 L303.257648,112.104027 L308.67117,112.104027 Z M315.939888,133.667785 L315.939888,112.104027 L320.319367,112.104027 L320.319367,130.104027 L328.074693,130.104027 L328.074693,133.667785 L315.939888,133.667785 Z M339.874955,112.104027 L339.874955,115.667785 L335.13052,115.667785 L335.13052,133.667785 L330.751042,133.667785 L330.751042,115.667785 L326.006606,115.667785 L326.006606,112.104027 L339.874955,112.104027 Z M341.973456,133.667785 L341.973456,112.104027 L346.352934,112.104027 L346.352934,133.667785 L341.973456,133.667785 Z M359.248066,118.506711 C359.248066,118.104025 359.202447,117.691277 359.111207,117.268456 C359.019967,116.845635 358.872972,116.458055 358.670218,116.105705 C358.467463,115.753354 358.208955,115.461411 357.894685,115.229866 C357.580415,114.998321 357.200256,114.88255 356.754196,114.88255 C355.699872,114.88255 354.939553,115.466437 354.473217,116.634228 C354.006882,117.802019 353.773717,119.734886 353.773717,122.432886 C353.773717,123.721483 353.814268,124.889257 353.89537,125.936242 C353.976471,126.983227 354.123466,127.874157 354.336359,128.60906 C354.549251,129.343963 354.853379,129.907716 355.24875,130.300336 C355.644122,130.692955 356.15607,130.889262 356.784609,130.889262 C357.04819,130.889262 357.337111,130.818793 357.651381,130.677852 C357.965651,130.536912 358.25964,130.325505 358.533359,130.043624 C358.807078,129.761744 359.035173,129.404365 359.217653,128.971477 C359.400132,128.538588 359.49137,128.030204 359.49137,127.446309 L359.49137,125.241611 L356.602131,125.241611 L356.602131,122.040268 L363.68837,122.040268 L363.68837,133.667785 L360.464588,133.667785 L360.464588,131.674497 L360.403761,131.674497 C359.876599,132.520138 359.243001,133.119126 358.502946,133.471477 C357.762892,133.823827 356.875853,134 355.841805,134 C354.503624,134 353.413834,133.768459 352.572402,133.305369 C351.73097,132.84228 351.072028,132.127522 350.595554,131.161074 C350.119081,130.194626 349.799747,129.001685 349.637543,127.582215 C349.475339,126.162745 349.394239,124.516788 349.394239,122.644295 C349.394239,120.832206 349.510821,119.241618 349.743989,117.872483 C349.977157,116.503349 350.377591,115.360743 350.945304,114.444631 C351.513017,113.528519 352.263198,112.838928 353.19587,112.375839 C354.128541,111.912749 355.294363,111.681208 356.69337,111.681208 C359.085875,111.681208 360.809263,112.270128 361.863588,113.447987 C362.917912,114.625845 363.445066,116.31207 363.445066,118.506711 L359.248066,118.506711 Z M378.651589,112.104027 L378.651589,115.667785 L370.896262,115.667785 L370.896262,120.741611 L378.195393,120.741611 L378.195393,124.305369 L370.896262,124.305369 L370.896262,130.104027 L378.95572,130.104027 L378.95572,133.667785 L366.516784,133.667785 L366.516784,112.104027 L378.651589,112.104027 Z M388.44459,133.667785 L388.44459,112.104027 L392.824069,112.104027 L392.824069,130.104027 L400.579395,130.104027 L400.579395,133.667785 L388.44459,133.667785 Z M411.588918,125.543624 L409.490418,115.848993 L409.429592,115.848993 L407.331092,125.543624 L411.588918,125.543624 Z M412.166766,112.104027 L417.914832,133.667785 L413.352875,133.667785 L412.349244,129.107383 L406.570765,129.107383 L405.567135,133.667785 L401.005178,133.667785 L406.753244,112.104027 L412.166766,112.104027 Z M424.48405,112.104027 L429.77592,126.872483 L429.836746,126.872483 L429.836746,112.104027 L433.851268,112.104027 L433.851268,133.667785 L428.863528,133.667785 L423.510832,118.567114 L423.450006,118.567114 L423.450006,133.667785 L419.435484,133.667785 L419.435484,112.104027 L424.48405,112.104027 Z M441.484942,130.466443 L443.431377,130.466443 C444.201845,130.466443 444.820237,130.335572 445.286573,130.073826 C445.752909,129.812079 446.12293,129.379198 446.396649,128.775168 C446.670368,128.171138 446.852844,127.375844 446.944084,126.389262 C447.035324,125.40268 447.080943,124.174504 447.080943,122.704698 C447.080943,121.476504 447.040392,120.399333 446.959291,119.473154 C446.878189,118.546975 446.710919,117.776849 446.457475,117.162752 C446.204032,116.548655 445.828941,116.085572 445.332193,115.77349 C444.835444,115.461408 444.171432,115.305369 443.340138,115.305369 L441.484942,115.305369 L441.484942,130.466443 Z M437.105464,112.104027 L444.282943,112.104027 C445.803602,112.104027 447.03025,112.350669 447.962921,112.84396 C448.895592,113.337251 449.62043,114.041942 450.137454,114.958054 C450.654478,115.874166 451.004225,116.976504 451.186704,118.265101 C451.369183,119.553698 451.460421,120.993281 451.460421,122.583893 C451.460421,124.47652 451.343839,126.122476 451.110671,127.521812 C450.877503,128.921148 450.477069,130.073821 449.909356,130.979866 C449.341643,131.885911 448.581324,132.5604 447.628378,133.003356 C446.675431,133.446311 445.469059,133.667785 444.009225,133.667785 L437.105464,133.667785 L437.105464,112.104027 Z M453.072313,112.104027 L457.269313,112.104027 L459.671944,128.050336 L459.73277,128.050336 L462.287466,112.104027 L466.484466,112.104027 L469.039162,128.050336 L469.099988,128.050336 L471.502619,112.104027 L475.699619,112.104027 L471.745923,133.667785 L466.849423,133.667785 L464.416379,118.02349 L464.355553,118.02349 L461.922509,133.667785 L457.026009,133.667785 L453.072313,112.104027 Z M477.676467,133.667785 L477.676467,112.104027 L482.055946,112.104027 L482.055946,133.667785 L477.676467,133.667785 Z M485.310142,112.104027 L493.400012,112.104027 C495.224804,112.104027 496.644065,112.562076 497.657838,113.478188 C498.671612,114.3943 499.178491,115.788581 499.178491,117.661074 C499.178491,119.110746 498.884501,120.29362 498.296512,121.209732 C497.708524,122.125844 496.796142,122.714764 495.559338,122.97651 L495.559338,123.036913 C496.654213,123.197987 497.455082,123.550333 497.961969,124.09396 C498.468855,124.637587 498.78312,125.513417 498.904773,126.721477 C498.945324,127.124163 498.975737,127.562078 498.996012,128.035235 C499.016288,128.508392 499.036563,129.03691 499.056838,129.620805 C499.097389,130.768462 499.158215,131.644292 499.239317,132.248322 C499.36097,132.852352 499.624547,133.2651 500.030056,133.486577 L500.030056,133.667785 L495.285621,133.667785 C495.062591,133.36577 494.920665,133.018458 494.859838,132.625839 C494.799012,132.23322 494.758461,131.825505 494.738186,131.402685 L494.616534,127.265101 C494.575983,126.419459 494.363094,125.755036 493.97786,125.271812 C493.592626,124.788588 492.943821,124.54698 492.031425,124.54698 L489.68962,124.54698 L489.68962,133.667785 L485.310142,133.667785 L485.310142,112.104027 Z M489.68962,121.526846 L491.514403,121.526846 C492.568727,121.526846 493.379734,121.280204 493.947447,120.786913 C494.51516,120.293622 494.799012,119.463093 494.799012,118.295302 C494.799012,116.302003 493.785254,115.305369 491.757707,115.305369 L489.68962,115.305369 L489.68962,121.526846 Z M514.385014,112.104027 L514.385014,115.667785 L509.640579,115.667785 L509.640579,133.667785 L505.2611,133.667785 L505.2611,115.667785 L500.516665,115.667785 L500.516665,112.104027 L514.385014,112.104027 Z M519.798536,126.932886 L519.798536,127.567114 C519.798536,128.070472 519.839086,128.528521 519.920188,128.941275 C520.00129,129.354029 520.153354,129.701341 520.376384,129.983221 C520.599414,130.265102 520.898473,130.486576 521.273569,130.647651 C521.648665,130.808726 522.120062,130.889262 522.687775,130.889262 C523.356866,130.889262 523.960052,130.672821 524.497352,130.239933 C525.034651,129.807045 525.303297,129.137588 525.303297,128.231544 C525.303297,127.74832 525.237403,127.330539 525.105612,126.978188 C524.973822,126.625837 524.755864,126.308726 524.451732,126.026846 C524.1476,125.744965 523.747166,125.488256 523.250417,125.256711 C522.753668,125.025167 522.140344,124.788592 521.410427,124.54698 C520.437205,124.224831 519.595786,123.872485 518.886145,123.489933 C518.176503,123.107381 517.583455,122.659399 517.106981,122.145973 C516.630508,121.632548 516.280761,121.038594 516.057731,120.364094 C515.834701,119.689594 515.723188,118.9094 515.723188,118.02349 C515.723188,115.889251 516.321305,114.298663 517.517557,113.251678 C518.71381,112.204693 520.356098,111.681208 522.444471,111.681208 C523.417693,111.681208 524.314869,111.786912 525.136025,111.998322 C525.957182,112.209733 526.666812,112.552011 527.264939,113.025168 C527.863065,113.498325 528.329394,114.102345 528.663939,114.837248 C528.998484,115.572151 529.165754,116.453015 529.165754,117.479866 L529.165754,118.083893 L524.968754,118.083893 C524.968754,117.057042 524.786277,116.266781 524.421319,115.713087 C524.056361,115.159393 523.448106,114.88255 522.596536,114.88255 C522.109925,114.88255 521.704422,114.953019 521.380014,115.09396 C521.055607,115.2349 520.797099,115.42114 520.604482,115.652685 C520.411865,115.884229 520.280076,116.151005 520.209112,116.45302 C520.138148,116.755035 520.102666,117.067112 520.102666,117.389262 C520.102666,118.053695 520.244592,118.612414 520.528449,119.065436 C520.812306,119.518459 521.42056,119.93624 522.353232,120.318792 L525.72908,121.768456 C526.560374,122.130874 527.239592,122.508387 527.766754,122.901007 C528.293916,123.293626 528.714626,123.716441 529.028895,124.169463 C529.343165,124.622485 529.561123,125.120803 529.682776,125.66443 C529.804429,126.208056 529.865254,126.812077 529.865254,127.47651 C529.865254,129.751689 529.201243,131.407713 527.8732,132.444631 C526.545157,133.481549 524.695048,134 522.322819,134 C519.849212,134 518.080204,133.466448 517.015742,132.399329 C515.95128,131.332209 515.419057,129.802023 515.419057,127.808725 L515.419057,126.932886 L519.798536,126.932886 Z M541.330973,119.38255 C541.330973,117.812073 541.143427,116.669467 540.768331,115.954698 C540.393235,115.239929 539.708948,114.88255 538.715451,114.88255 C538.168013,114.88255 537.716891,115.028522 537.36207,115.32047 C537.007249,115.612418 536.728466,116.085567 536.525711,116.739933 C536.322957,117.394299 536.18103,118.249995 536.099929,119.307047 C536.018827,120.364099 535.978276,121.65771 535.978276,123.187919 C535.978276,124.8188 536.034033,126.137579 536.145548,127.144295 C536.257063,128.151012 536.429402,128.931205 536.66257,129.484899 C536.895738,130.038593 537.189728,130.411073 537.544548,130.602349 C537.899369,130.793625 538.309941,130.889262 538.776277,130.889262 C539.16151,130.889262 539.521395,130.823826 539.85594,130.692953 C540.190485,130.56208 540.479406,130.300338 540.722712,129.907718 C540.966017,129.515099 541.158631,128.961413 541.300559,128.246644 C541.442488,127.531876 541.513451,126.59061 541.513451,125.422819 L545.892929,125.422819 C545.892929,126.59061 545.801691,127.697981 545.619212,128.744966 C545.436733,129.791952 545.097124,130.70805 544.600375,131.493289 C544.103626,132.278527 543.404133,132.892615 542.501875,133.33557 C541.599617,133.778526 540.428726,134 538.989168,134 C537.346855,134 536.039107,133.738258 535.065885,133.214765 C534.092663,132.691273 533.34755,131.936247 532.830526,130.949664 C532.313502,129.963082 531.978962,128.785242 531.826896,127.416107 C531.67483,126.046973 531.598798,124.536921 531.598798,122.885906 C531.598798,121.255025 531.67483,119.750007 531.826896,118.370805 C531.978962,116.991604 532.313502,115.80873 532.830526,114.822148 C533.34755,113.835566 534.092663,113.065439 535.065885,112.511745 C536.039107,111.958051 537.346855,111.681208 538.989168,111.681208 C540.550379,111.681208 541.782095,111.932883 542.684353,112.436242 C543.586611,112.9396 544.26076,113.578855 544.706821,114.354027 C545.152881,115.129199 545.431664,115.964761 545.543179,116.860738 C545.654694,117.756716 545.710451,118.597312 545.710451,119.38255 L541.330973,119.38255 Z M548.386799,112.104027 L552.766278,112.104027 L552.766278,120.348993 L557.87567,120.348993 L557.87567,112.104027 L562.255148,112.104027 L562.255148,133.667785 L557.87567,133.667785 L557.87567,124.09396 L552.766278,124.09396 L552.766278,133.667785 L548.386799,133.667785 L548.386799,112.104027 Z M574.359541,125.543624 L572.26104,115.848993 L572.200214,115.848993 L570.101714,125.543624 L574.359541,125.543624 Z M574.937388,112.104027 L580.685454,133.667785 L576.123497,133.667785 L575.119867,129.107383 L569.341388,129.107383 L568.337757,133.667785 L563.7758,133.667785 L569.523866,112.104027 L574.937388,112.104027 Z M582.206106,112.104027 L594.340912,112.104027 L594.340912,115.667785 L586.585585,115.667785 L586.585585,120.741611 L593.884716,120.741611 L593.884716,124.305369 L586.585585,124.305369 L586.585585,133.667785 L582.206106,133.667785 L582.206106,112.104027 Z M609,112.104027 L609,115.667785 L604.255565,115.667785 L604.255565,133.667785 L599.876086,133.667785 L599.876086,115.667785 L595.131651,115.667785 L595.131651,112.104027 L609,112.104027 Z" id="Fr-eine-nachhaltige" fill="#F39D00"></path>
                </g>
            </g>
        </g>
    </g>
</svg>