<svg xmlns:dc="http://purl.org/dc/elements/1.1/" xmlns:cc="http://creativecommons.org/ns#" xmlns:rdf="http://www.w3.org/1999/02/22-rdf-syntax-ns#" xmlns:svg="http://www.w3.org/2000/svg" xmlns="http://www.w3.org/2000/svg" xmlns:sodipodi="http://sodipodi.sourceforge.net/DTD/sodipodi-0.dtd" xmlns:inkscape="http://www.inkscape.org/namespaces/inkscape" version="1.1" x="0px" y="0px" viewBox="0 0 100 100"><g transform="translate(0,-952.36218)"><path d="m 50,962.36218 c -12.15341,0 -22,9.8466 -22,22 l 0,13.99999 -2,0 c -2.216,0 -4,1.78403 -4,4.00003 l 0,36 c 0,2.216 1.784,4 4,4 l 48,0 c 2.216,0 4,-1.784 4,-4 l 0,-36 c 0,-2.216 -1.784,-4.00003 -4,-4.00003 l -2,0 0,-13.99999 c 0,-12.1534 -9.84659,-22 -22,-22 z m 0,4 c 10.00659,0 18,7.9934 18,18 l 0,13.99999 -36,0 0,-13.99999 c 0,-10.0066 7.99341,-18 18,-18 z" style="color:#FFFFFF;enable-background:accumulate;" fill="#FFFFFF" stroke="none" marker="none" visibility="visible" display="inline" overflow="visible"></path></g></svg>
