<?xml version="1.0" encoding="UTF-8"?>
<svg width="108px" height="81px" viewBox="0 0 108 81" version="1.1" xmlns="http://www.w3.org/2000/svg" xmlns:xlink="http://www.w3.org/1999/xlink">
    <!-- Generator: Sketch 51.1 (57501) - http://www.bohemiancoding.com/sketch -->
    <title>noun_harvest_1046415_000000</title>
    <desc>Created with Sketch.</desc>
    <defs></defs>
    <g id="Page-1" stroke="none" stroke-width="1" fill="none" fill-rule="evenodd">
        <g id="Desktop-HD" transform="translate(-1117.000000, -1319.000000)" fill-rule="nonzero">
            <g id="ICONS" transform="translate(154.000000, 1288.000000)">
                <g id="nachhaltig" transform="translate(900.000000, 1.000000)">
                    <g id="Group-2" transform="translate(48.000000, 0.000000)">
                        <g id="noun_harvest_1046415_000000" transform="translate(15.000000, 30.000000)">
                            <path d="M107.755587,57.2879193 C106.781854,55.4435107 105.059096,54.631971 102.437508,54.5581946 C100.864555,54.5581946 99.2916023,54.8533 97.7186494,55.5172871 L81.6895101,62.3047105 C81.240095,65.4770932 78.4687017,67.8379361 75.1729908,67.8379361 L51.0543794,67.8379361 L75.1729908,64.8868825 C77.1204564,64.8868825 78.7683118,63.2638029 78.7683118,61.2718417 C78.7683118,60.3127493 78.3937992,59.4274332 77.7196765,58.6896698 C77.0455539,58.0256827 76.1467236,57.656801 75.1729908,57.656801 C75.1729908,57.656801 75.1729908,57.656801 75.1729908,57.656801 L64.2372229,57.656801 C61.0913171,57.656801 53.9006752,55.4435107 48.5076937,53.5991022 C44.9123727,52.3449044 41.2421493,51.82847 37.7966333,52.049799 C36.0738754,52.1235754 34.5009225,52.4186807 33.2275796,52.7875624 C30.3812839,53.6728785 27.7596956,55.2221817 25.51262,56.5501559 C23.7898621,57.5830246 21.8423966,58.099459 19.8200285,58.099459 L16,58.099459 L16,74.8466886 L28.1342083,74.8466886 L62.5893675,79.9372561 C64.4619305,80.1585852 66.4842985,79.7897035 68.2070565,78.9043874 L107.156367,59.7225386 C107.905392,59.2798805 108.279905,58.1732354 107.755587,57.2879193 Z" id="Shape" fill="#3E5F46"></path>
                            <path d="M60.1743119,28.985782 L60.1743119,35.8862559 C60.0990826,35.8862559 60.0990826,35.9620853 60.0238532,35.9620853 L59.9486239,36.0379147 C53.9302752,39.8293839 48.5137615,44.6066351 44,50.1421801 C45.5798165,50.4454976 47.159633,50.9004739 48.8146789,51.4312796 C56.187156,54.0094787 61.5284404,55.450237 63.6348624,55.450237 L74.6183486,55.450237 C74.6183486,55.450237 74.6183486,55.450237 74.6183486,55.450237 C76.3486239,55.450237 78.0788991,56.1327014 79.2825688,57.4218009 C80.0348624,58.1800948 80.5614679,59.014218 80.8623853,60 L80.9376147,60 L85,58.2559242 C79.6587156,49.2322275 72.2110092,41.5734597 63.4091743,36.0379147 L63.333945,35.9620853 C63.2587156,35.9620853 63.2587156,35.8862559 63.1834862,35.8862559 L63.1834862,28 L60.1743119,28.985782 Z" id="Shape" fill="#F39D00"></path>
                            <rect id="Rectangle-path" fill="#F39D00" x="0" y="56" width="12" height="25"></rect>
                            <path d="M73.3333333,5.78947368 L74.8148148,5.03759398 C74.8148148,5.03759398 66.2962963,14.2105263 63.4814815,18.4210526 L63.1851852,18.9473684 L63.3333333,19.0225564 L64.0740741,19.2481203 C65.6296296,19.7744361 67.1851852,20 68.8148148,20 C69.7037037,20 70.6666667,19.924812 71.5555556,19.7744361 C76.962963,18.7969925 81.8518519,16.0150376 85.4074074,11.8796992 C88.2222222,8.64661654 91.9259259,6.39097744 96,5.33834586 L95.7777778,5.11278195 C92.5185185,1.87969925 88.0740741,0 83.5555556,0 C82.8148148,0 82.0740741,0.0751879699 81.2592593,0.15037594 C81.2592593,0.15037594 81.1851852,0.15037594 81.1851852,0.15037594 L80.2222222,0.30075188 C74.4444444,1.12781955 69.1111111,4.21052632 65.4814815,8.87218045 C64.0740741,10.7518797 62.962963,12.7819549 62.2222222,15.037594 L62,15.2631579 C64.962963,11.2781955 68.8888889,8.04511278 73.3333333,5.78947368 Z" id="Shape" fill="#3E5F46"></path>
                            <path d="M37.7866379,18.8796992 C41.4827586,23.0150376 46.4612069,25.7969925 51.8922414,26.7744361 C52.7974138,26.924812 53.7780172,27 54.6831897,27 C56.3426724,27 57.9267241,26.7744361 59.5107759,26.2481203 L59.9633621,26.0977444 L58.5301724,24.3684211 C56.3426724,21.7368421 49.9310345,14.9699248 49.9310345,14.9699248 L51.3642241,15.4962406 C55.0603448,17 58.3038793,19.406015 60.8685345,22.4135338 L62,23.7669173 L61.6228448,22.6390977 L61.3965517,22.037594 C60.8685345,20.4586466 60.1142241,18.9548872 59.2090517,17.5263158 C58.8318966,16.924812 58.4547414,16.3984962 58.0775862,15.8721805 C54.3814655,11.2105263 49.0258621,8.12781955 43.0668103,7.30075188 L42.0862069,7.15037594 C42.0862069,7.15037594 42.0107759,7.15037594 42.0107759,7.15037594 C41.2564655,7.07518797 40.4267241,7 39.6724138,7 C34.9956897,7 30.5452586,8.87969925 27.2262931,12.112782 L27,12.3383459 C31.1487069,13.3909774 34.9202586,15.7218045 37.7866379,18.8796992 Z" id="Shape" fill="#3E5F46"></path>
                        </g>
                    </g>
                </g>
            </g>
        </g>
    </g>
</svg>