<?xml version="1.0" encoding="UTF-8"?>
<svg width="113px" height="64px" viewBox="0 0 113 64" version="1.1" xmlns="http://www.w3.org/2000/svg" xmlns:xlink="http://www.w3.org/1999/xlink">
    <!-- Generator: Sketch 51.1 (57501) - http://www.bohemiancoding.com/sketch -->
    <title>noun_Orange Crate_1046408_000000</title>
    <desc>Created with Sketch.</desc>
    <defs></defs>
    <g id="Page-1" stroke="none" stroke-width="1" fill="none" fill-rule="evenodd">
        <g id="Desktop-HD" transform="translate(-518.000000, -1336.000000)" fill-rule="nonzero">
            <g id="ICONS" transform="translate(154.000000, 1288.000000)">
                <g id="saisonal" transform="translate(299.000000, 0.000000)">
                    <g id="noun_Orange-Crate_1046408_000000" transform="translate(65.000000, 48.000000)">
                        <path d="M59.4640884,24.25 C64.519337,22.5 69.9889503,22.75 74.7955801,25.0833333 C76.4530387,25.8333333 77.9447514,26.8333333 79.2707182,28 C79.8508287,27.25 80.5138122,26.5 81.1767956,25.8333333 C79.519337,19.6666667 74.5469613,14.75 68.0828729,13.5 C68.0828729,13.1666667 68.1657459,12.9166667 68.1657459,12.5833333 L70.4033149,12.4166667 C74.6298343,12.1666667 78.5248619,9.83333333 80.9281768,6.16666667 L83,3 L79.2707182,3.25 C75.0441989,3.5 71.1491713,5.83333333 68.7458564,9.5 L68.1657459,10.4166667 C67.8342541,7 66.6740331,3.66666667 64.6850829,0.833333333 L64.1049724,0 L61.3701657,1.91666667 L61.9502762,2.66666667 C64.0220994,5.75 65.0994475,9.41666667 64.8508287,13.0833333 C60.8729282,13.0833333 57.1436464,14.4166667 54.0773481,16.9166667 C53.6629834,17.25 53.3314917,17.5833333 53,17.9166667 C55.5690608,19.5833333 57.8066298,21.75 59.4640884,24.25 Z" id="Shape" fill="#F39D00"></path>
                        <path d="M29,23.6222222 C29.163522,23.7074074 29.327044,23.7925926 29.572327,23.8777778 C34.3144654,26.3481481 37.9119497,30.6074074 39.6289308,35.8888889 C40.2012579,37.5925926 40.5283019,39.2962963 40.6100629,41 L44.8616352,41 C45.1069182,38.8703704 45.6792453,36.7407407 46.5786164,34.7814815 C48.3773585,30.7777778 51.3207547,27.5407407 55,25.4111111 C53.3647799,23.0259259 51.1572327,21.0666667 48.4591195,19.7037037 C46.1698113,18.5962963 43.7169811,18 41.2641509,18 C39.3836478,18 37.4213836,18.3407407 35.6226415,19.0222222 C33.0880503,19.9592593 30.7987421,21.5777778 29,23.6222222 Z" id="Shape" fill="#F39D00"></path>
                        <path d="M84.5378151,41 L104.87395,41 L104.87395,32.5167095 L108.823529,32.5167095 C107.226891,29.5475578 104.87395,27.0874036 101.764706,25.3907455 C103.529412,22.5064267 106.05042,20.1311054 109.159664,18.7737789 L110,18.3496144 L108.655462,15.2956298 L107.815126,15.7197943 C104.621849,17.1619537 101.848739,19.4524422 99.8319328,22.251928 L99.7478992,21.1491003 C99.5798319,16.7377892 97.394958,12.6658098 93.7815126,10.2056555 L90.6722689,8 L90.8403361,11.9023136 C91.0084034,16.3136247 93.1932773,20.3856041 96.8067227,22.8457584 L98.6554622,24.1182519 C97.0588235,23.6092545 95.3781513,23.3547558 93.697479,23.3547558 C91.7647059,23.3547558 89.7478992,23.6940874 87.8991597,24.3727506 C84.7058824,25.5604113 81.9327731,27.596401 80,30.311054 C82.4369748,33.2802057 84.0336134,37.0128535 84.5378151,41 Z" id="Shape" fill="#F39D00"></path>
                        <path d="M72.6064356,29.734104 C70.3193069,28.6069364 67.8688119,28 65.4183168,28 C63.539604,28 61.5792079,28.3468208 59.7821782,29.0404624 C55.6163366,30.6011561 52.2673267,33.8959538 50.3886139,38.1445087 C49.6534653,39.7052023 49.2450495,41.3526012 49,43 L82,43 C81.1831683,37.4508671 77.7524752,32.3352601 72.6064356,29.734104 Z" id="Shape" fill="#F39D00"></path>
                        <path d="M11.8104575,25.9642005 C12.5751634,26.0477327 13.254902,26.0477327 14.0196078,25.9642005 L16.9934641,25.797136 C16.9934641,25.8806683 16.9934641,25.9642005 16.9934641,26.0477327 C16.7385621,26.1312649 16.4836601,26.2147971 16.2287582,26.2983294 C12.5751634,27.4677804 9.68627451,29.8066826 7.5620915,32.646778 L10.9607843,32.646778 L10.9607843,41 L39,41 C38.9150327,39.6634845 38.6601307,38.326969 38.1503268,37.0739857 C36.7058824,32.7303103 33.5620915,29.3054893 29.4836601,27.2171838 C27.0196078,26.0477327 24.3856209,25.3794749 21.751634,25.3794749 C21.3267974,25.3794749 20.8169935,25.3794749 20.3921569,25.4630072 C20.3921569,24.7947494 20.3921569,24.1264916 20.3071895,23.4582339 L23.620915,22.372315 C26.7647059,21.3699284 29.4836601,19.5322196 31.5228758,17.1097852 C33.1372549,15.2720764 34.3267974,13.1002387 35.0915033,10.7613365 L36.620915,6 L31.7777778,7.58711217 C28.6339869,8.58949881 25.9150327,10.4272076 23.875817,12.849642 C22.2614379,14.6873508 21.0718954,16.8591885 20.3071895,19.1980907 L19.7973856,20.6181384 C19.2875817,18.2792363 18.3529412,16.1073986 17.0784314,14.1026253 L16.5686275,13.2673031 L13.6797386,15.1050119 L14.1895425,15.9403341 C15.8888889,18.6133652 16.8235294,21.6205251 16.8235294,24.7947494 L15.2941176,22.7899761 C12.9150327,20.0334129 9.60130719,18.3627685 6.03267974,17.9451074 C5.26797386,17.8615752 4.58823529,17.8615752 3.82352941,17.9451074 L0,18.1957041 L2.54901961,21.1193317 C4.92810458,23.875895 8.24183007,25.6300716 11.8104575,25.9642005 Z" id="Shape" fill="#F39D00"></path>
                        <path d="M68.0828729,13.5 C68.0828729,13.1666667 68.1657459,12.9166667 68.1657459,12.5833333 L70.4033149,12.4166667 C74.6298343,12.1666667 78.5248619,9.83333333 80.9281768,6.16666667 L83,3 L79.2707182,3.25 C75.0441989,3.5 71.1491713,5.83333333 68.7458564,9.5 L68.1657459,10.4166667 C67.8342541,7 66.6740331,3.66666667 64.6850829,0.833333333 L64.1049724,0 L61.3701657,1.91666667 L61.9502762,2.66666667 C64.0220994,5.75 65.0994475,9.41666667 64.8508287,13.0833333 C64.8508287,13.0833333 64.8508287,13.0833333 64.7679558,13.0833333 C62.7182679,13.0833333 74.5469613,14.75 68.0828729,13.5 Z" id="Shape" fill="#3E5F46"></path>
                        <path d="M101.764706,25.3907455 C103.529412,22.5064267 106.05042,20.1311054 109.159664,18.7737789 L110,18.3496144 L108.655462,15.2956298 L107.815126,15.7197943 C104.621849,17.1619537 101.848739,19.4524422 99.8319328,22.251928 L99.7478992,21.1491003 C99.5798319,16.7377892 97.394958,12.6658098 93.7815126,10.2056555 L90.6722689,8 L90.8403361,11.9023136 C91.0084034,16.3136247 93.1932773,20.3856041 96.8067227,22.8457584 L98.6554622,24.1182519 C97.0588235,23.6092545 104.87395,27.0874036 101.764706,25.3907455 Z" id="Shape" fill="#3E5F46"></path>
                        <path d="M11.8104575,25.9642005 C12.5751634,26.0477327 13.254902,26.0477327 14.0196078,25.9642005 L16.9934641,25.797136 C16.9934641,25.8806683 16.9934641,25.9642005 16.9934641,26.0477327 C16.7385621,26.1312649 16.4836601,26.2147971 16.2287582,26.2983294 C12.5751634,27.4677804 24.3856209,25.3794749 21.751634,25.3794749 C21.3267974,25.3794749 20.8169935,25.3794749 20.3921569,25.4630072 C20.3921569,24.7947494 20.3921569,24.1264916 20.3071895,23.4582339 L23.620915,22.372315 C26.7647059,21.3699284 29.4836601,19.5322196 31.5228758,17.1097852 C33.1372549,15.2720764 34.3267974,13.1002387 35.0915033,10.7613365 L36.620915,6 L31.7777778,7.58711217 C28.6339869,8.58949881 25.9150327,10.4272076 23.875817,12.849642 C22.2614379,14.6873508 21.0718954,16.8591885 20.3071895,19.1980907 L19.7973856,20.6181384 C19.2875817,18.2792363 18.3529412,16.1073986 17.0784314,14.1026253 L16.5686275,13.2673031 L13.6797386,15.1050119 L14.1895425,15.9403341 C15.8888889,18.6133652 16.8235294,21.6205251 16.8235294,24.7947494 L15.2941176,22.7899761 C12.9150327,20.0334129 9.60130719,18.3627685 6.03267974,17.9451074 C5.26797386,17.8615752 4.58823529,17.8615752 3.82352941,17.9451074 L0,18.1957041 L2.54901961,21.1193317 C4.92810458,23.875895 8.24183007,25.6300716 11.8104575,25.9642005 Z" id="Shape" fill="#3E5F46"></path>
                        <polygon id="Shape" fill="#3E5F46" points="108.018532 36 108.018532 44.358209 5.98146775 44.358209 5.98146775 36 1 36 1 64 113 64 113 36"></polygon>
                        <path d="M11.1289844,56.6447761 C9.80059303,56.6447761 8.63825056,55.558209 8.63825056,54.1373134 C8.63825056,52.8 9.71756857,51.6298507 11.1289844,51.6298507 C12.4573758,51.6298507 13.6197183,52.7164179 13.6197183,54.1373134 C13.6197183,55.558209 12.5404003,56.6447761 11.1289844,56.6447761 Z" id="Path" fill="#F39D00"></path>
                        <path d="M102.787991,56.6447761 C101.4596,56.6447761 100.297257,55.558209 100.297257,54.1373134 C100.297257,52.8 101.376575,51.6298507 102.787991,51.6298507 C104.199407,51.6298507 105.278725,52.7164179 105.278725,54.1373134 C105.278725,55.558209 104.199407,56.6447761 102.787991,56.6447761 Z" id="Path" fill="#F39D00"></path>
                    </g>
                </g>
            </g>
        </g>
    </g>
</svg>