<?xml version="1.0" encoding="UTF-8"?>
<svg width="34px" height="18px" viewBox="0 0 34 18" version="1.1" xmlns="http://www.w3.org/2000/svg" xmlns:xlink="http://www.w3.org/1999/xlink">
    <!-- Generator: Sketch 49.3 (51167) - http://www.bohemiancoding.com/sketch -->
    <title>ai</title>
    <desc>Created with Sketch.</desc>
    <defs></defs>
    <g id="Page-1" stroke="none" stroke-width="1" fill="none" fill-rule="evenodd">
        <g id="Desktop-HD" transform="translate(-1149.000000, -175.000000)" fill-rule="nonzero">
            <g id="ai" transform="translate(1149.000000, 175.000000)">
                <path d="M0.4,14.9 L0.4,3.5 C0.4,1.9 1.7,0.5 3.4,0.5 L6.9,0.5 L30.5,0.5 C32.1,0.5 33.5,1.8 33.5,3.5 L33.5,14.9 C33.5,16.5 32.2,17.9 30.5,17.9 L6.9,17.9 L3.3,17.9 C1.7,17.8 0.4,16.5 0.4,14.9 Z" id="Shape" fill="#F39D00"></path>
                <path d="M12.3,13.5 C12.5,13.5 12.7,13.4 12.8,13.3 C12.9,13.2 13,12.9 13.2,12.5 L13.6,11.5 L16.7,11.5 L17.1,12.4 C17.1,12.5 17.2,12.7 17.3,12.8 C17.4,13 17.4,13.1 17.5,13.1 C17.6,13.2 17.6,13.2 17.7,13.3 C17.8,13.3 17.9,13.4 18,13.4 C18.2,13.4 18.4,13.3 18.5,13.2 C18.6,13.1 18.7,12.9 18.7,12.7 C18.7,12.5 18.6,12.3 18.5,11.9 L16.5,7 C16.4,6.8 16.3,6.6 16.3,6.4 C16.2,6.3 16.2,6.1 16.1,6 C16,5.9 15.9,5.8 15.8,5.7 C15.7,5.6 15.5,5.6 15.3,5.6 C15.1,5.6 14.9,5.6 14.8,5.7 C14.7,5.8 14.5,5.9 14.5,6 C14.4,6.1 14.3,6.3 14.3,6.5 C14.2,6.7 14.2,6.9 14.1,7 L11.8,12 C11.7,12.2 11.7,12.3 11.6,12.5 C11.6,12.6 11.5,12.7 11.5,12.8 C11.5,13 11.6,13.1 11.7,13.3 C11.9,13.4 12.1,13.5 12.3,13.5 Z M15,7.3 L16.1,10.4 L13.8,10.4 L15,7.3 Z" id="Shape" fill="#FFFFFF"></path>
                <path d="M20.5,13.5 C20.7,13.5 20.9,13.4 21.1,13.3 C21.2,13.1 21.3,12.9 21.3,12.6 L21.3,6.6 C21.3,6.3 21.2,6.1 21.1,5.9 C21,5.7 20.8,5.7 20.5,5.7 C20.3,5.7 20.1,5.8 20,5.9 C19.9,6.1 19.8,6.3 19.8,6.6 L19.8,12.6 C19.8,12.9 19.9,13.1 20,13.3 C20.1,13.4 20.3,13.5 20.5,13.5 Z" id="Shape" fill="#FFFFFF"></path>
            </g>
        </g>
    </g>
</svg>
