<?xml version="1.0" encoding="UTF-8"?>
<svg width="34px" height="18px" viewBox="0 0 34 18" version="1.1" xmlns="http://www.w3.org/2000/svg" xmlns:xlink="http://www.w3.org/1999/xlink">
    <!-- Generator: Sketch 49.3 (51167) - http://www.bohemiancoding.com/sketch -->
    <title>avi</title>
    <desc>Created with Sketch.</desc>
    <defs></defs>
    <g id="Page-1" stroke="none" stroke-width="1" fill="none" fill-rule="evenodd">
        <g id="Desktop-HD" transform="translate(-583.000000, -175.000000)" fill-rule="nonzero">
            <g id="avi" transform="translate(583.000000, 175.000000)">
                <path d="M0.4,14.9 L0.4,3.5 C0.4,1.9 1.7,0.5 3.4,0.5 L6.9,0.5 L30.5,0.5 C32.1,0.5 33.5,1.8 33.5,3.5 L33.5,14.9 C33.5,16.5 32.2,17.9 30.5,17.9 L6.9,17.9 L3.3,17.9 C1.7,17.8 0.4,16.5 0.4,14.9 Z" id="Shape" fill="#F39D00"></path>
                <path d="M8.9,13.5 C9.1,13.5 9.3,13.4 9.4,13.3 C9.5,13.2 9.6,12.9 9.8,12.5 L10.2,11.5 L13.3,11.5 L13.7,12.4 C13.7,12.5 13.8,12.7 13.9,12.8 C14,13 14,13.1 14.1,13.1 C14.2,13.2 14.2,13.2 14.3,13.3 C14.4,13.3 14.5,13.4 14.6,13.4 C14.8,13.4 15,13.3 15.1,13.2 C15.2,13.1 15.3,12.9 15.3,12.7 C15.3,12.5 15.2,12.3 15.1,11.9 L13.1,7 C13,6.8 12.9,6.6 12.9,6.4 C12.8,6.3 12.8,6.1 12.7,6 C12.6,5.9 12.5,5.8 12.4,5.7 C12.3,5.6 12.1,5.6 11.9,5.6 C11.7,5.6 11.5,5.6 11.4,5.7 C11.3,5.8 11.1,5.9 11.1,6 C11,6.1 10.9,6.3 10.9,6.5 C10.8,6.7 10.8,6.9 10.7,7 L8.4,12 C8.3,12.2 8.3,12.3 8.2,12.5 C8.2,12.6 8.1,12.7 8.1,12.8 C8.1,13 8.2,13.1 8.3,13.3 C8.6,13.4 8.7,13.5 8.9,13.5 Z M11.7,7.3 L12.8,10.4 L10.5,10.4 L11.7,7.3 Z" id="Shape" fill="#FFFFFF"></path>
                <path d="M15.4,6.9 C15.4,7 15.5,7.1 15.5,7.2 L17.3,12.1 C17.4,12.3 17.4,12.5 17.5,12.6 C17.6,12.8 17.6,12.9 17.7,13.1 C17.8,13.2 17.9,13.3 18,13.4 C18.1,13.5 18.3,13.5 18.5,13.5 C18.7,13.5 18.9,13.5 19,13.4 C19.1,13.3 19.3,13.2 19.3,13.1 C19.4,13 19.5,12.8 19.5,12.7 C19.6,12.5 19.6,12.3 19.7,12.2 L21.5,7.3 C21.5,7.2 21.6,7.1 21.6,7 C21.6,6.9 21.7,6.8 21.7,6.7 C21.7,6.6 21.7,6.5 21.7,6.5 C21.7,6.4 21.7,6.3 21.6,6.2 C21.5,6.1 21.4,6 21.3,5.9 C21.2,5.8 21.1,5.8 20.9,5.8 C20.7,5.8 20.6,5.8 20.5,5.9 C20.4,6 20.3,6.1 20.3,6.2 C20.3,6.3 20.2,6.5 20.1,6.8 L18.4,11.9 L16.7,6.8 C16.6,6.4 16.5,6.2 16.4,6 C16.3,5.8 16.1,5.8 15.8,5.8 C15.6,5.8 15.4,5.9 15.3,6 C15.2,6.1 15.1,6.3 15.1,6.5 C15.1,6.6 15.1,6.7 15.1,6.8 C15.3,6.7 15.4,6.8 15.4,6.9 Z" id="Shape" fill="#FFFFFF"></path>
                <path d="M23.9,13.5 C24.1,13.5 24.3,13.4 24.5,13.3 C24.6,13.1 24.7,12.9 24.7,12.6 L24.7,6.6 C24.7,6.3 24.6,6.1 24.5,5.9 C24.4,5.7 24.2,5.7 23.9,5.7 C23.6,5.7 23.5,5.8 23.3,5.9 C23.2,6.1 23.1,6.3 23.1,6.6 L23.1,12.6 C23.1,12.9 23.2,13.1 23.3,13.3 C23.5,13.4 23.7,13.5 23.9,13.5 Z" id="Shape" fill="#FFFFFF"></path>
            </g>
        </g>
    </g>
</svg>