<?xml version="1.0" encoding="UTF-8"?>
<svg width="34px" height="18px" viewBox="0 0 34 18" version="1.1" xmlns="http://www.w3.org/2000/svg" xmlns:xlink="http://www.w3.org/1999/xlink">
    <!-- Generator: Sketch 49.3 (51167) - http://www.bohemiancoding.com/sketch -->
    <title>bmp</title>
    <desc>Created with Sketch.</desc>
    <defs></defs>
    <g id="Page-1" stroke="none" stroke-width="1" fill="none" fill-rule="evenodd">
        <g id="Desktop-HD" transform="translate(-1220.000000, -175.000000)" fill-rule="nonzero">
            <g id="bmp" transform="translate(1220.000000, 175.000000)">
                <path d="M0.4,14.9 L0.4,3.5 C0.4,1.9 1.7,0.5 3.4,0.5 L6.9,0.5 L30.5,0.5 C32.1,0.5 33.5,1.8 33.5,3.5 L33.5,14.9 C33.5,16.5 32.2,17.9 30.5,17.9 L6.9,17.9 L3.3,17.9 C1.7,17.8 0.4,16.5 0.4,14.9 Z" id="Shape" fill="#F39D00"></path>
                <path d="M10.1,13.3 C10.4,13.3 10.7,13.2 10.9,13.1 C11.3,12.9 11.6,12.7 11.8,12.4 C12,12.1 12.1,11.7 12.1,11.3 C12.1,10.4 11.6,9.8 10.6,9.5 C11.4,9.1 11.7,8.6 11.7,7.8 C11.7,7.6 11.7,7.4 11.6,7.2 C11.5,7 11.4,6.8 11.3,6.7 C11.2,6.5 11,6.4 10.8,6.3 C10.6,6.2 10.4,6.1 10.1,6 C9.8,6 9.5,5.9 9.2,5.9 L6.8,5.9 C6.5,5.9 6.2,6 6.1,6.1 C6,6.2 5.9,6.5 5.9,6.8 L5.9,12.5 C5.9,12.8 6,13.1 6.1,13.2 C6.2,13.3 6.5,13.4 6.8,13.4 L9.1,13.4 C9.5,13.4 9.8,13.3 10.1,13.3 Z M7.4,7 L8.6,7 C9.2,7 9.6,7.1 9.8,7.2 C10.1,7.3 10.2,7.6 10.2,8 C10.2,8.2 10.2,8.3 10.1,8.5 C10,8.7 9.8,8.8 9.6,8.9 C9.4,9 9.1,9 8.7,9 L7.3,9 L7.3,7 L7.4,7 Z M7.4,12.2 L7.4,10 L9,10 C9.5,10 9.9,10.1 10.2,10.3 C10.5,10.5 10.6,10.7 10.6,11.1 C10.6,11.8 10.1,12.2 9,12.2 L7.4,12.2 Z" id="Shape" fill="#FFFFFF"></path>
                <path d="M14.1,13.5 C14.3,13.5 14.5,13.4 14.6,13.3 C14.7,13.2 14.8,12.9 14.8,12.7 L14.8,7.5 L16,12.3 C16,12.5 16.1,12.6 16.1,12.8 C16.1,12.9 16.2,13.1 16.3,13.2 C16.4,13.3 16.5,13.4 16.6,13.5 C16.7,13.6 16.9,13.6 17.1,13.6 C17.3,13.6 17.5,13.5 17.7,13.4 C17.8,13.3 17.9,13.1 18,13 C18,12.9 18.1,12.6 18.2,12.3 L19.4,7.5 L19.4,12.7 C19.4,13 19.5,13.2 19.6,13.3 C19.7,13.4 19.9,13.5 20.1,13.5 C20.3,13.5 20.5,13.4 20.6,13.3 C20.7,13.2 20.8,12.9 20.8,12.7 L20.8,6.7 C20.8,6.4 20.7,6.1 20.5,6 C20.3,5.9 20.1,5.8 19.8,5.8 L19.3,5.8 C19,5.8 18.8,5.8 18.7,5.9 C18.6,6 18.5,6 18.4,6.2 C18.3,6.3 18.3,6.6 18.2,6.9 L17,11 L15.9,6.9 C15.8,6.6 15.8,6.4 15.7,6.2 C15.6,6.1 15.5,6 15.4,5.9 C15.3,5.8 15.1,5.8 14.8,5.8 L14.3,5.8 C14,5.8 13.8,5.9 13.6,6 C13.4,6.1 13.3,6.3 13.3,6.7 L13.3,12.7 C13.3,13 13.4,13.2 13.5,13.4 C13.7,13.4 13.9,13.5 14.1,13.5 Z" id="Shape" fill="#FFFFFF"></path>
                <path d="M23,13.5 C23.2,13.5 23.4,13.4 23.5,13.3 C23.6,13.1 23.7,12.9 23.7,12.6 L23.7,10.5 L25.1,10.5 C26,10.5 26.7,10.3 27.2,9.9 C27.7,9.5 27.9,8.9 27.9,8.2 C27.9,7.8 27.8,7.5 27.7,7.2 C27.6,6.9 27.4,6.7 27.2,6.5 C27,6.3 26.7,6.2 26.4,6.1 C26.1,6 25.6,6 25.1,6 L23.1,6 C22.8,6 22.5,6.1 22.4,6.2 C22.2,6.3 22.2,6.6 22.2,6.9 L22.2,12.7 C22.2,13 22.3,13.2 22.4,13.4 C22.6,13.4 22.8,13.5 23,13.5 Z M23.8,7 L24.8,7 C25.5,7 25.9,7.1 26.2,7.3 C26.4,7.5 26.5,7.8 26.5,8.1 C26.5,8.4 26.4,8.6 26.3,8.8 C26.2,9 26,9.1 25.7,9.2 C25.5,9.3 25.2,9.3 24.8,9.3 L23.8,9.3 L23.8,7 Z" id="Shape" fill="#FFFFFF"></path>
            </g>
        </g>
    </g>
</svg>
