<?xml version="1.0" encoding="UTF-8"?>
<svg width="34px" height="18px" viewBox="0 0 34 18" version="1.1" xmlns="http://www.w3.org/2000/svg" xmlns:xlink="http://www.w3.org/1999/xlink">
    <!-- Generator: Sketch 49.3 (51167) - http://www.bohemiancoding.com/sketch -->
    <title>doc</title>
    <desc>Created with Sketch.</desc>
    <defs></defs>
    <g id="Page-1" stroke="none" stroke-width="1" fill="none" fill-rule="evenodd">
        <g id="Desktop-HD" transform="translate(-653.000000, -175.000000)" fill-rule="nonzero">
            <g id="doc" transform="translate(653.000000, 175.000000)">
                <path d="M0.4,14.9 L0.4,3.5 C0.4,1.9 1.7,0.5 3.4,0.5 L6.9,0.5 L30.5,0.5 C32.1,0.5 33.5,1.8 33.5,3.5 L33.5,14.9 C33.5,16.5 32.2,17.9 30.5,17.9 L6.9,17.9 L3.3,17.9 C1.7,17.8 0.4,16.5 0.4,14.9 Z" id="Shape" fill="#F39D00"></path>
                <path d="M9.5,13.3 C9.8,13.3 10,13.2 10.3,13.1 C10.5,13 10.8,12.8 11,12.7 C11.3,12.5 11.5,12.2 11.6,11.9 C11.8,11.6 11.9,11.3 12,10.9 C12,10.4 12,10 12,9.6 C12,8.2 11.6,7.2 10.8,6.5 C10.5,6.2 10.2,6.1 9.8,6 C9.4,5.9 9,5.9 8.5,5.9 L6.5,5.9 C6.2,5.9 5.9,6 5.8,6.1 C5.7,6.2 5.6,6.5 5.6,6.8 L5.6,12.3 C5.6,12.5 5.6,12.7 5.7,12.9 C5.7,13.1 5.8,13.2 6,13.3 C6.1,13.4 6.3,13.4 6.6,13.4 L8.6,13.4 C8.9,13.4 9.2,13.3 9.5,13.3 Z M7.1,12.1 L7.1,7 L8.1,7 C8.6,7 9,7.1 9.3,7.2 C9.6,7.3 9.9,7.5 10.1,7.9 C10.3,8.3 10.4,8.8 10.4,9.6 C10.4,10.7 10.1,11.4 9.6,11.8 C9.5,11.9 9.4,12 9.2,12 C9,12.1 8.9,12.1 8.8,12.1 C8.7,12.1 8.5,12.1 8.2,12.1 L7.1,12.1 Z" id="Shape" fill="#FFFFFF"></path>
                <path d="M14,12.4 C14.3,12.7 14.7,13 15.2,13.2 C15.7,13.4 16.2,13.5 16.8,13.5 C17.4,13.5 17.9,13.4 18.4,13.2 C18.9,13 19.2,12.7 19.6,12.4 C19.9,12 20.2,11.6 20.3,11.2 C20.5,10.7 20.5,10.2 20.5,9.6 C20.5,8.8 20.4,8.1 20.1,7.5 C19.8,6.9 19.4,6.5 18.8,6.1 C18.2,5.8 17.6,5.6 16.8,5.6 C16.2,5.6 15.7,5.7 15.3,5.9 C14.8,6.1 14.5,6.3 14.1,6.7 C13.8,7 13.5,7.5 13.4,7.9 C13.2,8.4 13.2,8.9 13.2,9.5 C13.2,10.1 13.3,10.6 13.4,11.1 C13.4,11.6 13.6,12.1 14,12.4 Z M14.7,8.4 C14.8,8.1 15,7.8 15.1,7.6 C15.3,7.4 15.5,7.2 15.8,7.1 C16.1,7 16.3,6.9 16.6,6.9 C17,6.9 17.4,7 17.7,7.2 C18,7.4 18.3,7.7 18.5,8.1 C18.7,8.5 18.8,9 18.8,9.5 C18.8,10.1 18.7,10.6 18.5,11 C18.3,11.4 18,11.7 17.7,11.9 C17.4,12.1 17,12.2 16.6,12.2 C16.3,12.2 16,12.1 15.8,12 C15.5,11.9 15.3,11.7 15.1,11.5 C14.9,11.3 14.8,11 14.6,10.6 C14.5,10.3 14.4,9.9 14.4,9.4 C14.6,9.1 14.6,8.8 14.7,8.4 Z" id="Shape" fill="#FFFFFF"></path>
                <path d="M21.9,11.6 C22,11.9 22.2,12.2 22.4,12.4 C22.6,12.7 22.9,12.9 23.1,13 C23.4,13.2 23.7,13.3 24,13.4 C24.3,13.5 24.7,13.5 25.1,13.5 C25.6,13.5 26.1,13.4 26.5,13.2 C26.9,13 27.2,12.8 27.5,12.5 C27.8,12.2 27.9,12 28.1,11.7 C28.2,11.4 28.3,11.2 28.3,10.9 C28.3,10.7 28.2,10.6 28.1,10.4 C28,10.3 27.8,10.2 27.6,10.2 C27.4,10.2 27.2,10.3 27.1,10.4 C27,10.5 26.9,10.7 26.9,10.9 C26.7,11.3 26.5,11.6 26.2,11.9 C25.9,12.1 25.5,12.2 25.1,12.2 C24.7,12.2 24.3,12.1 24,11.9 C23.7,11.7 23.5,11.4 23.3,11 C23.1,10.6 23.1,10.1 23.1,9.5 C23.1,8.6 23.3,7.9 23.7,7.5 C24.1,7 24.6,6.8 25.2,6.8 C25.6,6.8 25.9,6.9 26.2,7.1 C26.5,7.3 26.7,7.6 26.9,7.9 C27,8.1 27.1,8.3 27.2,8.4 C27.3,8.5 27.4,8.5 27.6,8.5 C27.8,8.5 27.9,8.4 28,8.3 C28.1,8.2 28.2,8 28.2,7.8 C28.2,7.5 28.1,7.1 27.8,6.8 C27.5,6.4 27.2,6.1 26.7,5.9 C26.2,5.7 25.7,5.5 25.1,5.5 C24.6,5.5 24.1,5.6 23.7,5.8 C23.3,6 22.9,6.2 22.5,6.6 C22.2,6.9 21.9,7.4 21.7,7.8 C21.5,8.3 21.4,8.8 21.4,9.4 C21.4,9.8 21.4,10.1 21.5,10.5 C21.6,11 21.7,11.3 21.9,11.6 Z" id="Shape" fill="#FFFFFF"></path>
            </g>
        </g>
    </g>
</svg>