<?xml version="1.0" encoding="UTF-8"?>
<svg width="34px" height="18px" viewBox="0 0 34 18" version="1.1" xmlns="http://www.w3.org/2000/svg" xmlns:xlink="http://www.w3.org/1999/xlink">
    <!-- Generator: Sketch 49.3 (51167) - http://www.bohemiancoding.com/sketch -->
    <title>eps</title>
    <desc>Created with Sketch.</desc>
    <defs></defs>
    <g id="Page-1" stroke="none" stroke-width="1" fill="none" fill-rule="evenodd">
        <g id="Desktop-HD" transform="translate(-87.000000, -175.000000)" fill-rule="nonzero">
            <g id="eps" transform="translate(87.000000, 175.000000)">
                <path d="M0.4,14.9 L0.4,3.5 C0.4,1.9 1.7,0.5 3.4,0.5 L6.9,0.5 L30.5,0.5 C32.1,0.5 33.5,1.8 33.5,3.5 L33.5,14.9 C33.5,16.5 32.2,17.9 30.5,17.9 L6.9,17.9 L3.3,17.9 C1.7,17.8 0.4,16.5 0.4,14.9 Z" id="Shape" fill="#F39D00"></path>
                <path d="M7.9,13.4 L12.1,13.4 C12.3,13.4 12.5,13.3 12.6,13.2 C12.7,13.1 12.8,12.9 12.8,12.8 C12.8,12.6 12.7,12.5 12.6,12.4 C12.5,12.3 12.3,12.2 12.1,12.2 L8.5,12.2 L8.5,10 L11.7,10 C11.9,10 12.1,9.9 12.2,9.8 C12.3,9.7 12.4,9.6 12.4,9.4 C12.4,9.2 12.3,9.1 12.2,9 C12.1,8.9 11.9,8.8 11.7,8.8 L8.5,8.8 L8.5,7 L12,7 C12.2,7 12.4,6.9 12.5,6.8 C12.6,6.7 12.7,6.5 12.7,6.4 C12.7,6.2 12.6,6.1 12.5,6 C12.4,5.9 12.2,5.8 12,5.8 L8,5.8 C7.8,5.8 7.6,5.8 7.5,5.9 C7.4,6 7.3,6.1 7.2,6.2 C7,6.3 7,6.5 7,6.7 L7,12.4 C7,12.7 7.1,13 7.2,13.1 C7.3,13.3 7.6,13.4 7.9,13.4 Z" id="Shape" fill="#FFFFFF"></path>
                <path d="M14.8,13.5 C15,13.5 15.2,13.4 15.3,13.3 C15.4,13.1 15.5,12.9 15.5,12.6 L15.5,10.5 L17,10.5 C17.9,10.5 18.6,10.3 19.1,9.9 C19.6,9.5 19.8,8.9 19.8,8.2 C19.8,7.8 19.7,7.5 19.6,7.2 C19.5,6.9 19.3,6.7 19.1,6.5 C18.9,6.3 18.6,6.2 18.3,6.1 C18,6 17.5,6 17,6 L15,6 C14.7,6 14.4,6.1 14.3,6.2 C14.1,6.3 14.1,6.6 14.1,6.9 L14.1,12.7 C14.1,13 14.2,13.2 14.3,13.4 C14.4,13.4 14.6,13.5 14.8,13.5 Z M15.6,7 L16.6,7 C17.3,7 17.7,7.1 18,7.3 C18.2,7.5 18.3,7.8 18.3,8.1 C18.3,8.4 18.2,8.6 18.1,8.8 C18,9 17.8,9.1 17.5,9.2 C17.3,9.3 17,9.3 16.6,9.3 L15.6,9.3 L15.6,7 Z" id="Shape" fill="#FFFFFF"></path>
                <path d="M23.8,12.4 C23.5,12.4 23.2,12.3 23,12.2 C22.8,12.1 22.6,12 22.5,11.8 C22.4,11.6 22.3,11.4 22.2,11.2 C22.1,11 22,10.8 21.9,10.7 C21.8,10.6 21.7,10.5 21.5,10.5 C21.3,10.5 21.1,10.6 21,10.7 C20.9,10.8 20.8,11 20.8,11.2 C20.8,11.5 20.9,11.8 21.1,12.2 C21.3,12.5 21.6,12.8 21.9,13 C22.4,13.3 23,13.4 23.7,13.4 C24.3,13.4 24.9,13.3 25.3,13.1 C25.8,12.9 26.1,12.6 26.3,12.2 C26.5,11.8 26.7,11.4 26.7,11 C26.7,10.6 26.6,10.3 26.5,10 C26.4,9.7 26.2,9.5 25.9,9.3 C25.7,9.1 25.4,9 25,8.9 C24.7,8.8 24.3,8.7 23.8,8.6 C23.5,8.5 23.2,8.4 23.1,8.4 C23,8.4 22.8,8.3 22.7,8.2 C22.6,8.1 22.4,8 22.4,7.9 C22.3,7.8 22.3,7.7 22.3,7.5 C22.3,7.3 22.4,7 22.7,6.9 C22.9,6.7 23.3,6.6 23.7,6.6 C24.1,6.6 24.4,6.7 24.6,6.8 C24.8,7 25,7.2 25.1,7.5 C25.2,7.7 25.3,7.8 25.4,7.9 C25.5,8 25.6,8 25.8,8 C26,8 26.2,7.9 26.3,7.8 C26.4,7.7 26.5,7.5 26.5,7.3 C26.5,7.1 26.4,6.9 26.3,6.7 C26.2,6.5 26,6.3 25.8,6.1 C25.6,5.9 25.3,5.8 25,5.6 C24.7,5.5 24.3,5.4 23.8,5.4 C23.2,5.4 22.7,5.5 22.3,5.7 C21.9,5.9 21.5,6.1 21.3,6.4 C21.1,7 21,7.4 21,7.8 C21,8.2 21.1,8.6 21.3,8.9 C21.5,9.2 21.8,9.4 22.2,9.6 C22.6,9.8 23,9.9 23.6,10 C24,10.1 24.3,10.2 24.6,10.3 C24.8,10.4 25,10.5 25.2,10.7 C25.4,10.9 25.4,11.1 25.4,11.3 C25.4,11.6 25.3,11.9 25,12.1 C24.6,12.3 24.2,12.4 23.8,12.4 Z" id="Shape" fill="#FFFFFF"></path>
            </g>
        </g>
    </g>
</svg>