<?xml version="1.0" encoding="UTF-8"?>
<svg width="34px" height="18px" viewBox="0 0 34 18" version="1.1" xmlns="http://www.w3.org/2000/svg" xmlns:xlink="http://www.w3.org/1999/xlink">
    <!-- Generator: Sketch 49.3 (51167) - http://www.bohemiancoding.com/sketch -->
    <title>gif</title>
    <desc>Created with Sketch.</desc>
    <defs></defs>
    <g id="Page-1" stroke="none" stroke-width="1" fill="none" fill-rule="evenodd">
        <g id="Desktop-HD" transform="translate(-158.000000, -175.000000)" fill-rule="nonzero">
            <g id="gif" transform="translate(158.000000, 175.000000)">
                <path d="M0.4,14.9 L0.4,3.5 C0.4,1.9 1.7,0.5 3.4,0.5 L6.9,0.5 L30.5,0.5 C32.1,0.5 33.5,1.8 33.5,3.5 L33.5,14.9 C33.5,16.5 32.2,17.9 30.5,17.9 L6.9,17.9 L3.3,17.9 C1.7,17.8 0.4,16.5 0.4,14.9 Z" id="Shape" fill="#F39D00"></path>
                <path d="M9.3,12.4 C9.6,12.7 10,13 10.5,13.2 C11,13.4 11.5,13.5 12.1,13.5 C12.6,13.5 13.1,13.4 13.5,13.3 C13.9,13.2 14.4,13 14.8,12.8 C15,12.7 15.1,12.6 15.2,12.5 C15.3,12.4 15.4,12.3 15.4,12.2 C15.4,12.1 15.5,11.9 15.5,11.7 L15.5,10.2 C15.5,9.9 15.5,9.7 15.4,9.6 C15.3,9.5 15.2,9.4 15,9.3 C14.9,9.3 14.7,9.2 14.5,9.2 L12.8,9.2 C12.6,9.2 12.4,9.3 12.3,9.4 C12,9.7 12,9.8 12,10 C12,10.2 12.1,10.4 12.2,10.4 C12.3,10.5 12.6,10.5 12.8,10.5 L14,10.5 L14,11.7 C13.7,11.9 13.4,12 13.1,12.1 C12.8,12.2 12.5,12.2 12.1,12.2 C11.4,12.2 10.8,12 10.4,11.5 C10,11 9.8,10.3 9.8,9.5 C9.8,9.1 9.9,8.7 10,8.4 C10.1,8.1 10.3,7.8 10.5,7.5 C10.7,7.3 10.9,7.1 11.2,7 C11.5,6.9 11.8,6.8 12.1,6.8 C12.4,6.8 12.7,6.9 12.9,7 C13.1,7.1 13.3,7.2 13.4,7.4 C13.5,7.6 13.7,7.8 13.9,8.1 C14,8.2 14.1,8.3 14.2,8.3 C14.3,8.4 14.4,8.4 14.5,8.4 C14.7,8.4 14.9,8.3 15,8.2 C15.1,8.1 15.2,7.9 15.2,7.7 C15.2,7.5 15.1,7.3 15,7.1 C14.9,6.9 14.7,6.7 14.4,6.4 C14.2,6.2 13.8,6 13.4,5.9 C13,5.8 12.6,5.7 12,5.7 C11.4,5.7 10.8,5.8 10.3,6 C9.8,6.2 9.4,6.4 9.1,6.8 C8.8,7.1 8.5,7.6 8.3,8 C8.1,8.5 8,9 8,9.6 C8,10.2 8.1,10.7 8.3,11.2 C8.7,11.7 8.9,12.1 9.3,12.4 Z" id="Shape" fill="#FFFFFF"></path>
                <path d="M17.7,13.5 C17.9,13.5 18.1,13.4 18.3,13.3 C18.4,13.1 18.5,12.9 18.5,12.6 L18.5,6.6 C18.5,6.3 18.4,6.1 18.3,5.9 C18.2,5.7 18,5.7 17.7,5.7 C17.5,5.7 17.3,5.8 17.2,5.9 C17,6.1 17,6.3 17,6.6 L17,12.6 C17,12.9 17.1,13.1 17.2,13.3 C17.3,13.4 17.5,13.5 17.7,13.5 Z" id="Shape" fill="#FFFFFF"></path>
                <path d="M20.9,13.5 C21.1,13.5 21.3,13.4 21.5,13.3 C21.6,13.1 21.7,12.9 21.7,12.6 L21.7,10.1 L24.2,10.1 C24.4,10.1 24.6,10 24.7,9.9 C24.8,9.8 24.9,9.7 24.9,9.5 C24.9,9.3 24.8,9.2 24.7,9.1 C24.6,9 24.4,8.9 24.2,8.9 L21.7,8.9 L21.7,7 L24.7,7 C24.9,7 25.1,6.9 25.2,6.8 C25.3,6.7 25.4,6.5 25.4,6.4 C25.4,6.2 25.3,6.1 25.2,6 C25.1,5.9 24.9,5.8 24.7,5.8 L21.1,5.8 C20.9,5.8 20.7,5.8 20.6,5.9 C20.5,6 20.4,6.1 20.3,6.2 C20.2,6.3 20.2,6.5 20.2,6.7 L20.2,12.5 C20.2,12.8 20.3,13 20.4,13.2 C20.5,13.4 20.7,13.5 20.9,13.5 Z" id="Shape" fill="#FFFFFF"></path>
            </g>
        </g>
    </g>
</svg>