<?xml version="1.0" encoding="UTF-8"?>
<svg width="34px" height="18px" viewBox="0 0 34 18" version="1.1" xmlns="http://www.w3.org/2000/svg" xmlns:xlink="http://www.w3.org/1999/xlink">
    <!-- Generator: Sketch 49.3 (51167) - http://www.bohemiancoding.com/sketch -->
    <title>html</title>
    <desc>Created with Sketch.</desc>
    <defs></defs>
    <g id="Page-1" stroke="none" stroke-width="1" fill="none" fill-rule="evenodd">
        <g id="Desktop-HD" transform="translate(-795.000000, -175.000000)" fill-rule="nonzero">
            <g id="html" transform="translate(795.000000, 175.000000)">
                <path d="M0.4,14.9 L0.4,3.5 C0.4,1.9 1.7,0.5 3.4,0.5 L6.9,0.5 L30.5,0.5 C32.1,0.5 33.5,1.8 33.5,3.5 L33.5,14.9 C33.5,16.5 32.2,17.9 30.5,17.9 L6.9,17.9 L3.3,17.9 C1.7,17.8 0.4,16.5 0.4,14.9 Z" id="Shape" fill="#F39D00"></path>
                <path d="M7.5,12.6 C7.5,12.9 7.6,13.1 7.7,13.3 C7.8,13.5 8,13.5 8.3,13.5 C8.5,13.5 8.7,13.4 8.9,13.3 C9,13.1 9.1,12.9 9.1,12.6 L9.1,6.6 C9.1,6.3 9,6.1 8.9,5.9 C8.8,5.7 8.6,5.7 8.3,5.7 C8.1,5.7 7.9,5.8 7.7,5.9 C7.6,6.1 7.5,6.3 7.5,6.6 L7.5,8.8 L4.2,8.8 L4.2,6.6 C4.2,6.3 4.1,6.1 4,5.9 C3.9,5.7 3.7,5.7 3.4,5.7 C3.2,5.7 3,5.8 2.8,5.9 C2.7,6.1 2.6,6.3 2.6,6.6 L2.6,12.6 C2.6,12.9 2.7,13.1 2.8,13.3 C2.9,13.5 3.1,13.5 3.4,13.5 C3.6,13.5 3.8,13.4 4,13.3 C4.1,13.1 4.2,12.9 4.2,12.6 L4.2,10 L7.5,10 L7.5,12.6 Z" id="Shape" fill="#FFFFFF"></path>
                <path d="M10.7,7.1 L12.4,7.1 L12.4,12.6 C12.4,12.9 12.5,13.1 12.6,13.3 C12.7,13.5 12.9,13.5 13.2,13.5 C13.4,13.5 13.6,13.4 13.7,13.3 C13.8,13.1 13.9,12.9 13.9,12.6 L13.9,7.1 L15.6,7.1 C15.9,7.1 16.1,7 16.2,6.9 C16.3,6.8 16.4,6.6 16.4,6.4 C16.4,6.2 16.3,6.1 16.2,5.9 C16.1,5.8 15.9,5.7 15.6,5.7 L10.7,5.7 C10.4,5.7 10.3,5.8 10.1,5.9 C10,6 9.9,6.2 9.9,6.4 C9.9,6.6 10,6.7 10.1,6.9 C10.3,7 10.5,7.1 10.7,7.1 Z" id="Shape" fill="#FFFFFF"></path>
                <path d="M17.9,13.5 C18.1,13.5 18.3,13.4 18.4,13.3 C18.5,13.2 18.6,12.9 18.6,12.6 L18.6,7.4 L19.8,12.2 C19.8,12.4 19.9,12.5 19.9,12.7 C19.9,12.8 20,13 20.1,13.1 C20.2,13.2 20.3,13.3 20.4,13.4 C20.5,13.5 20.7,13.5 20.9,13.5 C21.1,13.5 21.3,13.4 21.5,13.3 C21.6,13.2 21.7,13 21.8,12.9 C21.9,12.8 21.9,12.5 22,12.2 L23.2,7.4 L23.2,12.6 C23.2,12.9 23.3,13.1 23.4,13.3 C23.5,13.4 23.7,13.5 23.9,13.5 C24.1,13.5 24.3,13.4 24.4,13.3 C24.5,13.2 24.6,12.9 24.6,12.6 L24.6,6.6 C24.6,6.3 24.5,6 24.3,5.9 C24.1,5.8 23.9,5.7 23.6,5.7 L23.1,5.7 C22.8,5.7 22.6,5.7 22.5,5.8 C22.4,5.9 22.3,5.9 22.2,6.1 C22.1,6.2 22.1,6.5 22,6.8 L20.8,11 L19.7,6.9 C19.6,6.6 19.6,6.4 19.5,6.2 C19.4,6.1 19.3,6 19.2,5.9 C19.1,5.9 18.9,5.8 18.6,5.8 L18.1,5.8 C17.8,5.8 17.6,5.9 17.4,6 C17.2,6.1 17.1,6.3 17.1,6.7 L17.1,12.7 C17.1,13 17.2,13.2 17.3,13.4 C17.5,13.4 17.7,13.5 17.9,13.5 Z" id="Shape" fill="#FFFFFF"></path>
                <path d="M27,13.4 L30.7,13.4 C31,13.4 31.1,13.3 31.3,13.2 C31.5,13.1 31.5,12.9 31.5,12.8 C31.5,12.6 31.4,12.5 31.3,12.3 C31.2,12.2 31,12.1 30.7,12.1 L27.6,12.1 L27.6,6.6 C27.6,6.3 27.5,6.1 27.4,5.9 C27.3,5.7 27.1,5.7 26.8,5.7 C26.6,5.7 26.4,5.8 26.3,5.9 C26.2,6.1 26.1,6.3 26.1,6.6 L26.1,12.4 C26.1,12.7 26.2,13 26.3,13.1 C26.4,13.2 26.6,13.4 27,13.4 Z" id="Shape" fill="#FFFFFF"></path>
            </g>
        </g>
    </g>
</svg>