<?xml version="1.0" encoding="UTF-8"?>
<svg width="34px" height="18px" viewBox="0 0 34 18" version="1.1" xmlns="http://www.w3.org/2000/svg" xmlns:xlink="http://www.w3.org/1999/xlink">
    <!-- Generator: Sketch 49.3 (51167) - http://www.bohemiancoding.com/sketch -->
    <title>jpg</title>
    <desc>Created with Sketch.</desc>
    <defs></defs>
    <g id="Page-1" stroke="none" stroke-width="1" fill="none" fill-rule="evenodd">
        <g id="Desktop-HD" transform="translate(-228.000000, -175.000000)" fill-rule="nonzero">
            <g id="jpg" transform="translate(228.000000, 175.000000)">
                <path d="M0.4,14.9 L0.4,3.5 C0.4,1.9 1.7,0.5 3.4,0.5 L6.9,0.5 L30.5,0.5 C32.1,0.5 33.5,1.8 33.5,3.5 L33.5,14.9 C33.5,16.5 32.2,17.9 30.5,17.9 L6.9,17.9 L3.3,17.9 C1.7,17.8 0.4,16.5 0.4,14.9 Z" id="Shape" fill="#F39D00"></path>
                <path d="M7.4,13.3 C7.7,13.5 8.2,13.5 8.7,13.5 C9.3,13.5 9.7,13.4 10.1,13.2 C10.5,13 10.8,12.6 11,12.2 C11.1,12 11.2,11.7 11.2,11.5 C11.2,11.3 11.2,11 11.2,10.6 L11.2,6.6 C11.2,6.3 11.1,6.1 11,5.9 C10.9,5.7 10.7,5.7 10.4,5.7 C10.2,5.7 10,5.8 9.8,5.9 C9.7,6.1 9.6,6.3 9.6,6.6 L9.6,10.8 C9.6,11.8 9.3,12.3 8.6,12.3 C8.3,12.3 8.2,12.2 8,12.1 C7.9,12 7.8,11.8 7.7,11.7 C7.6,11.6 7.6,11.3 7.5,11.1 C7.4,10.9 7.4,10.7 7.3,10.6 C7.2,10.5 7,10.4 6.8,10.4 C6.6,10.4 6.4,10.5 6.3,10.6 C6.2,10.7 6.1,10.9 6.1,11.2 C6.1,11.4 6.1,11.7 6.2,11.9 C6.3,12.2 6.4,12.4 6.5,12.6 C6.8,12.8 7.1,13.1 7.4,13.3 Z" id="Shape" fill="#FFFFFF"></path>
                <path d="M13.6,13.5 C13.8,13.5 14,13.4 14.1,13.3 C14.2,13.1 14.3,12.9 14.3,12.6 L14.3,10.5 L15.7,10.5 C16.6,10.5 17.3,10.3 17.8,9.9 C18.3,9.5 18.5,8.9 18.5,8.1 C18.5,7.7 18.4,7.4 18.3,7.1 C18.2,6.8 18,6.6 17.8,6.4 C17.6,6.2 17.3,6.1 17,6 C16.7,5.9 16.2,5.9 15.7,5.9 L13.7,5.9 C13.4,5.9 13.1,6 13,6.1 C12.8,6.2 12.8,6.5 12.8,6.8 L12.8,12.6 C12.8,12.9 12.9,13.1 13,13.3 C13.2,13.4 13.4,13.5 13.6,13.5 Z M14.4,7 L15.4,7 C16.1,7 16.5,7.1 16.8,7.3 C17,7.5 17.1,7.8 17.1,8.1 C17.1,8.4 17,8.6 16.9,8.8 C16.8,9 16.6,9.1 16.3,9.2 C16.1,9.3 15.8,9.3 15.4,9.3 L14.4,9.3 L14.4,7 Z" id="Shape" fill="#FFFFFF"></path>
                <path d="M20.7,12.4 C21,12.7 21.4,13 21.9,13.2 C22.4,13.4 22.9,13.5 23.5,13.5 C24,13.5 24.5,13.4 24.9,13.3 C25.3,13.2 25.8,13 26.2,12.8 C26.4,12.7 26.5,12.6 26.6,12.5 C26.7,12.4 26.8,12.3 26.8,12.2 C26.8,12.1 26.9,11.9 26.9,11.7 L26.9,10.2 C26.9,9.9 26.9,9.7 26.8,9.6 C26.7,9.5 26.6,9.4 26.4,9.3 C26.3,9.3 26.1,9.2 25.9,9.2 L24,9.2 C23.8,9.2 23.6,9.3 23.5,9.4 C23.4,9.5 23.3,9.6 23.3,9.8 C23.3,10 23.4,10.2 23.5,10.2 C23.6,10.3 23.9,10.3 24.1,10.3 L25.3,10.3 L25.3,11.5 C25,11.7 24.7,11.8 24.4,11.9 C24.1,12 23.8,12 23.4,12 C22.7,12 22.1,11.8 21.7,11.3 C21.3,10.8 21.1,10.1 21.1,9.3 C21.1,8.9 21.2,8.5 21.3,8.2 C21.4,7.9 21.6,7.6 21.8,7.3 C22,7.1 22.2,6.9 22.5,6.8 C22.8,6.7 23.1,6.6 23.4,6.6 C23.7,6.6 24,6.7 24.2,6.8 C24.4,6.9 24.6,7 24.7,7.2 C24.8,7.4 25,7.6 25.2,7.9 C25.3,8 25.4,8.1 25.5,8.1 C25.6,8.2 25.7,8.2 25.8,8.2 C26,8.2 26.2,8.1 26.3,8 C26.4,7.9 26.5,7.7 26.5,7.5 C26.5,7.3 26.4,7.1 26.3,6.9 C26.2,6.7 26,6.5 25.7,6.2 C25.5,6 25.1,5.8 24.7,5.7 C24.3,5.6 23.9,5.5 23.3,5.5 C22.7,5.5 22.1,5.6 21.6,5.8 C21.1,6 20.7,6.2 20.4,6.6 C20.1,6.9 19.8,7.4 19.6,7.8 C19.4,8.3 19.3,8.8 19.3,9.4 C19.3,10 19.4,10.5 19.6,11 C20.1,11.7 20.3,12.1 20.7,12.4 Z" id="Shape" fill="#FFFFFF"></path>
            </g>
        </g>
    </g>
</svg>