<?xml version="1.0" encoding="UTF-8"?>
<svg width="34px" height="18px" viewBox="0 0 34 18" version="1.1" xmlns="http://www.w3.org/2000/svg" xmlns:xlink="http://www.w3.org/1999/xlink">
    <!-- Generator: Sketch 49.3 (51167) - http://www.bohemiancoding.com/sketch -->
    <title>mov</title>
    <desc>Created with Sketch.</desc>
    <defs></defs>
    <g id="Page-1" stroke="none" stroke-width="1" fill="none" fill-rule="evenodd">
        <g id="Desktop-HD" transform="translate(-866.000000, -175.000000)" fill-rule="nonzero">
            <g id="mov" transform="translate(866.000000, 175.000000)">
                <path d="M0.4,14.9 L0.4,3.5 C0.4,1.9 1.7,0.5 3.4,0.5 L6.9,0.5 L30.5,0.5 C32.1,0.5 33.5,1.8 33.5,3.5 L33.5,14.9 C33.5,16.5 32.2,17.9 30.5,17.9 L6.9,17.9 L3.3,17.9 C1.7,17.8 0.4,16.5 0.4,14.9 Z" id="Shape" fill="#F39D00"></path>
                <path d="M8.1,12.7 C8.1,12.8 8.2,13 8.3,13.1 C8.4,13.2 8.5,13.3 8.6,13.4 C8.7,13.5 8.9,13.5 9.1,13.5 C9.3,13.5 9.5,13.4 9.7,13.3 C9.8,13.2 9.9,13 10,12.9 C10.1,12.8 10.1,12.5 10.2,12.2 L11.4,7.4 L11.4,12.6 C11.4,12.9 11.5,13.1 11.6,13.2 C11.7,13.3 11.9,13.4 12.1,13.4 C12.3,13.4 12.5,13.3 12.6,13.2 C12.7,13.1 12.8,12.8 12.8,12.6 L12.8,6.6 C12.8,6.3 12.7,6 12.5,5.9 C12.3,5.8 12.1,5.7 11.8,5.7 L11.3,5.7 C11,5.7 10.8,5.7 10.7,5.8 C10.6,5.9 10.5,5.9 10.4,6.1 C10.3,6.2 10.3,6.5 10.2,6.8 L9.1,11 L8,6.8 C7.9,6.5 7.9,6.3 7.8,6.1 C7.7,6 7.6,5.9 7.5,5.8 C7.4,5.7 7.2,5.7 6.9,5.7 L6.4,5.7 C6.1,5.7 5.9,5.8 5.7,5.9 C5.5,6 5.4,6.2 5.4,6.6 L5.4,12.6 C5.4,12.9 5.5,13.1 5.6,13.3 C5.7,13.4 5.9,13.5 6.1,13.5 C6.3,13.5 6.5,13.4 6.6,13.3 C6.7,13.2 6.8,12.9 6.8,12.7 L6.8,7.5 L8,12.3 C8.1,12.4 8.1,12.5 8.1,12.7 Z" id="Shape" fill="#FFFFFF"></path>
                <path d="M14.9,12.4 C15.2,12.7 15.6,13 16.1,13.2 C16.6,13.4 17.1,13.5 17.7,13.5 C18.3,13.5 18.8,13.4 19.3,13.2 C19.8,13 20.1,12.7 20.5,12.4 C20.8,12.1 21.1,11.6 21.2,11.2 C21.4,10.7 21.4,10.2 21.4,9.6 C21.4,8.8 21.3,8.1 21,7.5 C20.7,6.9 20.3,6.5 19.7,6.1 C19.1,5.8 18.5,5.6 17.7,5.6 C17.1,5.6 16.6,5.7 16.2,5.9 C15.7,6.1 15.4,6.3 15,6.7 C14.7,7 14.4,7.5 14.3,7.9 C14.1,8.4 14.1,8.9 14.1,9.5 C14.1,10.1 14.2,10.6 14.3,11.1 C14.3,11.6 14.6,12.1 14.9,12.4 Z M15.6,8.4 C15.7,8.1 15.9,7.8 16,7.6 C16.2,7.4 16.4,7.2 16.7,7.1 C17,7 17.2,6.9 17.5,6.9 C17.9,6.9 18.3,7 18.6,7.2 C18.9,7.4 19.2,7.7 19.4,8.1 C19.6,8.5 19.7,9 19.7,9.5 C19.7,10.1 19.6,10.6 19.4,11 C19.2,11.4 18.9,11.7 18.6,11.9 C18.3,12.1 17.9,12.2 17.5,12.2 C17.2,12.2 16.9,12.1 16.7,12 C16.4,11.9 16.2,11.7 16,11.5 C15.8,11.3 15.6,11 15.5,10.6 C15.4,10.3 15.3,9.9 15.3,9.4 C15.5,9.1 15.5,8.8 15.6,8.4 Z" id="Shape" fill="#FFFFFF"></path>
                <path d="M22,6.9 C22,7 22.1,7.1 22.1,7.2 L23.9,12.1 C24,12.3 24,12.5 24.1,12.6 C24.2,12.8 24.2,12.9 24.3,13 C24.4,13.1 24.5,13.2 24.6,13.3 C24.7,13.4 24.9,13.4 25.1,13.4 C25.3,13.4 25.5,13.4 25.6,13.3 C25.7,13.2 25.9,13.1 25.9,13 C26,12.9 26.1,12.7 26.1,12.6 C26.2,12.4 26.2,12.2 26.3,12.1 L28.1,7.2 C28.1,7.1 28.2,7 28.2,6.9 C28.2,6.8 28.3,6.7 28.3,6.6 C28.3,6.5 28.3,6.4 28.3,6.4 C28.3,6.3 28.3,6.2 28.2,6.1 C28.1,6 28.1,5.9 27.9,5.8 C27.8,5.7 27.7,5.7 27.5,5.7 C27.3,5.7 27.2,5.7 27.1,5.8 C27,5.9 26.9,6 26.9,6.1 C26.9,6.2 26.8,6.4 26.7,6.7 L25,11.8 L23.3,6.7 C23.2,6.3 23.1,6.1 23,5.9 C22.9,5.7 22.7,5.7 22.4,5.7 C22.2,5.7 22,5.8 21.9,5.9 C21.8,6 21.7,6.2 21.7,6.4 C21.7,6.5 21.7,6.6 21.7,6.7 C21.9,6.7 21.9,6.8 22,6.9 Z" id="Shape" fill="#FFFFFF"></path>
            </g>
        </g>
    </g>
</svg>