<?xml version="1.0" encoding="UTF-8"?>
<svg width="34px" height="18px" viewBox="0 0 34 18" version="1.1" xmlns="http://www.w3.org/2000/svg" xmlns:xlink="http://www.w3.org/1999/xlink">
    <!-- Generator: Sketch 49.3 (51167) - http://www.bohemiancoding.com/sketch -->
    <title>mp-3</title>
    <desc>Created with Sketch.</desc>
    <defs></defs>
    <g id="Page-1" stroke="none" stroke-width="1" fill="none" fill-rule="evenodd">
        <g id="Desktop-HD" transform="translate(-299.000000, -175.000000)" fill-rule="nonzero">
            <g id="mp-3" transform="translate(299.000000, 175.000000)">
                <path d="M0.4,14.9 L0.4,3.5 C0.4,1.9 1.7,0.5 3.4,0.5 L6.9,0.5 L30.5,0.5 C32.1,0.5 33.5,1.8 33.5,3.5 L33.5,14.9 C33.5,16.5 32.2,17.9 30.5,17.9 L6.9,17.9 L3.3,17.9 C1.7,17.8 0.4,16.5 0.4,14.9 Z" id="Shape" fill="#F39D00"></path>
                <path d="M7.6,13.3 C7.7,13.2 7.8,12.9 7.8,12.6 L7.8,7.4 L9,12.2 C9,12.4 9.1,12.5 9.1,12.7 C9.1,12.8 9.2,13 9.3,13.1 C9.4,13.2 9.5,13.3 9.6,13.4 C9.7,13.5 9.9,13.5 10.1,13.5 C10.3,13.5 10.5,13.4 10.7,13.3 C10.8,13.2 10.9,13 11,12.9 C11,12.8 11.1,12.5 11.2,12.2 L12.4,7.4 L12.4,12.6 C12.4,12.9 12.5,13.1 12.6,13.3 C12.7,13.4 12.9,13.5 13.1,13.5 C13.3,13.5 13.5,13.4 13.6,13.3 C13.7,13.2 13.8,12.9 13.8,12.6 L13.8,6.6 C13.8,6.3 13.7,6 13.5,5.9 C13.3,5.8 13.1,5.7 12.8,5.7 L12.3,5.7 C12,5.7 11.8,5.7 11.7,5.8 C11.6,5.9 11.5,5.9 11.4,6.1 C11.3,6.2 11.3,6.5 11.2,6.8 L10.1,11 L9,6.8 C8.9,6.5 8.9,6.3 8.8,6.1 C8.7,6 8.6,5.9 8.5,5.8 C8.4,5.8 8.2,5.7 7.9,5.7 L7.4,5.7 C7.1,5.7 6.9,5.8 6.7,5.9 C6.5,6 6.4,6.2 6.4,6.6 L6.4,12.6 C6.4,12.9 6.5,13.1 6.6,13.3 C6.7,13.4 6.9,13.5 7.1,13.5 C7.3,13.5 7.5,13.4 7.6,13.3 Z" id="Shape" fill="#FFFFFF"></path>
                <path d="M16.1,13.5 C16.3,13.5 16.5,13.4 16.6,13.3 C16.7,13.1 16.8,12.9 16.8,12.6 L16.8,10.5 L18.2,10.5 C19.1,10.5 19.8,10.3 20.3,9.9 C20.8,9.5 21,8.9 21,8.1 C21,7.7 20.9,7.4 20.8,7.1 C20.7,6.8 20.5,6.6 20.3,6.4 C20.1,6.2 19.8,6.1 19.5,6 C19.2,5.9 18.7,5.9 18.2,5.9 L16.2,5.9 C15.9,5.9 15.6,6 15.5,6.1 C15.3,6.2 15.3,6.5 15.3,6.8 L15.3,12.6 C15.3,12.9 15.4,13.1 15.5,13.3 C15.6,13.4 15.8,13.5 16.1,13.5 Z M16.8,7 L17.8,7 C18.5,7 18.9,7.1 19.2,7.3 C19.4,7.5 19.5,7.8 19.5,8.1 C19.5,8.4 19.4,8.6 19.3,8.8 C19.2,9 19,9.1 18.7,9.2 C18.5,9.3 18.2,9.3 17.8,9.3 L16.8,9.3 L16.8,7 Z" id="Shape" fill="#FFFFFF"></path>
                <path d="M22.7,12.7 C22.9,12.9 23.2,13.1 23.5,13.3 C23.8,13.4 24.2,13.5 24.6,13.5 C25,13.5 25.4,13.4 25.7,13.3 C26,13.2 26.3,13 26.6,12.8 C26.8,12.6 27,12.3 27.2,12 C27.3,11.7 27.4,11.4 27.4,11.1 C27.4,10.8 27.4,10.6 27.3,10.4 C27.2,10.2 27.1,10 26.9,9.8 C26.7,9.6 26.5,9.4 26.2,9.3 C26.5,9.1 26.7,8.8 26.8,8.6 C26.9,8.4 27,8.1 27,7.7 C27,7.4 26.9,7.2 26.8,7 C26.7,6.8 26.5,6.6 26.3,6.4 C26.1,6.2 25.9,6.1 25.6,6 C25.3,5.9 25,5.9 24.7,5.9 C24.3,5.9 24,6 23.7,6.1 C23.4,6.2 23.1,6.3 22.9,6.5 C22.7,6.7 22.5,6.9 22.4,7.1 C22.3,7.3 22.2,7.5 22.2,7.7 C22.2,7.9 22.3,8 22.4,8.1 C22.5,8.2 22.6,8.3 22.8,8.3 C22.9,8.3 23,8.3 23.1,8.2 C23.2,8.2 23.3,8.1 23.3,8 C23.4,7.9 23.4,7.7 23.5,7.6 C23.6,7.5 23.6,7.3 23.7,7.2 C23.8,7.1 23.9,7 24,7 C24.1,6.9 24.3,6.9 24.5,6.9 C24.8,6.9 25.1,7 25.2,7.2 C25.4,7.4 25.5,7.6 25.5,7.9 C25.5,8.2 25.4,8.5 25.2,8.7 C25,8.9 24.7,9 24.4,9 L24.2,9 C24,9 23.8,9.1 23.6,9.2 C23.5,9.3 23.4,9.4 23.4,9.6 C23.4,9.8 23.5,9.9 23.6,10 C23.7,10.1 23.8,10.1 24,10.1 C24,10.1 24.1,10.1 24.3,10.1 C24.4,10.1 24.6,10.1 24.6,10.1 C25,10.1 25.3,10.2 25.5,10.4 C25.7,10.6 25.8,10.9 25.8,11.4 C25.8,11.7 25.7,11.9 25.6,12.1 C25.5,12.3 25.3,12.5 25.1,12.6 C24.9,12.7 24.7,12.8 24.5,12.8 C24.1,12.8 23.8,12.7 23.6,12.5 C23.4,12.3 23.2,11.9 23,11.4 C23,11.3 22.9,11.2 22.8,11.2 C22.7,11.1 22.6,11.1 22.5,11.1 C22.3,11.1 22.1,11.2 22,11.3 C21.9,11.4 21.8,11.6 21.8,11.8 C21.8,12 21.9,12.2 22,12.4 C22.3,12.3 22.5,12.5 22.7,12.7 Z" id="Shape" fill="#FFFFFF"></path>
            </g>
        </g>
    </g>
</svg>