<?xml version="1.0" encoding="UTF-8"?>
<svg width="34px" height="18px" viewBox="0 0 34 18" version="1.1" xmlns="http://www.w3.org/2000/svg" xmlns:xlink="http://www.w3.org/1999/xlink">
    <!-- Generator: Sketch 49.3 (51167) - http://www.bohemiancoding.com/sketch -->
    <title>mp4</title>
    <desc>Created with Sketch.</desc>
    <defs></defs>
    <g id="Page-1" stroke="none" stroke-width="1" fill="none" fill-rule="evenodd">
        <g id="mp4">
            <path d="M0.4,14.9 L0.4,3.5 C0.4,1.9 1.7,0.5 3.4,0.5 L6.9,0.5 L30.5,0.5 C32.1,0.5 33.5,1.8 33.5,3.5 L33.5,14.9 C33.5,16.5 32.2,17.9 30.5,17.9 L6.9,17.9 L3.3,17.9 C1.7,17.8 0.4,16.5 0.4,14.9 Z" id="Shape" fill="#F39D00" fill-rule="nonzero"></path>
            <path d="M7.6,13.3 C7.7,13.2 7.8,12.9 7.8,12.6 L7.8,7.4 L9,12.2 C9,12.4 9.1,12.5 9.1,12.7 C9.1,12.8 9.2,13 9.3,13.1 C9.4,13.2 9.5,13.3 9.6,13.4 C9.7,13.5 9.9,13.5 10.1,13.5 C10.3,13.5 10.5,13.4 10.7,13.3 C10.8,13.2 10.9,13 11,12.9 C11,12.8 11.1,12.5 11.2,12.2 L12.4,7.4 L12.4,12.6 C12.4,12.9 12.5,13.1 12.6,13.3 C12.7,13.4 12.9,13.5 13.1,13.5 C13.3,13.5 13.5,13.4 13.6,13.3 C13.7,13.2 13.8,12.9 13.8,12.6 L13.8,6.6 C13.8,6.3 13.7,6 13.5,5.9 C13.3,5.8 13.1,5.7 12.8,5.7 L12.3,5.7 C12,5.7 11.8,5.7 11.7,5.8 C11.6,5.9 11.5,5.9 11.4,6.1 C11.3,6.2 11.3,6.5 11.2,6.8 L10.1,11 L9,6.8 C8.9,6.5 8.9,6.3 8.8,6.1 C8.7,6 8.6,5.9 8.5,5.8 C8.4,5.8 8.2,5.7 7.9,5.7 L7.4,5.7 C7.1,5.7 6.9,5.8 6.7,5.9 C6.5,6 6.4,6.2 6.4,6.6 L6.4,12.6 C6.4,12.9 6.5,13.1 6.6,13.3 C6.7,13.4 6.9,13.5 7.1,13.5 C7.3,13.5 7.5,13.4 7.6,13.3 Z" id="Shape" fill="#FFFFFF" fill-rule="nonzero"></path>
            <path d="M16.1,13.5 C16.3,13.5 16.5,13.4 16.6,13.3 C16.7,13.1 16.8,12.9 16.8,12.6 L16.8,10.5 L18.2,10.5 C19.1,10.5 19.8,10.3 20.3,9.9 C20.8,9.5 21,8.9 21,8.1 C21,7.7 20.9,7.4 20.8,7.1 C20.7,6.8 20.5,6.6 20.3,6.4 C20.1,6.2 19.8,6.1 19.5,6 C19.2,5.9 18.7,5.9 18.2,5.9 L16.2,5.9 C15.9,5.9 15.6,6 15.5,6.1 C15.3,6.2 15.3,6.5 15.3,6.8 L15.3,12.6 C15.3,12.9 15.4,13.1 15.5,13.3 C15.6,13.4 15.8,13.5 16.1,13.5 Z M16.8,7 L17.8,7 C18.5,7 18.9,7.1 19.2,7.3 C19.4,7.5 19.5,7.8 19.5,8.1 C19.5,8.4 19.4,8.6 19.3,8.8 C19.2,9 19,9.1 18.7,9.2 C18.5,9.3 18.2,9.3 17.8,9.3 L16.8,9.3 L16.8,7 Z" id="Shape" fill="#FFFFFF" fill-rule="nonzero"></path>
            <path d="M25.0029297,11.2833984 L23.0546875,11.2833984 C22.0097604,11.2833984 21.4873047,11.0701844 21.4873047,10.64375 C21.4873047,10.4647126 21.5784496,10.2645193 21.7607422,10.043164 C21.9104825,9.87389234 22.0618482,9.70299561 22.2148438,9.5304687 C22.7389349,8.78176704 23.5380806,7.66849692 24.6123047,6.19062495 C24.8662122,5.85208159 25.1966125,5.68281245 25.6035156,5.68281245 C25.7955739,5.68281245 25.9615878,5.73164009 26.1015625,5.82929683 C26.267579,5.94648491 26.3505859,6.11087129 26.3505859,6.32246089 L26.3554688,9.99433589 C26.7819032,10.0073568 27.0667311,10.0513017 27.2099609,10.1261718 C27.3694669,10.2140629 27.4492188,10.3865872 27.4492188,10.64375 C27.452474,10.9139336 27.3287773,11.0994786 27.078125,11.2003906 C26.9023429,11.2687503 26.6614599,11.2964193 26.3554688,11.2833984 C26.3652344,11.7521507 26.3636068,12.2599582 26.3505859,12.8068359 C26.3473307,12.9858732 26.2887375,13.1339837 26.1748047,13.2511718 C26.0608718,13.3683599 25.906251,13.4269531 25.7109375,13.4269531 C25.2161434,13.4269531 24.9801431,13.1014355 25.0029297,12.4503906 L25.0029297,11.2833984 Z M25.0029297,7.80195308 C24.6871729,8.30000244 24.2005241,9.03078941 23.5429688,9.99433589 L25.0029297,9.99433589 L25.0029297,7.80195308 Z" id="4" fill="#FFFFFF"></path>
        </g>
    </g>
</svg>