<?xml version="1.0" encoding="UTF-8"?>
<svg width="34px" height="18px" viewBox="0 0 34 18" version="1.1" xmlns="http://www.w3.org/2000/svg" xmlns:xlink="http://www.w3.org/1999/xlink">
    <!-- Generator: Sketch 49.3 (51167) - http://www.bohemiancoding.com/sketch -->
    <title>pdf</title>
    <desc>Created with Sketch.</desc>
    <defs></defs>
    <g id="Page-1" stroke="none" stroke-width="1" fill="none" fill-rule="evenodd">
        <g id="Desktop-HD" transform="translate(-937.000000, -175.000000)" fill-rule="nonzero">
            <g id="pdf" transform="translate(937.000000, 175.000000)">
                <path d="M0.4,14.9 L0.4,3.5 C0.4,1.9 1.7,0.5 3.4,0.5 L6.9,0.5 L30.5,0.5 C32.1,0.5 33.5,1.8 33.5,3.5 L33.5,14.9 C33.5,16.5 32.2,17.9 30.5,17.9 L6.9,17.9 L3.3,17.9 C1.7,17.8 0.4,16.5 0.4,14.9 Z" id="Shape" fill="#F39D00"></path>
                <path d="M7.7,13.5 C7.9,13.5 8.1,13.4 8.2,13.3 C8.3,13.1 8.4,12.9 8.4,12.6 L8.4,10.5 L9.8,10.5 C10.7,10.5 11.4,10.3 11.9,9.9 C12.4,9.5 12.6,8.9 12.6,8.1 C12.6,7.7 12.5,7.4 12.4,7.1 C12.3,6.8 12.1,6.6 11.9,6.4 C11.7,6.2 11.4,6.1 11.1,6 C10.8,5.9 10.3,5.9 9.8,5.9 L7.8,5.9 C7.5,5.9 7.2,6 7.1,6.1 C6.9,6.2 6.9,6.5 6.9,6.8 L6.9,12.6 C6.9,12.9 7,13.1 7.1,13.3 C7.3,13.4 7.5,13.5 7.7,13.5 Z M8.5,7 L9.5,7 C10.2,7 10.6,7.1 10.9,7.3 C11.1,7.5 11.2,7.8 11.2,8.1 C11.2,8.4 11.1,8.6 11,8.8 C10.9,9 10.7,9.1 10.4,9.2 C10.2,9.3 9.9,9.3 9.5,9.3 L8.5,9.3 L8.5,7 Z" id="Shape" fill="#FFFFFF"></path>
                <path d="M14.3,13.2 C14.4,13.3 14.7,13.3 14.9,13.3 L16.9,13.3 C17.2,13.3 17.6,13.3 17.8,13.2 C18.1,13.2 18.3,13.1 18.6,13 C18.8,12.9 19.1,12.7 19.3,12.6 C19.6,12.4 19.8,12.1 19.9,11.8 C20.1,11.5 20.2,11.2 20.3,10.8 C20.4,10.4 20.4,10 20.4,9.6 C20.4,8.2 20,7.2 19.2,6.5 C18.9,6.2 18.6,6.1 18.2,6 C17.8,5.9 17.4,5.9 16.9,5.9 L14.9,5.9 C14.6,5.9 14.3,6 14.2,6.1 C14.1,6.2 14,6.5 14,6.8 L14,12.3 C14,12.5 14,12.7 14.1,12.9 C14.1,13 14.2,13.2 14.3,13.2 Z M15.5,7 L16.5,7 C17,7 17.4,7.1 17.7,7.2 C18,7.3 18.3,7.5 18.5,7.9 C18.7,8.3 18.8,8.8 18.8,9.6 C18.8,10.7 18.5,11.4 18,11.8 C18,11.9 17.9,12 17.7,12 C17.5,12.1 17.4,12.1 17.2,12.1 C17.1,12.1 16.9,12.1 16.6,12.1 L15.4,12.1 L15.4,7 L15.5,7 Z" id="Shape" fill="#FFFFFF"></path>
                <path d="M22.5,13.5 C22.7,13.5 22.9,13.4 23,13.3 C23.1,13.1 23.2,12.9 23.2,12.6 L23.2,10.1 L25.7,10.1 C25.9,10.1 26.1,10 26.2,9.9 C26.3,9.8 26.4,9.7 26.4,9.5 C26.4,9.3 26.3,9.2 26.2,9.1 C26.1,9 25.9,8.9 25.7,8.9 L23.2,8.9 L23.2,7 L26.2,7 C26.4,7 26.6,6.9 26.7,6.8 C26.8,6.7 26.9,6.5 26.9,6.4 C26.9,6.2 26.8,6.1 26.7,6 C26.6,5.9 26.4,5.8 26.2,5.8 L22.6,5.8 C22.4,5.8 22.2,5.8 22.1,5.9 C22,6 21.9,6.1 21.8,6.2 C21.7,6.3 21.7,6.5 21.7,6.7 L21.7,12.5 C21.7,12.8 21.8,13 21.9,13.2 C22.1,13.4 22.3,13.5 22.5,13.5 Z" id="Shape" fill="#FFFFFF"></path>
            </g>
        </g>
    </g>
</svg>