<?xml version="1.0" encoding="UTF-8"?>
<svg width="34px" height="18px" viewBox="0 0 34 18" version="1.1" xmlns="http://www.w3.org/2000/svg" xmlns:xlink="http://www.w3.org/1999/xlink">
    <!-- Generator: Sketch 49.3 (51167) - http://www.bohemiancoding.com/sketch -->
    <title>png</title>
    <desc>Created with Sketch.</desc>
    <defs></defs>
    <g id="Page-1" stroke="none" stroke-width="1" fill="none" fill-rule="evenodd">
        <g id="Desktop-HD" transform="translate(-370.000000, -175.000000)" fill-rule="nonzero">
            <g id="png" transform="translate(370.000000, 175.000000)">
                <path d="M0.4,14.9 L0.4,3.5 C0.4,1.9 1.7,0.5 3.4,0.5 L6.9,0.5 L30.5,0.5 C32.1,0.5 33.5,1.8 33.5,3.5 L33.5,14.9 C33.5,16.5 32.2,17.9 30.5,17.9 L6.9,17.9 L3.3,17.9 C1.7,17.8 0.4,16.5 0.4,14.9 Z" id="Shape" fill="#F39D00"></path>
                <path d="M7.4,12.6 L7.4,10.5 L8.8,10.5 C9.7,10.5 10.4,10.3 10.9,9.9 C11.4,9.5 11.6,8.9 11.6,8.2 C11.6,7.8 11.5,7.5 11.4,7.2 C11.3,6.9 11.1,6.7 10.9,6.5 C10.7,6.3 10.4,6.2 10.1,6.1 C9.8,6 9.3,6 8.8,6 L6.8,6 C6.5,6 6.2,6.1 6.1,6.2 C5.9,6.3 5.9,6.6 5.9,6.9 L5.9,12.7 C5.9,13 6,13.2 6.1,13.4 C6.2,13.6 6.4,13.6 6.7,13.6 C6.9,13.6 7.1,13.5 7.2,13.4 C7.3,13.1 7.4,12.9 7.4,12.6 Z M7.4,7 L8.4,7 C9.1,7 9.5,7.1 9.8,7.3 C10,7.5 10.1,7.8 10.1,8.1 C10.1,8.4 10,8.6 9.9,8.8 C9.8,9 9.6,9.1 9.3,9.2 C9.1,9.3 8.8,9.3 8.4,9.3 L7.4,9.3 L7.4,7 Z" id="Shape" fill="#FFFFFF"></path>
                <path d="M13.6,13.5 C13.8,13.5 14,13.4 14.1,13.3 C14.2,13.2 14.3,12.9 14.3,12.6 L14.3,8.2 L17.2,12.6 C17.3,12.7 17.4,12.8 17.4,13 C17.5,13.1 17.6,13.2 17.7,13.3 C17.8,13.4 17.9,13.4 18,13.5 C18.1,13.5 18.2,13.6 18.4,13.6 C19,13.6 19.2,13.3 19.2,12.6 L19.2,6.7 C19.2,6.4 19.1,6.2 19,6 C18.9,5.9 18.7,5.8 18.5,5.8 C18.3,5.8 18.1,5.9 18,6 C17.9,6.1 17.8,6.4 17.8,6.7 L17.8,11.2 L14.9,6.7 C14.8,6.6 14.7,6.4 14.7,6.3 C14.6,6.2 14.5,6.1 14.5,6 C14.4,5.9 14.3,5.9 14.2,5.8 C14.1,5.8 14,5.7 13.8,5.7 C13.6,5.7 13.5,5.8 13.3,5.8 C13.2,5.9 13,6 13,6.2 C12.9,6.3 12.9,6.5 12.9,6.8 L12.9,12.6 C12.9,12.9 13,13.1 13.1,13.3 C13.2,13.4 13.4,13.5 13.6,13.5 Z" id="Shape" fill="#FFFFFF"></path>
                <path d="M21.6,12.4 C21.9,12.7 22.3,13 22.8,13.2 C23.3,13.4 23.8,13.5 24.4,13.5 C24.9,13.5 25.4,13.4 25.8,13.3 C26.2,13.2 26.7,13 27.1,12.8 C27.3,12.7 27.4,12.6 27.5,12.5 C27.6,12.4 27.7,12.3 27.7,12.2 C27.7,12.1 27.8,11.9 27.8,11.7 L27.8,10.2 C27.8,9.9 27.8,9.7 27.7,9.6 C27.6,9.5 27.5,9.4 27.3,9.3 C27.2,9.3 27,9.2 26.8,9.2 L25,9.2 C24.8,9.2 24.6,9.3 24.5,9.4 C24.4,9.5 24.3,9.6 24.3,9.8 C24.3,10 24.4,10.2 24.5,10.2 C24.6,10.3 24.9,10.3 25.1,10.3 L26.3,10.3 L26.3,11.5 C26,11.7 25.7,11.8 25.4,11.9 C25.1,12 24.8,12 24.4,12 C23.7,12 23.1,11.8 22.7,11.3 C22.3,10.8 22.1,10.1 22.1,9.3 C22.1,8.9 22.2,8.5 22.3,8.2 C22.4,7.9 22.6,7.6 22.8,7.3 C23,7.1 23.2,6.9 23.5,6.8 C23.8,6.7 24.1,6.6 24.4,6.6 C24.7,6.6 25,6.7 25.2,6.8 C25.4,6.9 25.6,7 25.7,7.2 C25.8,7.4 26,7.6 26.2,7.9 C26.3,8 26.4,8.1 26.5,8.1 C26.6,8.2 26.7,8.2 26.8,8.2 C27,8.2 27.2,8.1 27.3,8 C27.4,7.9 27.5,7.7 27.5,7.5 C27.5,7.3 27.4,7.1 27.3,6.9 C27.2,6.7 27,6.5 26.7,6.2 C26.5,6 26.1,5.8 25.7,5.7 C25.3,5.6 24.9,5.5 24.3,5.5 C23.7,5.5 23.1,5.6 22.6,5.8 C22.1,6 21.7,6.2 21.4,6.6 C21.1,6.9 20.8,7.4 20.6,7.8 C20.4,8.3 20.3,8.8 20.3,9.4 C20.3,10 20.4,10.5 20.6,11 C21,11.7 21.3,12.1 21.6,12.4 Z" id="Shape" fill="#FFFFFF"></path>
            </g>
        </g>
    </g>
</svg>