<?xml version="1.0" encoding="UTF-8"?>
<svg width="34px" height="18px" viewBox="0 0 34 18" version="1.1" xmlns="http://www.w3.org/2000/svg" xmlns:xlink="http://www.w3.org/1999/xlink">
    <!-- Generator: Sketch 49.3 (51167) - http://www.bohemiancoding.com/sketch -->
    <title>psd</title>
    <desc>Created with Sketch.</desc>
    <defs></defs>
    <g id="Page-1" stroke="none" stroke-width="1" fill="none" fill-rule="evenodd">
        <g id="Desktop-HD" transform="translate(-1007.000000, -175.000000)" fill-rule="nonzero">
            <g id="psd" transform="translate(1007.000000, 175.000000)">
                <path d="M0.4,14.9 L0.4,3.5 C0.4,1.9 1.7,0.5 3.4,0.5 L6.9,0.5 L30.5,0.5 C32.1,0.5 33.5,1.8 33.5,3.5 L33.5,14.9 C33.5,16.5 32.2,17.9 30.5,17.9 L6.9,17.9 L3.3,17.9 C1.7,17.8 0.4,16.5 0.4,14.9 Z" id="Shape" fill="#F39D00"></path>
                <path d="M7.9,13.3 C8,13.1 8.1,12.9 8.1,12.6 L8.1,10.5 L9.5,10.5 C10.4,10.5 11.1,10.3 11.6,9.9 C12.1,9.5 12.3,8.9 12.3,8.1 C12.3,7.7 12.2,7.4 12.1,7.1 C12,6.8 11.8,6.6 11.6,6.4 C11.4,6.2 11.1,6.1 10.8,6 C10.5,5.9 10,5.9 9.5,5.9 L7.5,5.9 C7.2,5.9 6.9,6 6.8,6.1 C6.6,6.2 6.6,6.5 6.6,6.8 L6.6,12.6 C6.6,12.9 6.7,13.1 6.8,13.3 C6.9,13.5 7.1,13.5 7.4,13.5 C7.6,13.5 7.8,13.4 7.9,13.3 Z M8.1,7 L9.1,7 C9.8,7 10.2,7.1 10.5,7.3 C10.7,7.5 10.8,7.8 10.8,8.1 C10.8,8.4 10.7,8.6 10.6,8.8 C10.5,9 10.3,9.1 10,9.2 C9.8,9.3 9.5,9.3 9.1,9.3 L8.1,9.3 L8.1,7 Z" id="Shape" fill="#FFFFFF"></path>
                <path d="M16.3,12.4 C16,12.4 15.7,12.3 15.5,12.2 C15.3,12.1 15.1,12 15,11.8 C14.9,11.6 14.8,11.4 14.7,11.2 C14.6,11 14.5,10.8 14.4,10.7 C14.3,10.6 14.2,10.5 14,10.5 C13.8,10.5 13.6,10.6 13.5,10.7 C13.4,10.8 13.3,11 13.3,11.2 C13.3,11.5 13.4,11.8 13.6,12.2 C13.8,12.5 14.1,12.8 14.4,13 C14.9,13.3 15.5,13.4 16.2,13.4 C16.8,13.4 17.4,13.3 17.8,13.1 C18.3,12.9 18.6,12.6 18.8,12.2 C19,11.8 19.2,11.4 19.2,11 C19.2,10.6 19.1,10.3 19,10 C18.9,9.7 18.7,9.5 18.4,9.3 C18.2,9.1 17.9,9 17.5,8.9 C17.2,8.8 16.8,8.7 16.3,8.6 C16,8.5 15.7,8.4 15.6,8.4 C15.5,8.4 15.3,8.3 15.2,8.2 C15.1,8.1 14.9,8 14.9,7.9 C14.8,7.8 14.8,7.7 14.8,7.5 C14.8,7.3 14.9,7 15.2,6.9 C15.4,6.7 15.8,6.6 16.2,6.6 C16.6,6.6 16.9,6.7 17.1,6.8 C17.3,7 17.5,7.2 17.6,7.5 C17.7,7.7 17.8,7.8 17.9,7.9 C18,8 18.1,8 18.3,8 C18.5,8 18.7,7.9 18.8,7.8 C18.9,7.7 19,7.5 19,7.3 C19,7.1 18.9,6.9 18.8,6.7 C18.7,6.5 18.5,6.3 18.3,6.1 C18.1,5.9 17.8,5.8 17.5,5.6 C17.2,5.5 16.8,5.4 16.3,5.4 C15.7,5.4 15.2,5.5 14.8,5.7 C14.4,5.9 14,6.1 13.8,6.4 C13.6,6.7 13.5,7.1 13.5,7.5 C13.5,7.9 13.6,8.3 13.8,8.6 C14,8.9 14.3,9.1 14.7,9.3 C15.1,9.5 15.5,9.6 16.1,9.7 C16.5,9.8 16.8,9.9 17.1,10 C17.3,10.1 17.5,10.2 17.7,10.4 C17.9,10.6 17.9,10.8 17.9,11 C17.9,11.3 17.8,11.6 17.5,11.8 C17.2,12.3 16.8,12.4 16.3,12.4 Z" id="Shape" fill="#FFFFFF"></path>
                <path d="M21,13.2 C21.1,13.3 21.4,13.3 21.6,13.3 L23.6,13.3 C23.9,13.3 24.3,13.3 24.5,13.2 C24.8,13.2 25,13.1 25.3,13 C25.5,12.9 25.8,12.7 26,12.6 C26.3,12.4 26.5,12.1 26.6,11.8 C26.8,11.5 26.9,11.2 27,10.8 C27.1,10.4 27.1,10 27.1,9.6 C27.1,8.2 26.7,7.2 25.9,6.5 C25.6,6.2 25.3,6.1 24.9,6 C24.5,5.9 24.1,5.9 23.6,5.9 L21.6,5.9 C21.3,5.9 21,6 20.9,6.1 C20.8,6.2 20.7,6.5 20.7,6.8 L20.7,12.3 C20.7,12.5 20.7,12.7 20.8,12.9 C20.8,13 20.9,13.2 21,13.2 Z M22.2,7 L23.2,7 C23.7,7 24.1,7.1 24.4,7.2 C24.7,7.3 25,7.5 25.2,7.9 C25.4,8.3 25.5,8.8 25.5,9.6 C25.5,10.7 25.2,11.4 24.7,11.8 C24.6,11.9 24.5,12 24.3,12 C24.1,12.1 24,12.1 23.9,12.1 C23.8,12.1 23.6,12.1 23.3,12.1 L22.1,12.1 L22.1,7 L22.2,7 Z" id="Shape" fill="#FFFFFF"></path>
            </g>
        </g>
    </g>
</svg>