<?xml version="1.0" encoding="UTF-8"?>
<svg width="34px" height="18px" viewBox="0 0 34 18" version="1.1" xmlns="http://www.w3.org/2000/svg" xmlns:xlink="http://www.w3.org/1999/xlink">
    <!-- Generator: Sketch 49.3 (51167) - http://www.bohemiancoding.com/sketch -->
    <title>rar</title>
    <desc>Created with Sketch.</desc>
    <defs></defs>
    <g id="Page-1" stroke="none" stroke-width="1" fill="none" fill-rule="evenodd">
        <g id="Desktop-HD" transform="translate(-441.000000, -175.000000)" fill-rule="nonzero">
            <g id="rar" transform="translate(441.000000, 175.000000)">
                <path d="M0.4,14.9 L0.4,3.5 C0.4,1.9 1.7,0.5 3.4,0.5 L6.9,0.5 L30.5,0.5 C32.1,0.5 33.5,1.8 33.5,3.5 L33.5,14.9 C33.5,16.5 32.2,17.9 30.5,17.9 L6.9,17.9 L3.3,17.9 C1.7,17.8 0.4,16.5 0.4,14.9 Z" id="Shape" fill="#F39D00"></path>
                <path d="M7.5,13.3 C7.6,13.1 7.7,12.9 7.7,12.6 L7.7,10.2 L8.2,10.2 C8.5,10.2 8.7,10.2 8.9,10.3 C9.1,10.4 9.3,10.5 9.4,10.7 C9.6,10.9 9.8,11.2 10,11.6 L10.6,12.6 C10.7,12.8 10.9,13 10.9,13.1 C11,13.2 11.1,13.3 11.2,13.4 C11.3,13.5 11.5,13.5 11.6,13.5 C11.7,13.5 11.9,13.5 12,13.4 C12.1,13.3 12.2,13.3 12.3,13.2 C12.4,13.1 12.4,13 12.4,12.9 C12.4,12.8 12.3,12.6 12.2,12.4 C12.1,12.1 11.9,11.9 11.7,11.5 C11.5,11.2 11.3,10.9 11,10.6 C10.8,10.3 10.5,10.1 10.2,10 C10.8,9.9 11.3,9.6 11.6,9.3 C11.9,9 12.1,8.5 12.1,8 C12.1,7.7 12.1,7.5 12,7.2 C11.9,7 11.8,6.7 11.6,6.6 C11.4,6.4 11.2,6.3 11,6.2 C10.8,6.1 10.6,6 10.3,6 C10.1,6 9.8,6 9.4,6 L6.9,6 C6.6,6 6.3,6.1 6.2,6.2 C6.1,6.3 6,6.6 6,6.9 L6,12.7 C6,13 6.1,13.2 6.2,13.4 C6.3,13.6 6.5,13.6 6.8,13.6 C7.1,13.5 7.3,13.4 7.5,13.3 Z M7.7,7 L9.1,7 C9.6,7 10,7 10.2,7.1 C10.4,7.2 10.5,7.3 10.6,7.5 C10.7,7.7 10.8,7.8 10.8,8.1 C10.8,8.4 10.7,8.6 10.6,8.7 C10.5,8.9 10.3,9 10,9 C9.7,9 9.4,9 9,9 L7.6,9 L7.6,7 L7.7,7 Z" id="Shape" fill="#FFFFFF"></path>
                <path d="M13.9,13.5 C14.1,13.5 14.3,13.4 14.4,13.3 C14.5,13.2 14.6,12.9 14.8,12.5 L15.2,11.5 L18.3,11.5 L18.7,12.4 C18.7,12.5 18.8,12.7 18.9,12.8 C19,13 19,13.1 19.1,13.1 C19.2,13.2 19.2,13.2 19.3,13.3 C19.4,13.3 19.5,13.4 19.6,13.4 C19.8,13.4 20,13.3 20.1,13.2 C20.2,13.1 20.3,12.9 20.3,12.7 C20.3,12.5 20.2,12.3 20.1,11.9 L18.1,7 C18,6.8 17.9,6.6 17.9,6.4 C17.8,6.3 17.8,6.1 17.7,6 C17.6,5.9 17.5,5.8 17.4,5.7 C17.3,5.6 17.1,5.6 16.9,5.6 C16.7,5.6 16.5,5.6 16.4,5.7 C16.3,5.8 16.1,5.9 16.1,6 C16,6.1 15.9,6.3 15.9,6.5 C15.8,6.7 15.8,6.9 15.7,7 L13.4,12 C13.3,12.2 13.3,12.4 13.2,12.5 C13.2,12.6 13.1,12.7 13.1,12.8 C13.1,13 13.2,13.1 13.3,13.3 C13.6,13.4 13.7,13.5 13.9,13.5 Z M16.7,7.3 L17.8,10.4 L15.5,10.4 L16.7,7.3 Z" id="Shape" fill="#FFFFFF"></path>
                <path d="M22.1,13.5 C22.3,13.5 22.5,13.4 22.7,13.3 C22.8,13.1 22.9,12.9 22.9,12.6 L22.9,10.2 L23.4,10.2 C23.7,10.2 23.9,10.2 24.1,10.3 C24.3,10.4 24.5,10.5 24.6,10.7 C24.8,10.9 25,11.2 25.2,11.6 L25.8,12.6 C25.9,12.8 26.1,13 26.1,13.1 C26.2,13.2 26.3,13.3 26.4,13.4 C26.5,13.5 26.7,13.5 26.8,13.5 C26.9,13.5 27.1,13.5 27.2,13.4 C27.3,13.3 27.4,13.3 27.5,13.2 C27.6,13.1 27.6,13 27.6,12.9 C27.6,12.8 27.5,12.6 27.4,12.4 C27.3,12.1 27.1,11.9 26.9,11.5 C26.7,11.2 26.5,10.9 26.2,10.6 C26,10.3 25.7,10.1 25.4,10 C26,9.9 26.5,9.6 26.8,9.3 C27.1,9 27.3,8.5 27.3,8 C27.3,7.7 27.3,7.5 27.2,7.2 C27.1,7 27,6.7 26.8,6.6 C26.6,6.4 26.4,6.3 26.2,6.2 C26,6.1 25.8,6 25.5,6 C25.3,6 25,6 24.6,6 L22.1,6 C21.8,6 21.5,6.1 21.4,6.2 C21.3,6.3 21.2,6.6 21.2,6.9 L21.2,12.7 C21.2,13 21.3,13.2 21.4,13.4 C21.5,13.6 21.9,13.5 22.1,13.5 Z M22.9,7 L24.3,7 C24.8,7 25.2,7 25.4,7.1 C25.6,7.2 25.7,7.3 25.8,7.5 C25.9,7.7 26,7.8 26,8.1 C26,8.4 25.9,8.6 25.8,8.7 C25.7,8.9 25.5,9 25.2,9 C24.9,9 24.6,9 24.2,9 L22.8,9 L22.8,7 L22.9,7 Z" id="Shape" fill="#FFFFFF"></path>
            </g>
        </g>
    </g>
</svg>