<?xml version="1.0" encoding="UTF-8"?>
<svg width="34px" height="18px" viewBox="0 0 34 18" version="1.1" xmlns="http://www.w3.org/2000/svg" xmlns:xlink="http://www.w3.org/1999/xlink">
    <!-- Generator: Sketch 49.3 (51167) - http://www.bohemiancoding.com/sketch -->
    <title>txt</title>
    <desc>Created with Sketch.</desc>
    <defs></defs>
    <g id="Page-1" stroke="none" stroke-width="1" fill="none" fill-rule="evenodd">
        <g id="Desktop-HD" transform="translate(-1078.000000, -175.000000)" fill-rule="nonzero">
            <g id="txt" transform="translate(1078.000000, 175.000000)">
                <path d="M0.4,14.9 L0.4,3.5 C0.4,1.9 1.7,0.5 3.4,0.5 L6.9,0.5 L30.5,0.5 C32.1,0.5 33.5,1.8 33.5,3.5 L33.5,14.9 C33.5,16.5 32.2,17.9 30.5,17.9 L6.9,17.9 L3.3,17.9 C1.7,17.8 0.4,16.5 0.4,14.9 Z" id="Shape" fill="#F39D00"></path>
                <path d="M7.8,7.1 L9.5,7.1 L9.5,12.6 C9.5,12.9 9.6,13.1 9.7,13.3 C9.8,13.5 10,13.5 10.3,13.5 C10.5,13.5 10.7,13.4 10.8,13.3 C10.9,13.1 11,12.9 11,12.6 L11,7.1 L12.7,7.1 C13,7.1 13.2,7 13.3,6.9 C13.4,6.8 13.5,6.6 13.5,6.4 C13.5,6.2 13.4,6.1 13.3,5.9 C13.2,5.8 13,5.7 12.7,5.7 L7.8,5.7 C7.5,5.7 7.4,5.8 7.2,5.9 C7.1,6 7,6.2 7,6.4 C7,6.6 7.1,6.7 7.2,6.9 C7.3,7 7.5,7.1 7.8,7.1 Z" id="Shape" fill="#FFFFFF"></path>
                <path d="M13.7,12.8 C13.7,13 13.8,13.2 13.9,13.3 C14,13.4 14.2,13.5 14.4,13.5 C14.5,13.5 14.6,13.5 14.7,13.4 C14.8,13.4 14.9,13.3 14.9,13.2 C15,13.1 15,13.1 15.1,13 C15.1,12.9 15.2,12.8 15.3,12.6 L16.7,10.4 L18,12.5 C18.2,12.8 18.3,12.9 18.3,13 C18.4,13.1 18.4,13.2 18.5,13.2 C18.6,13.3 18.7,13.3 18.9,13.3 C19,13.3 19.2,13.3 19.3,13.2 C19.4,13.1 19.5,13.1 19.5,13 C19.6,12.9 19.6,12.8 19.6,12.7 C19.6,12.6 19.6,12.4 19.5,12.3 C19.4,12.2 19.3,12 19.2,11.8 L17.6,9.3 L19.1,7.1 C19.4,6.7 19.5,6.4 19.5,6.2 C19.5,6 19.4,5.9 19.3,5.8 C19.2,5.7 19,5.6 18.8,5.6 C18.7,5.6 18.6,5.6 18.5,5.7 C18.4,5.7 18.3,5.8 18.3,5.9 C18.2,6 18.2,6.1 18.1,6.2 C18,6.3 17.9,6.4 17.8,6.6 L16.6,8.4 L15.5,6.6 C15.3,6.3 15.1,6 15,5.9 C14.9,5.8 14.7,5.7 14.5,5.7 C14.3,5.7 14.2,5.8 14,5.9 C13.9,6 13.8,6.1 13.8,6.3 C13.8,6.4 13.8,6.6 13.9,6.7 C14,6.9 14.1,7 14.2,7.2 L15.6,9.4 L13.9,11.9 C13.8,12.3 13.7,12.6 13.7,12.8 Z" id="Shape" fill="#FFFFFF"></path>
                <path d="M20.8,7.1 L22.5,7.1 L22.5,12.6 C22.5,12.9 22.6,13.1 22.7,13.3 C22.8,13.5 23,13.5 23.3,13.5 C23.5,13.5 23.7,13.4 23.8,13.3 C23.9,13.1 24,12.9 24,12.6 L24,7.1 L25.7,7.1 C26,7.1 26.2,7 26.3,6.9 C26.4,6.8 26.5,6.6 26.5,6.4 C26.5,6.2 26.4,6.1 26.3,5.9 C26.2,5.8 26,5.7 25.7,5.7 L20.8,5.7 C20.6,5.7 20.4,5.8 20.2,5.9 C20.1,6 20,6.2 20,6.4 C20,6.6 20.1,6.7 20.2,6.9 C20.3,7 20.5,7.1 20.8,7.1 Z" id="Shape" fill="#FFFFFF"></path>
            </g>
        </g>
    </g>
</svg>