<?xml version="1.0" encoding="UTF-8"?>
<svg width="34px" height="18px" viewBox="0 0 34 18" version="1.1" xmlns="http://www.w3.org/2000/svg" xmlns:xlink="http://www.w3.org/1999/xlink">
    <!-- Generator: Sketch 49.3 (51167) - http://www.bohemiancoding.com/sketch -->
    <title>zip</title>
    <desc>Created with Sketch.</desc>
    <defs></defs>
    <g id="Page-1" stroke="none" stroke-width="1" fill="none" fill-rule="evenodd">
        <g id="Desktop-HD" transform="translate(-512.000000, -175.000000)" fill-rule="nonzero">
            <g id="zip" transform="translate(512.000000, 175.000000)">
                <path d="M0.4,14.9 L0.4,3.5 C0.4,1.9 1.7,0.5 3.4,0.5 L6.9,0.5 L30.5,0.5 C32.1,0.5 33.5,1.8 33.5,3.5 L33.5,14.9 C33.5,16.5 32.2,17.9 30.5,17.9 L6.9,17.9 L3.3,17.9 C1.7,17.8 0.4,16.5 0.4,14.9 Z" id="Shape" fill="#F39D00"></path>
                <path d="M9.2,13.4 L14.1,13.4 C14.3,13.4 14.5,13.3 14.6,13.2 C14.7,13.1 14.8,12.9 14.8,12.8 C14.8,12.6 14.7,12.5 14.6,12.4 C14.5,12.3 14.3,12.3 14.1,12.3 L10.1,12.3 L13.7,8 C14,7.7 14.2,7.4 14.3,7.3 C14.4,7.2 14.4,7 14.4,6.7 C14.4,6.2 14.1,5.9 13.6,5.9 L9.3,5.9 C9.1,5.9 8.9,6 8.8,6.1 C8.7,6.2 8.6,6.4 8.6,6.5 C8.6,6.7 8.7,6.8 8.8,6.9 C8.9,7 9.1,7.1 9.3,7.1 L12.6,7.1 L8.7,11.7 C8.6,11.8 8.6,11.9 8.5,12 C8.4,12.1 8.4,12.2 8.3,12.2 C8.3,12.3 8.2,12.3 8.2,12.4 C8.2,12.5 8.2,12.6 8.2,12.6 C8.2,12.8 8.3,13.1 8.5,13.2 C8.6,13.3 8.9,13.4 9.2,13.4 Z" id="Shape" fill="#FFFFFF"></path>
                <path d="M16.6,13.5 C16.8,13.5 17,13.4 17.2,13.3 C17.3,13.1 17.4,12.9 17.4,12.6 L17.4,6.6 C17.4,6.3 17.3,6.1 17.2,5.9 C17.1,5.7 16.9,5.7 16.6,5.7 C16.4,5.7 16.2,5.8 16.1,5.9 C16,6.1 15.9,6.3 15.9,6.6 L15.9,12.6 C15.9,12.9 16,13.1 16.1,13.3 C16.2,13.4 16.4,13.5 16.6,13.5 Z" id="Shape" fill="#FFFFFF"></path>
                <path d="M19.9,13.5 C20.1,13.5 20.3,13.4 20.4,13.3 C20.5,13.1 20.6,12.9 20.6,12.6 L20.6,10.5 L22,10.5 C22.9,10.5 23.6,10.3 24.1,9.9 C24.6,9.5 24.8,8.9 24.8,8.1 C24.8,7.7 24.7,7.4 24.6,7.1 C24.5,6.8 24.3,6.6 24.1,6.4 C23.9,6.2 23.6,6.1 23.3,6 C23,5.9 22.5,5.9 22,5.9 L20,5.9 C19.7,5.9 19.4,6 19.3,6.1 C19.1,6.2 19.1,6.5 19.1,6.8 L19.1,12.6 C19.1,12.9 19.2,13.1 19.3,13.3 C19.4,13.5 19.6,13.5 19.9,13.5 Z M20.6,7 L21.6,7 C22.3,7 22.7,7.1 23,7.3 C23.2,7.5 23.3,7.8 23.3,8.1 C23.3,8.4 23.2,8.6 23.1,8.8 C23,9 22.8,9.1 22.5,9.2 C22.3,9.3 22,9.3 21.6,9.3 L20.6,9.3 L20.6,7 Z" id="Shape" fill="#FFFFFF"></path>
            </g>
        </g>
    </g>
</svg>