<?xml version="1.0" encoding="UTF-8"?>
<svg width="14px" height="14px" viewBox="0 0 14 14" version="1.1" xmlns="http://www.w3.org/2000/svg" xmlns:xlink="http://www.w3.org/1999/xlink">
    <!-- Generator: Sketch 49 (51002) - http://www.bohemiancoding.com/sketch -->
    <title>Features</title>
    <desc>Created with Sketch.</desc>
    <defs></defs>
    <g id="Page-1" stroke="none" stroke-width="1" fill="none" fill-rule="evenodd">
        <g id="Features" fill-rule="nonzero">
            <polygon id="Shape" fill="#FFFFFF" points="0 0 14 0 14 14 0 14"></polygon>
            <rect id="Rectangle-2" fill="#494949" x="2" y="7" width="4" height="1"></rect>
            <rect id="Rectangle-2" fill="#494949" x="8" y="7" width="4" height="1"></rect>
            <path d="M0,0 L0,14 L14,14 L14,0 L0,0 Z M1,1 L13,1 L13,13 L1,13 L1,1 Z" id="Shape" fill="#999999"></path>
            <polygon id="Rectangle" fill="#B1B1B1" points="6 9 6 10 2 10 2 9"></polygon>
            <polygon id="Rectangle" fill="#B1B1B1" points="12 9 12 10 8 10 8 9"></polygon>
            <polygon id="Rectangle" fill="#B1B1B1" points="6 11 6 12 2 12 2 11"></polygon>
            <polygon id="Rectangle" fill="#B1B1B1" points="12 11 12 12 8 12 8 11"></polygon>
            <circle id="Oval" fill="#E60018" cx="4" cy="4" r="2"></circle>
            <circle id="Oval" fill="#E60018" cx="10" cy="4" r="2"></circle>
        </g>
    </g>
</svg>